<?xml version="1.0" encoding="utf-8"?>
<!-- Generator: Adobe Illustrator 16.0.0, SVG Export Plug-In . SVG Version: 6.00 Build 0)  -->
<!DOCTYPE svg PUBLIC "-//W3C//DTD SVG 1.1//EN" "http://www.w3.org/Graphics/SVG/1.1/DTD/svg11.dtd">
<svg version="1.1" id="Layer_1" xmlns="http://www.w3.org/2000/svg" xmlns:xlink="http://www.w3.org/1999/xlink" x="0px" y="0px"
	 width="1024px" height="920px" viewBox="0 0 1024 920" enable-background="new 0 0 1024 920" xml:space="preserve">
<path id="path2235" fill="#193F93" stroke="#193F93" stroke-miterlimit="10" d="M795.4,721.6c-3-0.6-4.8-2-8.5-6.5
	c-3.5-4.4-5.3-6-8.3-7.6c-1.8-1-3.6-1-3.6,0c0,0.3,0.7,1.6,1.6,3c1.6,2.5,1.9,3.4,1.2,3.8c-0.5,0.3-10.2-0.9-12.3-1.5
	c-0.9-0.3-2.7-1.1-4-1.9c-1.3-0.8-3.5-1.9-4.7-2.3c-1.2-0.5-2.9-1.3-3.8-2c-1.5-1.1-1.6-1.1-2.1-0.3c-0.3,0.4-1.2,2.4-2,4.2
	c-1.2,2.8-1.4,4-1.4,6.5c0,2.9,0,3.1-1.2,3.5c-1.8,0.7-4.2-0.6-6.7-3.5c-1.1-1.3-2.3-2.4-2.6-2.4c-0.3,0-1.5,0.4-2.6,0.9
	c-1.3,0.6-3.8,1-7,1.3c-5.6,0.4-7.2,1.1-8.3,3.5c-2.1,4.4-4.3-2.1-2.3-6.8c0.4-1,2.5-3.6,4.7-5.8c4.8-5,5.4-5.8,5.4-7.9
	c0-2.3-1.4-4-3.4-4c-1.9,0-8.6,3.8-11.9,6.7c-1.5,1.3-2.5,1.8-3.5,1.8c-0.8,0-3.4,0.4-5.9,1c-4.4,0.9-4.6,1-6.1,2.9
	c-0.9,1.1-1.8,2-1.9,2c-0.2,0-1.1-0.6-2-1.3c-1.4-1.1-2.1-1.3-5.8-1.5c-3.6-0.2-4.6-0.1-7,0.7l-2.8,1l-1.7-1.6
	c-1.1-1.1-3.9-2.6-8.1-4.4l-6.4-2.8l-1-2.5c-1.7-4.4-3.6-7.6-4.8-8.2c-2-1.1-10.5-0.7-14.3,0.6c-2.8,0.9-3.3,1.3-4.1,2.9
	c-1.1,2.1-2,2.4-3.7,1.2c-1.2-0.8-2-0.9-7.6-0.9c-5.8,0-6.4,0.1-8.4,1.1l-2.1,1.1l-1.6-1.2c-1.1-0.9-2.4-1.3-4.6-1.5
	c-1.6-0.2-4.7-0.6-6.7-0.9c-2.9-0.4-4-0.5-4.9,0c-2.2,1-3.2,0.7-4.7-1.4c-1.4-2-3.5-3.2-4.7-2.7c-0.4,0.1-1.2,1.6-1.8,3.3
	c-2.1,5.5-2.5,5.7-7.7,4.1l-3-0.9l-1.3,1.2c-1.6,1.5-1.9,2.4-1.3,3.9c0.4,1,0.3,1.4-0.4,2.1c-1.4,1.4-1.8,1.2-4.6-2.3
	c-2.2-2.8-2.2-3.8,0-4.2c2.4-0.4,3.1-0.9,3.9-2.4c0.8-1.5,0.5-2.4-1.7-5c-0.9-1.2-0.9-1.3-0.2-3.2c0.9-2.3,2.9-4.3,6.1-5.9
	c3.6-1.8,4-4.3,0.8-5.4c-2.7-0.9-2.8-1.7-0.3-5.6c0.9-1.3,1-2.2,1-5.9c0-4.9,0.3-5.4,2.8-6.2c1.6-0.5,7.3-4.4,8-5.5
	c0.6-0.9-0.3-2.6-2.6-5.2c-2.5-2.7-4.4-3.8-6.7-3.8c-2,0-3-0.7-3.6-2.4c-0.7-2.3-6-6.1-8.3-6.1c-1.3,0-2.2-1.2-2.9-3.9
	c-0.7-2.5-4.1-7-5.9-7.8c-1.8-0.7-2.3-1.9-1.7-4.3c0.6-2.6,0-8.3-1-10c-1.2-2-1.1-3.5,0.3-4.1c1.1-0.5,2.3-2.4,3-4.8
	c0.5-1.8-0.2-2.8-3.9-5.3c-2.8-1.8-4.3-3.6-4.3-5c0-0.3,0.8-1.8,1.8-3.3c1-1.5,1.8-3.2,1.8-3.7c0-1.4-0.8-2.8-1.6-2.8
	c-0.4,0-0.9-0.4-1.2-1c-0.4-0.8-0.3-1.2,0.4-2.1c1.1-1.5,4-3.2,5.6-3.2c2.1,0,2.5,1.1,1.5,4.3c-0.6,1.8,0.7,2.6,4.5,3
	c4.4,0.4,5,0.9,5.6,5.3c0.3,2.1,0.7,3.6,1.2,3.9c0.9,0.6,7.7,1.7,8.3,1.3c0.2-0.2,0.4-1,0.4-2c0-4.5,2.5-8.8,6.1-10.4
	c1.1-0.5,3.5-1.9,5.2-3.2c3.6-2.6,5.3-3.3,7.3-2.7c1.8,0.5,2.6,2,2.3,4.7c-0.3,3.3-0.1,3.4,5.1,2.1c3.8-0.9,5.1-1.4,7.2-3
	c3.1-2.3,4.4-2.8,7.2-2.8c4,0,7.2,2.5,7.1,5.5c0,0.6-0.4,1.7-0.9,2.5c-0.8,1.3-1.1,1.5-2.3,1.3c-1.1-0.1-1.6-0.5-2.3-1.9
	c-1-1.9-2.5-2.5-3.8-1.6c-0.5,0.3-0.3,0.9,1.1,3c1.3,1.9,1.9,3.4,2.3,5.8c0.4,2.4,0.9,3.6,1.8,4.5c0.7,0.7,1.3,1.7,1.5,2.2
	c0.1,0.5,1.2,1.8,2.3,3c1.1,1.1,3.3,4.2,4.8,6.7c2.9,4.9,3.9,5.9,5,5.2c0.3-0.2,2.7-1.9,5.3-3.6c2.9-1.9,5.1-3.8,5.8-4.9
	c0.6-1,2.8-3.4,4.8-5.5c3.5-3.5,3.8-3.8,5.6-3.8c3.2,0,5.6,1.5,7.3,4.7c1.5,2.6,1.8,2.9,5.1,4.4c3.8,1.8,5.1,3,12,11.1
	c1.9,2.3,4.2,4.7,5.1,5.3l1.5,1.2l1.3-1.3c0.7-0.7,1.6-2,2.1-2.9c1.1-2.3,3.6-5.3,5.1-6.1c0.8-0.4,2.5-0.7,4.3-0.7
	c2,0,4.3-0.4,6.7-1.2c3.5-1.1,3.9-1.1,9.1-0.7c4.5,0.4,5.8,0.6,7.8,1.7c2.7,1.4,7.8,6,10.2,9.4c3.9,5.4,5.3,6.7,11.6,10.8
	c5.8,3.8,13,7.4,20.9,10.2c3.7,1.3,8.7,2.1,13.6,2.1c4.9,0,4.9,0,7.9-1.7c5.2-3,7.6-3.9,11.1-3.9c4.1,0,5.4,0.6,14.3,6.4
	c7.1,4.7,8.8,5.5,11.4,5.5c2,0,2.8-1,2.8-3.4c0-1.6,0.3-2.3,1.5-3.7c0.8-0.9,2.4-3.3,3.5-5.2c4.7-8.3,10-13.8,15.9-16.7
	c2.5-1.2,4.1-1.6,7.6-2c2.5-0.3,4.8-0.6,5.3-0.7c1.2-0.4,4.8-5.4,5.1-7.3c0.4-2.5,0.9-3.1,2.5-3.5c0.8-0.2,2.5-0.9,3.8-1.6
	c1.3-0.7,2.8-1.3,3.4-1.3c1.2,0,10.1,6.3,10.6,7.5c0.2,0.4,0,1.4-0.3,2.1c-1.5,3.6-2.4,6.5-2.6,8.7c-0.2,2.3-0.3,2.4-2.3,3.3
	c-1.1,0.5-2.6,1.2-3.2,1.5c-1.4,0.7-2.1,2.5-2.5,6.4c-0.2,1.7-0.7,5-1.1,7.2c-0.4,2.2-0.7,4.7-0.6,5.5c0.4,2.4-0.1,3.4-2.2,4.5
	c-2,1.1-4.7,4.3-7.6,9.3c-1.4,2.5-2,3-6.3,5.5c-3.4,2-5.6,3-8,3.6c-2,0.5-4,1.3-5,2c-0.9,0.7-3,2.2-4.7,3.3
	c-4.6,3.1-5.2,5.1-1.6,5.1c2.8,0,5.1-0.8,6.8-2.3c1.2-1.1,1.8-1.3,3-1.1c2.3,0.4,7.3-2,9.7-4.6c1.9-2,1.9-2.1,4.2-1.8
	c2.1,0.3,2.4,0.1,4.8-1.5c2.3-1.6,2.8-1.8,5.3-1.8c2.1,0,3.1-0.3,4.5-1.1c1-0.6,2.4-1.1,3.2-1.1c2.1,0,3.6-0.9,4.1-2.3
	c0.2-0.7,0.9-4.8,1.4-9c0.5-4.3,1.3-8.7,1.8-9.8c0.4-1.1,1.5-3.7,2.4-5.8c0.9-2.1,1.6-4.4,1.6-5.2c0-0.9,0.4-1.8,1.4-2.7
	c0.8-0.7,3.4-4,5.9-7.2c4.1-5.4,4.8-6.1,8-8c1.9-1.1,3.8-2.1,4.1-2.1s3.1-1,6.3-2.2c11.2-4.3,18.6-4.1,26.8,1.1
	c2.9,1.8,6.5,1.8,10.3,0.1c2.9-1.3,8.4-6.4,8.4-7.8c0-1-1.2-1.7-3.7-2.2c-0.8-0.2-2.1-0.8-2.8-1.3c-1.1-0.8-1.3-1.4-1.2-2.8
	c0-1,0.5-2.6,1-3.7c1.3-2.8,0.5-4.6-2.4-5.4c-2-0.5-1.9-1.9,0.3-3.8c1-0.9,2.1-1.6,2.4-1.6c0.4,0,0.8,0.8,1.1,1.9
	c0.8,3.2,1.6,3.6,5.8,3.2c5.7-0.6,6.9-0.2,7.9,3.1c1,3.3,1.1,3.3,8.1-1.1c2.1-1.3,5.1-2.9,6.6-3.5l2.7-1l0-2.3c0-3,0.7-5.4,2.1-7
	c1.6-1.9,2.6-2.1,5.2-0.9c2.5,1.2,4.1,0.8,5-1.2c0.4-1,0.4-1.4-0.5-3c-0.8-1.5-0.9-2-0.5-2.9c0.6-1.4,1.7-1.4,3.8,0.1
	c0.9,0.6,2.5,1.4,3.5,1.8c2.3,0.8,3.1,1.4,3.1,2.5c0,1-1.3,1.8-2.9,1.8c-1.7,0-2.5,0.4-3.2,1.8c-1,1.9-0.8,2.5,0.9,4.8
	c2.1,2.7,2.1,4.3,0,6.8c-0.9,1-1.9,1.9-2.2,1.9c-0.8,0-2.5,2-2.5,3c0,0.5,0.4,2.3,0.9,4c1.2,4.3,1.2,8.3,0,11.6
	c-2.5,6.5-13.2,14.5-22.7,17c-2.8,0.7-5.8,1-14.1,1.3c-12,0.4-12,0.4-13.9,4.2c-2.9,5.8-9.6,12.8-15.5,16c-1.4,0.7-6.1,2.6-10.6,4.2
	c-4.5,1.5-9.4,3.5-11,4.3c-5.6,2.8-9.9,6.7-9.9,9c0,1.3,3.5,3.4,5.6,3.4c4.1,0,15.2-2.1,23.4-4.5c6.6-1.9,11.8-2.7,18-2.7
	c4.8,0,6.1,0.2,10.2,1.4c2.6,0.8,6.2,1.5,8,1.7l3.4,0.3l1.2,2.4c0.7,1.3,2.1,3.6,3.2,5.2c1.1,1.5,2.3,3.5,2.8,4.4
	c0.4,0.9,1.4,2,2.1,2.6c1.4,1.1,1.7,2.6,0.8,4.1c-0.3,0.5-0.7,2.3-1.1,4.1c-0.4,1.8-1.1,4.7-1.7,6.4c-0.8,2.6-1.3,3.3-2.4,3.8
	c-0.7,0.3-2.2,1.4-3.1,2.3c-2.6,2.4-3.2,2.6-5.5,2.1c-2.6-0.6-6.8,0.2-9.7,1.8c-1.5,0.8-2.4,1-2.7,0.7c-2.7-2-3.3-2.2-6.1-2.4
	c-2.1-0.1-3.4,0-4.4,0.6c-2.1,1.1-2.6,0.9-4.8-1.3c-2.5-2.6-4-3.2-6.1-2.5c-0.9,0.3-2.2,0.5-2.9,0.4c-1.2-0.1-1.4-0.3-1.6-2.2
	c-0.2-1.7-0.5-2.2-2.2-3.5c-1.7-1.3-2.3-1.5-4.1-1.4c-1.7,0.1-2.4-0.1-3.6-1c-1.9-1.4-4.1-2.2-6.1-2.2c-1.7,0-2.9,1.4-4,4.4
	c-0.6,1.7-3.6,6.7-5.4,9.2c-0.5,0.7-3.4,2.5-6.8,4.2c-10.7,5.4-14.5,6.5-24,6.5c-7.9,0-11.9-0.7-23.4-4.1
	c-9.3-2.8-13.6-3.5-20.4-3.5c-1.7,0-3.4,0.2-3.9,0.4c-0.4,0.2-1.6,1.5-2.7,2.9c-1,1.4-3.8,4-6.1,5.9c-3.8,3-4.2,3.5-3.8,4.3
	c0.9,1.7,4,3.5,7.5,4.3c3.5,0.8,4.3,1.5,3.2,2.7c-2.3,2.8-10.8,3.5-16.1,1.4c-1.6-0.6-4.4-1.9-6.2-2.8c-1.8-0.9-3.5-1.5-3.7-1.4
	c-0.2,0.1,0.1,1.1,0.7,2.1c0.6,1,1,2.1,0.8,2.4C799.9,721.8,797.6,722.1,795.4,721.6z M810.2,716.1c0-0.1-1.5-1.5-3.3-3
	c-1.8-1.6-5.1-4.3-7.3-6.2c-4.9-4.2-10.6-7.2-16.5-8.7c-4.4-1.1-9.8-1.5-11-0.7c-0.8,0.5-1.3,4.5-0.5,5c0.3,0.2,1.3,0.2,2.3,0.1
	c1.8-0.2,5.2,0.7,8.3,2.2c2.5,1.3,5.8,4.5,8,7.8c2.8,4.3,3.8,3.6,3.1-2.3c-0.1-1,0-1.4,0.6-1.5c0.4-0.1,4.1,1.6,8.1,3.7
	C808.4,715.9,810.2,716.7,810.2,716.1z M745.1,710.5c1.5-5.3,2.3-10.1,1.9-12.2c-0.4-2.1-2.1-5-3.9-6.5c-0.8-0.7-4.9-2.9-9.2-5
	c-6.8-3.3-8-4.1-10-6.3c-2.8-3.1-5-7.4-5-9.8c0-1.6,0.1-1.7,0.8-1.3c0.5,0.2,1.6,1.8,2.6,3.4c3,5.1,7.6,8.4,17.7,12.7
	c6.6,2.8,9.8,4.8,13.3,8.3c3.4,3.4,4.3,3.6,5.1,1.5c1.2-3.1-0.6-6.7-4.6-9.7c-4.1-3.1-4.5-3.2-10.6-3.5c-4.8-0.3-5.7-0.4-6.2-1.2
	c-0.3-0.5-0.6-1.1-0.5-1.3c0.5-1.6,7.3-2.5,12.1-1.6c5.3,1,9.3,3.9,13.1,9.4c1,1.4,1.4,2.6,1.5,4.5c0.2,3.4-0.9,5.9-3.9,8.6
	c-2.5,2.3-3,3.3-1.9,3.9c0.9,0.5,3.4-0.3,5.4-1.7c2.5-1.8,3.8-3.9,4.3-7.2l0.5-3l4.3,0c5.2,0,7.5-0.4,7.8-1.4
	c0.4-1.1-0.1-1.5-2.1-1.5c-2.7,0-4.1-1.1-8.8-6.4c-7.2-8.3-10.9-9.3-25.1-7.5c-3.5,0.5-4.8,0.4-8.4-0.2c-8.6-1.5-12.5-4-14-9
	c-1-3.3-0.7-7.5,0.6-9.2c3.2-4.4,9.4-4.7,12.5-0.6c1.3,1.7,1.9,1.7,2.5,0.3c0.5-1.3-1-4.2-2.9-5.4c-1.7-1.1-5.2-1.7-7.7-1.3
	c-2.1,0.4-5.9,3.4-7.5,6c-2.2,3.4-3.3,7.7-2.9,11.2c0.7,6.6,3.3,12,10.5,21.4c7,9.2,7.1,12,1.1,19c-1.5,1.8-2.8,3.4-2.8,3.7
	c0,0.9,1.9,1.5,3.9,1.2c3.9-0.5,6.4-2.5,8.5-6.6c0.6-1.2,0.8-2.5,0.7-5.9c-0.1-4.5,0.4-5.8,2-5.2c1.6,0.6,2.1,3.4,2.2,10.9
	c0,5.4,0.2,7.4,0.7,8c0.3,0.4,0.7,0.7,0.9,0.7C743.7,714.9,744.4,713,745.1,710.5z M771.1,709.3c0-0.4-0.7-1.4-1.6-2.2
	c-1.8-1.8-3.9-2.1-5.4-0.9c-0.8,0.7-0.8,0.7,0.4,1.8C766.7,709.7,771.1,710.7,771.1,709.3z M814.1,704.8c5-2.5,7-5,6.4-8.3
	c-0.6-3.4-0.5-6.6,0.5-9c1.1-2.9,1.2-6.1,0.1-7.8c-2.6-4-10-7.1-16.8-7.2l-3.5,0l-10.2,5.2c-5.6,2.9-10.9,5.4-11.7,5.7
	c-2.3,0.8-1.7,1.9,1.5,3.1c5.3,2,5.3,2,4.5,6l-0.3,1.7l2.5,0.7c2.4,0.7,2.7,0.7,4.5,0c2.9-1.1,4.5-0.4,5.3,2.4
	c0.5,1.9,0.9,2.3,5.5,5.6c4.9,3.5,5,3.5,7.2,3.3C810.7,706.1,812.8,705.4,814.1,704.8z M808.9,697.2c-0.9-1.1,0.5-3,2.2-3
	c0.2,0,0.6,0.4,0.9,0.9C813,697.1,810.3,698.9,808.9,697.2z M806,691.1c-0.9-0.5-1.1-2.7-0.2-3.5c0.3-0.3,1-0.5,1.5-0.5
	c2.1,0,2.8,2.6,1,3.8C807.1,691.7,807.1,691.7,806,691.1z M792.8,688.5c-0.8-0.3-0.7-2.6,0.1-3.3c1.5-1.2,3.5,1,2.8,2.9
	C795.4,688.8,793.9,689,792.8,688.5z M811.5,684.4c-0.7-0.7-1.3-1.6-1.3-2c0-0.8,1.9-2.9,2.7-2.9c0.3,0,1,0.5,1.6,1.1
	c1.4,1.4,1.5,4,0.2,4.7C813.4,685.9,812.9,685.8,811.5,684.4z M796.7,679.8c-1.4-1.4-1-2.7,1-3.5c2.3-0.9,3-0.5,3,1.6
	c0,1.4-0.2,1.8-1.1,2.3C798,680.9,797.7,680.9,796.7,679.8z M696.5,702.1c3.7-0.6,12.1-3.8,17.1-6.4c3.6-1.9,6.6-4.6,6.6-6.1
	c0-0.6-1.1-2.9-2.5-5.3c-1.5-2.5-3-6.1-3.8-8.7c-1-3.1-1.7-4.6-2.4-5.1c-1.5-1-14.8-5.4-18.3-6c-1.6-0.3-5.8-0.7-9.4-0.9
	c-7.6-0.4-11,0.1-16,2.4c-4.2,2-6,4-7.8,9.1c-2,5.5-1.8,8.3,0.9,13.9c2.5,5,5.1,7.8,9.2,9.8c3.2,1.6,8.3,3.3,11.9,3.9
	C684.5,703.3,691.9,702.9,696.5,702.1z M688.1,696.7c-1.5-2.3,0.7-5.9,2.9-4.8c2,1.1,2.4,3.4,0.8,4.9
	C690.4,698.1,689,698.1,688.1,696.7z M670.1,692.1c-1.2-1.8-0.5-3.5,1.5-3.7c2.7-0.3,3.7,2,1.7,3.9C672,693.7,671,693.6,670.1,692.1
	z M704.3,685.4c-0.5-0.5-0.7-1.3-0.6-2.6c0.1-1.5,0.4-2,1.4-2.5c1.2-0.5,1.4-0.5,2.5,0.3c1.7,1.3,1.7,2.5,0,4.1
	C706.1,686.3,705.3,686.5,704.3,685.4z M685.3,685c-1.7-0.8-2.1-1.8-1.5-3.4c0.8-2.2,2.8-2,5.8,0.7c1.2,1.1,1.3,1.8,0.3,2.8
	C689,685.9,687.2,685.9,685.3,685z M689,678c-1.3-1.9-0.5-4.9,1.5-5.4c1.3-0.3,3.6,1.7,3.6,3.1c0,1.4-1.9,3.3-3.3,3.3
	C690.2,678.9,689.4,678.5,689,678z M669.9,675.6c-0.9-1.6-0.5-3.5,1-4.3c2.9-1.6,5.4,2.4,2.8,4.4C672.1,677,670.6,677,669.9,675.6z
	 M884.7,701.2c3.3-0.7,9.1-3.3,12.8-5.8c6.3-4.3,11.6-11.5,9.9-13.6c-0.3-0.4-1.6-1-2.9-1.3c-3.3-1-4.5-2.5-4.9-6.3
	c-0.4-3.3,0-6.7,1-8.5c0.8-1.6,0.6-2.3-1.2-3.2c-1.9-1-9.9-1-13.6,0c-4.6,1.2-14.2,5-24,9.4c-11.1,5-13.1,5.7-24.3,7.9
	c-9,1.8-9.9,2.2-12.1,5.3c-1.5,2.1-2.1,6-1.2,7.6c0.7,1.3,3.4,1.8,11.2,2.2l6.3,0.3l1.2-1.9c1-1.6,1.3-1.8,2-1.4
	c1.3,0.7,2,1.7,1.7,2.6c-0.2,0.7,0.2,1,1.6,1.8c4.8,2.4,11.7,4.5,17.4,5.3C870.5,702.4,879.9,702.2,884.7,701.2z M872,697.6
	c-0.7-1.1-0.7-1.2,0.1-2c1.1-1.3,2.7-1.1,3.3,0.3C876.5,698.4,873.5,699.9,872,697.6z M854.5,692.4c-1.8-2.1-1.5-2.9,1.4-3.9
	c1.3-0.4,1.6-0.4,2.4,0.4c1.1,1.1,1.1,2.7,0,3.9C857,694.2,855.9,694,854.5,692.4z M886.8,688.6c-0.7-1-0.7-1.2,0-2.3
	c0.9-1.4,2-1.3,2.9,0.3c0.6,1.1,0.6,1.3-0.2,2.1C888.5,690,887.7,690,886.8,688.6z M866.9,687.9c-0.7-0.7-0.7-3.3-0.1-3.7
	c0.9-0.6,2.6,0.3,3.3,1.6c0.6,1.2,0.6,1.4-0.1,2C869.1,688.5,867.7,688.6,866.9,687.9z M844.4,684.1c-0.5-0.7-0.9-1.4-0.9-1.8
	c0-0.8,2.6-2.9,3.6-2.9c1.3,0,2.4,1.3,2,2.6C848.3,685.2,846.1,686.2,844.4,684.1z M865,679.1c-2.4-0.9-3.1-3.9-1.2-4.6
	c1.6-0.6,2.8-0.1,3.6,1.6c0.9,1.9,0.9,2-0.1,2.8C866.6,679.4,866.1,679.5,865,679.1z M881,674.6c-1.5-1.6-1.5-3.2,0.1-3.6
	c2.6-0.7,4.8,2,3.1,3.9C883.1,676.1,882.3,676,881,674.6z M962.9,691.5c7.5-0.8,11.3-3,14.1-7.8c3-5.2,0.8-13-5.2-19
	c-2.8-2.7-5-3.9-9.9-5.2c-8.7-2.3-19.8-1.3-33,3c-6.2,2-8.6,2.6-14.5,3.3c-5.8,0.7-7.4,1.1-9,2c-2.4,1.4-3.5,3.4-3,5.5
	c0.6,2.5,1.5,2.9,7,3.5c7.9,0.8,15.3,3.3,24.1,8.1c8.1,4.4,11.6,5.6,18.5,6.5C956.1,692,958.1,692.1,962.9,691.5z M953.3,686.7
	c-0.5-0.2-1.9-2.9-1.9-3.6c0-0.1,0.4-0.4,0.9-0.7c0.7-0.4,1-0.4,1.5,0.2c0.3,0.4,0.9,0.7,1.4,0.8c0.6,0.1,0.9,0.6,1,1.5
	C956.5,686.7,955.1,687.5,953.3,686.7z M965.9,684.3c-0.9-0.9-0.7-3.9,0.3-4.4c1.1-0.6,3.7,0.9,3.7,2.1
	C969.8,683.9,967.1,685.5,965.9,684.3z M945.2,678.4c-1-1-0.7-2.6,0.6-2.9c1.4-0.4,3,0.9,2.8,2.3
	C948.4,678.9,946.1,679.3,945.2,678.4z M931.3,676c-1.2-0.8-1.3-2.5-0.2-3.5c1.2-1.1,2.2-0.9,3,0.6c0.9,1.8,0.9,2.6-0.2,3.2
	C932.7,676.9,932.4,676.8,931.3,676z M955.5,674.2l-0.9-1.6l1.1-1.4c1.3-1.5,2.2-1.7,3.7-0.7c1.3,0.9,1.3,2.9,0,4.2
	C957.8,676.3,956.6,676.1,955.5,674.2z M921.2,672.2c-2.4-1.2-2.9-2-2.3-3.4c0.3-0.6,1-1.2,1.7-1.4c2.3-0.6,4.3,2.9,2.8,4.9
	C922.9,673,922.7,673,921.2,672.2z M945.3,665.7c-0.4-1.5,0.4-3.4,1.5-3.4c1.1,0,2.7,1.3,3,2.5c0.3,1.2,0.1,1.4-2.4,1.8
	C945.7,666.9,945.6,666.8,945.3,665.7z M582.4,687.8c1.5-2.1,0.3-6.8-1.8-7.4c-2.3-0.6-6.9,2.1-6.3,3.6c0.4,1.1,5.4,4.8,6.5,4.8
	C581.2,688.8,582,688.4,582.4,687.8z M630.8,687.7c2.8-0.4,7.1-1.2,9.6-1.8c2.5-0.6,6.3-1.3,8.5-1.4c2.2-0.2,4.3-0.5,4.6-0.7
	c0.3-0.2,0.6-1.1,0.6-1.8c0-0.8,0.3-2.8,0.7-4.5c0.4-1.7,0.5-3.3,0.4-3.7c-0.1-0.4-1.4-1.1-2.8-1.6c-5.2-2-7.4-3.7-14.7-12
	c-3.1-3.5-6.3-6.7-7.1-7.1c-2.4-1.1-13-3.4-15.8-3.4c-3.3,0-5.9,1.2-7.3,3.4c-0.7,1-1.3,1.6-1.8,1.5c-0.7-0.1-0.7-0.8-0.6-6.2
	l0.1-6.1l-2.7-7.9c-4.8-13.9-14.1-31.6-19.6-37.1c-4-4-11.2-6-14.9-4.1c-3.2,1.7-5.5,5.3-6.6,10.5c-1,4.9,0.7,11.6,4.3,17
	c2.4,3.6,8.7,9.5,15.1,14c6.3,4.5,11.3,9.4,13.2,12.8c1.9,3.4,1.6,4-2.8,6.1c-4.4,2.2-6.9,4.4-8.5,7.8c-1.1,2.1-1.2,3-1.2,6.7
	c0,5,0.6,6.5,4.2,10.4c2.2,2.4,7.3,5.7,11.6,7.7C601.6,688.2,621.1,689,630.8,687.7z M619.8,682c-1.7-2.4,0-5.2,2.4-4
	c1.2,0.7,1.3,3.2,0.1,4.2C621.2,683.2,620.6,683.2,619.8,682z M605,678.6c-0.7-0.8-0.7-1-0.1-2.5c0.7-1.7,1.4-2,2.7-1
	c0.6,0.4,0.8,1.1,0.6,2.4c-0.1,1.5-0.3,1.8-1.3,1.9C606.2,679.4,605.4,679.1,605,678.6z M637.9,677.4c-0.7-1.5-0.2-3.2,1.2-4.2
	c1.5-1,2-0.3,2,2.6c0,1.5-0.2,2.2-0.7,2.4C639.1,678.7,638.4,678.5,637.9,677.4z M592.8,675.2c-1.6-1.2,0.6-4.7,2.3-3.6
	c1.2,0.8,1.6,1.8,1.3,3c-0.2,0.9-0.6,1.2-1.6,1.2C594.2,675.8,593.2,675.5,592.8,675.2z M614,673.2c-1.3-1.5-1.4-2-0.6-2.8
	c1.9-2.1,4.2,0,3.1,2.9C616.2,674.2,614.9,674.2,614,673.2z M625.6,670.2c-1.2-1.2-1.4-2.8-0.5-4c0.9-1.3,2.7-0.8,3.5,1
	c0.8,1.7,0.5,2.8-1,3.6C626.9,671.2,626.5,671.1,625.6,670.2z M590.9,666.5c-1.5-1-1.4-4.6,0.2-5.2c0.8-0.3,2.6,0.7,3.3,2
	c0.4,0.7,0.2,1.1-0.7,2.2C592.4,666.8,591.8,667.1,590.9,666.5z M609.2,666.4c-1.6-0.5-1.8-2.6-0.5-4.2c0.8-1,0.9-1,2.1-0.3
	C613,663.5,611.7,667.3,609.2,666.4z M621.3,659.6c-1.3-1.3-1.2-3.4,0.2-4.8c1.4-1.4,2.2-0.9,3,1.7c0.6,1.9,0.2,2.7-1.5,3.6
	C622.4,660.4,622,660.3,621.3,659.6z M595.4,632.3c-1.3-0.9-1.3-4.6,0-4.6c1,0,3.4,2.2,3.4,3.2C598.8,632.2,596.6,633.1,595.4,632.3
	z M585.5,631.4c-1-0.7-1.6-2.3-1.1-3.3c0.5-0.9,0.6-0.9,2.2-0.2c2.2,0.9,2.5,1.3,2.2,2.6c-0.2,0.9-0.6,1.2-1.5,1.2
	C586.6,631.7,585.8,631.6,585.5,631.4z M571.4,621.4c-1.1-1.1-1.2-2.8-0.2-3.8c0.9-0.9,1.5-0.9,2.8,0c1.3,0.9,1.4,3.6,0.1,4.2
	C572.9,622.5,572.4,622.4,571.4,621.4z M581.5,618.5c-0.7-0.5-0.8-0.9-0.4-1.9c0.7-1.9,1.7-2.3,3.1-1.4c1.9,1.3,1.3,3.9-0.9,3.9
	C582.8,619.1,582,618.9,581.5,618.5z M567.4,607.8c-0.7-0.7-0.7-1.8,0.2-3c0.9-1.3,2-1.3,3.3,0c1.2,1.3,1.2,1.7,0.2,2.7
	C570.1,608.5,568.2,608.6,567.4,607.8z M576.7,602.5c-1.1-0.6-1-2.8,0.1-3.8c1.8-1.6,3.9,1.3,2.4,3.3
	C578.5,603,577.9,603.2,576.7,602.5z M780.8,677c1.7-0.6,5.8-2.4,9-4c3.2-1.6,7.1-3.4,8.6-3.9c3.5-1.2,8-1.2,13.3,0l4,0.9l1.9-2.1
	c3.7-4,7.8-14.6,6.7-17.4c-0.2-0.4-1.6-1.4-3.1-2.1c-1.6-0.8-3.5-1.9-4.4-2.6c-3.7-2.8-12.8-8.6-13.7-8.9c-2-0.5-5.4,0.1-9,1.8
	c-5.2,2.3-9.2,3.1-16.6,3.2c-5.7,0-6.7-0.1-10.2-1.2c-5.5-1.7-5.5-1.7-5.1,1.2c0.3,2.3,0.2,2.5-0.6,2.5c-2,0-5-4.3-5-7.3
	c0-0.9-3.1-3-8.9-6c-6.5-3.5-11.4-7.4-16.4-13.2c-6.3-7.4-7.1-8.1-8.8-8.9c-2.2-0.9-10.9-1.3-14.5-0.6c-1.5,0.3-4.4,0.7-6.3,0.9
	c-2.4,0.2-3.8,0.6-4.4,1.2c-0.7,0.7-5.5,8.2-6.2,9.8c-0.1,0.2,0.2,0.8,0.6,1.2c0.6,0.7,1.4,0.9,3.4,0.9c3.5,0,4-0.2,4.9-2.5
	c0.6-1.3,1.1-2,1.7-2c0.8,0,1.9,1.7,1.9,3c0,2,4,5.6,5.6,5c0.4-0.1,0.7-1.4,0.8-3.4c0.2-3.1,0.8-4.5,1.9-4.5c1,0,1.2,1.3,1.5,6.9
	l0.2,5.3l2.6,2c1.4,1.1,5.7,3.7,9.6,5.8c8.4,4.6,26.2,15.9,31.7,20.2c5.4,4.2,10.3,9.1,13.4,13.5c3.1,4.3,5.2,6.6,6.1,6.6
	C777.4,678,779,677.6,780.8,677z M800.1,664.1c-1.7-1.9-1.9-2.8-0.6-3c1-0.2,3.5,2.5,3.5,3.8C803,666.4,802,666.2,800.1,664.1z
	 M808.9,663.5c-1.9-1.6-3.6-5-3-6c0.8-1.2,1.4-1.2,2.7,0.2c1.7,1.8,3.8,5.6,3.5,6.3C811.8,664.9,810.4,664.7,808.9,663.5z
	 M765.2,659.5c-1.5-2-1.6-3.2-0.3-3.4c1-0.2,2.4,1,3.3,2.8C769.8,661.8,767.3,662.4,765.2,659.5z M775.6,656.3c-3.1-3.4-4.5-7-2.6-7
	c1.9,0,5.7,5,5.7,7.5C778.7,658.8,777.9,658.7,775.6,656.3z M814.2,655.5c-2.5-3.2-3.7-5.6-3.4-6.9c0.4-1.8,1.5-1.2,3.8,2
	c2.4,3.2,3.4,5.6,3,6.6C817.2,658.4,816.1,657.8,814.2,655.5z M783,653.7c-2.1-3.6-2.6-5.6-1.4-6c1.5-0.6,4.2,3.5,4.2,6.5
	C785.9,656.3,784.4,656.1,783,653.7z M793.5,652.5c-1.9-2.3-2.8-4.6-2.4-6.3c0.6-2.3,3.2-0.4,4.2,3
	C796.3,652.4,795.1,654.5,793.5,652.5z M800.1,647.4c-0.8-1.1-0.9-3.5-0.2-3.5c0.6,0,2.2,2.7,2.2,3.7
	C802.1,648.7,800.9,648.6,800.1,647.4z M742.6,645c-2.2-1.2-2.8-3.3-1-3.3c1.4,0,3.5,2,3.3,3C744.7,645.7,744.1,645.8,742.6,645z
	 M749.6,642.8c-3.1-3.1-2.2-5.1,1.2-2.7c2.2,1.5,3.3,3,2.9,4C753.3,645.3,751.6,644.8,749.6,642.8z M720.5,628.1
	c-0.4-0.8-0.9-2.5-1-3.9c-0.2-2.2-0.2-2.4,0.7-2.4c1.4,0,2.4,1.9,2.5,4.8c0,2.1-0.1,2.6-0.7,2.7C721.5,629.5,720.9,629,720.5,628.1z
	 M729.3,626.8c-2.3-3.2-2.3-6.6,0.1-5.3c1.1,0.6,3.1,4.7,3,5.9C732.1,629.1,730.7,628.8,729.3,626.8z M829,676.6
	c0.6-0.3,2.1-2,3.3-3.9c5.2-7.6,6.3-8.5,14.4-11.9c2.7-1.1,5.9-2.7,7.2-3.6c8.7-5.8,17.4-17.1,19-24.7c0.7-3.5,0.6-4.1-1.6-6.2
	l-1.8-1.7l2.2-1.7c6.8-5.5,9.4-8.8,9.9-12.4c0.5-4-2.3-7.1-6-6.5c-2.7,0.5-6.4,4.5-7.1,7.7c-0.2,1.1-0.1,1.7,0.9,2.8
	c1.6,1.9,1.4,2.6-0.6,3.4c-1,0.4-2.2,1.2-2.7,1.8c-1.4,1.8-2.7,1.5-3.3-0.7c-0.7-2.4-1.8-2.8-6.3-2.5c-4.4,0.3-6.2,1.2-10.7,5.5
	c-8,7.6-15.1,21.6-18.4,36.1c-0.7,2.9-1.6,4.8-4.3,9.3c-1.1,1.8-2,3.7-2,4.3c0,1.2,2.6,4.2,4.4,5.2
	C826.5,677.5,827.1,677.5,829,676.6z M832.8,661.8c-1.3-1.3-0.3-3.5,1.5-3.5c1.2,0,2.1,2.1,1.5,3.3
	C835.2,662.4,833.5,662.6,832.8,661.8z M850,652.5c-1-1.1-0.6-2.6,0.9-3.3c0.9-0.4,1.3-0.4,2.1,0.5c0.9,0.9,0.9,1.1,0.3,2.2
	C852.5,653.4,851.1,653.6,850,652.5z M836.5,645.7c-0.9-1-0.6-2.5,0.6-3.2c1.9-1,3.3,1,2.1,2.9C838.3,646.8,837.6,646.9,836.5,645.7
	z M847.6,643.8c-0.8-0.4-1-0.8-0.9-1.7c0.1-1,0.4-1.2,1.7-1.3c1.9-0.2,2.9,0.7,2.5,2.4C850.6,644.4,849.4,644.6,847.6,643.8z
	 M862,642.2c-0.6-1.7,1.8-3.2,3-1.8c0.4,0.5,0.4,0.9,0.1,1.6C864.5,643.2,862.4,643.3,862,642.2z M844.4,636.1
	c-1.9-2-0.9-4.1,1.8-3.8c1.3,0.1,1.5,0.3,1.6,1.4c0.2,1.3-0.4,2.3-1.7,3C845.6,637,845.1,636.8,844.4,636.1z M864.9,634.6
	c-1.9-0.5-1.5-4.2,0.6-5.1c1.6-0.7,2.4-0.2,3.1,1.8c0.4,1.1,0.3,1.5-0.4,2.4C867.3,634.8,866.6,635,864.9,634.6z M855,632.4
	c-1.5-1.5-0.6-3.5,1.6-3.3c1.3,0.1,1.6,0.3,1.7,1.3c0.1,0.8-0.2,1.4-0.9,1.9C856.1,633.3,855.8,633.3,855,632.4z M850.2,624.5
	c-1.4-2.6,1.1-5.3,3.4-3.8c1.4,0.9,1.4,2.5,0.1,3.8C852.4,625.7,850.8,625.7,850.2,624.5z M875.7,611.2c-0.6-0.2-0.8-0.7-0.8-2.4
	c0-2,0.1-2.3,1.1-2.7c1-0.5,1.3-0.4,2.3,0.6c1,1,1.1,1.3,0.6,2.6c-0.4,1.2-1.7,2.5-2.3,2.3C876.6,611.4,876.2,611.3,875.7,611.2z
	 M765.7,673.1c0-0.7-5.7-6.8-10.4-11c-2.5-2.3-6.1-5-8.2-6.2c-5.6-3.2-5.3-3.2-5.3,0.3c0,2.1-0.3,3.5-0.9,4.8
	c-2.3,4.6-8.7,4.8-10.5,0.4c-1.3-3.2-3.1-3.5-4.5-0.9c-1.6,3.1-0.2,7.4,2.9,8.9c3.9,1.8,6.3,2.1,15,1.7c11.5-0.5,13.6-0.4,17.7,1.1
	C765.6,673.7,765.7,673.7,765.7,673.1z M659.3,666.8c0.7-0.8,2.6-2.3,4.2-3.5c1.6-1.1,3-2.1,3.1-2.2c0.1-0.1-0.1-0.5-0.5-0.9
	c-1.1-1.3-1.4-2.8-0.8-4.8c0.6-2.2,2-3.3,3-2.5c0.4,0.4,0.6,1.5,0.6,3.8c0,1.8,0.1,3.3,0.2,3.5c0.1,0.1,1.6,0,3.3-0.4
	c1.7-0.3,3.8-0.6,4.7-0.6c2.3,0,3.9-1.4,4.3-3.6c0.3-1.9,1.3-3.1,2-2.4c0.2,0.2,0.7,1.2,1,2.2c0.7,2,1.5,2.4,5.7,2.6l2.5,0.1l0-2.9
	c0-3.1,0.3-4,1.3-4c0.9,0,1.9,1.4,4.1,5.7l2,4.1l4.3,1.9c2.4,1,4.9,1.9,5.6,1.9c1.2,0,1.4-0.2,1.8-1.9c1.4-5.5,2.6-7.9,5.8-11.3
	c2.4-2.5,4.8-4.1,7.7-4.8c1.1-0.3,2.4-0.7,2.8-1c0.8-0.4,0.8-0.5,0-1.3c-0.4-0.5-1.9-1.5-3.3-2.4c-9-5.3-11.3-6.8-13.5-8.6
	c-6.6-5.4-7.2-5.6-17.2-6.9c-4.1-0.5-6.2-1.8-7.8-5.1c-0.6-1.2-1.9-3.1-2.9-4.2c-1-1.2-3-3.7-4.5-5.6c-3.8-4.9-7.1-7.9-10.6-9.5
	c-3.2-1.5-3.4-1.7-5.8-5.3c-1.6-2.4-2.7-3.3-4.2-3.3c-1,0-6.1,4.8-8.2,7.8c-0.9,1.2-3.3,3.6-5.5,5.3c-2.2,1.7-5.8,4.8-8.1,6.8
	c-2.3,2-6.5,5.3-9.3,7.3c-2.8,1.9-6.6,4.5-8.3,5.7c-1.7,1.2-4.8,3.7-6.7,5.5l-3.6,3.3l0.1,2.2c0.1,2.4,1.3,7.4,1.9,8
	c0.9,0.9,3-0.4,5.9-3.4c3.1-3.2,3.3-3.4,4.4-2.7c0.6,0.4,0.6,0.7,0.1,2.7c-0.3,1.3-0.4,2.5-0.2,2.7c0.5,0.5,5.2,1.8,6.4,1.8
	c0.5,0,1.4-0.6,1.9-1.3c2-2.8,3.5-2.3,3.6,1.2c0.1,2.5,0.1,2.5,2.7,4.3l2.6,1.8l1.8-1.6c3.2-2.9,4.2-2,3,2.6c-1.1,4.5-1,5.2,1.2,7.3
	c2.5,2.4,5.5,4.4,9,6C656.6,668.5,657.7,668.5,659.3,666.8z M651.1,662.1c-0.4-1.1,0.2-5.9,0.9-7.3c0.8-1.6,2-2.1,2.9-1.2
	c0.6,0.6,0.6,1.2,0.2,4.1c-0.5,3.5-1.4,5.2-2.9,5.2C651.8,662.8,651.3,662.4,651.1,662.1z M707.6,657.9c-1.4-1.5-2.8-5-2.5-6.5
	c0.2-1.7,1.9-1.6,3.3,0.2C711.6,656,710.9,661.5,707.6,657.9z M660.5,646.9c-0.7-0.9-1.5-9.2-1-10.2c0.6-1.1,1.9-1.1,2.9,0
	c1,1.1,1.5,8.2,0.7,9.8C662.6,647.6,661.3,647.8,660.5,646.9z M672.4,646.6c-0.6-0.6-0.9-1.8-1-3.6c-0.2-3.5,0.1-4.9,1.3-4.9
	c1.5,0,2.4,1.9,2.4,5.7c0,3.2,0,3.5-0.9,3.6C673.6,647.5,672.8,647.1,672.4,646.6z M684.2,646.9c-1-0.7-2-2.8-2.6-5.4
	c-0.6-2.4-0.4-3.7,0.6-4.1c1.2-0.5,1.9,0.2,3.3,3.2c1.6,3.5,2,5.1,1.6,6.1C686.8,647.6,685.2,647.7,684.2,646.9z M697.1,646.2
	c-1.5-0.3-3.4-2.4-4.5-5c-1.6-3.6-1.3-4.9,0.9-4.4c1.4,0.4,6.7,6.5,6.5,7.6C699.8,645.6,698.3,646.5,697.1,646.2z M708,643.8
	c-2-1.7-5.8-7.1-5.8-8.2c0-1.2,1.7-1.9,2.9-1.3c1.4,0.8,7.1,8.5,6.9,9.4C711.9,645,709.5,645,708,643.8z M649,643
	c-0.6-1.8,1.5-7.5,2.6-7.1c1.6,0.5,0.3,7.6-1.4,7.9C649.6,643.9,649.2,643.6,649,643z M638.7,640c-1.1-1.1,0.4-4.7,2.3-5.5
	c1.3-0.6,1.7,0.2,1.3,2.2C641.8,639.3,639.8,641.1,638.7,640z M628.5,635.2c0-0.8,2.9-4.6,3.8-5c2.1-0.8,2.1,0.9-0.1,3.6
	C630.7,635.8,628.5,636.6,628.5,635.2z M671.5,628.9c-1.2-2.9-2.1-6.7-1.9-7.8c0.3-1.2,1.9-1.9,2.6-1.2c0.6,0.6,2.6,7.6,2.6,8.9
	c0,1-0.8,1.5-2.1,1.5C672.4,630.4,671.8,629.7,671.5,628.9z M621,629.3c-0.4-1,1-2.9,2.3-3.2c2.5-0.6,3.3,1,1.2,2.4
	C622.7,629.8,621.4,630.1,621,629.3z M662.6,628.2c-0.7-0.8-1.7-5.2-1.7-7.4c0-1.7,1.5-2.6,2.7-1.6c0.9,0.8,1.8,4.4,1.8,7
	c0,1.3-0.2,1.9-0.9,2.2C663.4,629.2,663.4,629.2,662.6,628.2z M681,628c-1.1-1.7-2.5-5.7-2.5-7.1c0-1.3,0.9-2,2-1.6
	c0.8,0.3,4,7.5,3.8,8.6C683.9,629.3,681.8,629.3,681,628z M649.4,626.8c-0.5-0.8,0.1-2.5,2.1-6.1c2-3.5,3.1-4.2,4.4-2.7
	c1,1.2-0.2,5.3-2.1,7.5C652.2,627.2,650.1,627.9,649.4,626.8z M642.5,622.6c-1.1-1.1-0.6-2.5,1.8-4.6c2.7-2.3,4.5-2.6,4.8-0.8
	c0.2,1.4-2.4,4.9-4.1,5.5C643.3,623.3,643.2,623.3,642.5,622.6z M634.2,620.6c-0.2-0.2-0.3-1-0.3-1.8c0-2.6,4.6-5.7,7.2-4.9
	c1.4,0.4,1.1,1.4-1,3.6C637.6,620.3,635.1,621.6,634.2,620.6z M902.2,652.5c5.5-5.3,8.6-7.2,17.8-11c10.5-4.4,16.1-6.9,18.6-8.6
	c4.4-3,9.4-9.1,8.5-10.6c-0.1-0.2-1.3-0.9-2.5-1.6c-1.4-0.7-2.4-1.6-2.7-2.3c-0.2-0.6-0.4-3.1-0.4-5.5c0-2.4-0.2-4.6-0.4-4.9
	c-0.7-1.1-3.5-1.9-7.8-2.2c-4.1-0.3-4.5-0.2-9.8,1.3c-6.6,2-10.5,3.7-13.7,6c-3.1,2.3-7.7,6.7-9.5,9.1c-4.7,6.5-9.4,20-10,29.3
	c-0.3,4.3-0.2,4.4,2.8,4.9C897.3,657.2,897.2,657.2,902.2,652.5z M898,645.8c-0.6-0.2-0.7-1.8-0.3-3c0.4-1.1,3.6-1,4.2,0.2
	C903,645,900.4,646.8,898,645.8z M908.3,637.5c-0.3-0.3-0.5-1.3-0.5-2.3c0-1.7,0-1.7,1.5-1.4c1.5,0.3,3,1.4,3,2.1
	c0,0.7-1.8,2.2-2.6,2.2C909.2,638,908.6,637.8,908.3,637.5z M923,633.2c-0.7-0.7-0.7-0.9,0-2.2c0.7-1.4,0.8-1.4,2.3-1.1
	c0.9,0.2,1.9,0.7,2.2,1.2c0.5,0.7,0.4,0.9-0.6,1.8C925.5,634.2,924,634.3,923,633.2z M902.3,629.4c-0.9-0.5-1-1.8-0.3-3.1
	c0.3-0.6,0.9-0.9,1.9-0.9c2.7,0,3.4,2,1.4,3.6C903.9,630,903.4,630.1,902.3,629.4z M932.3,627.1c-0.8-0.6-0.8-0.7-0.1-2.2
	c0.6-1.3,1-1.6,2-1.6c1.6,0,2.3,0.7,2.3,2.4c0,0.9-0.3,1.4-1.2,1.7C933.8,627.8,933.3,627.8,932.3,627.1z M919.8,624.4
	c-0.5-0.8-0.5-1.3-0.2-2.3c0.4-1.2,0.6-1.2,2.7-1.1c2.1,0.1,2.3,0.2,2.4,1.4C925.1,625.1,921.2,626.7,919.8,624.4z M927.7,617.7
	c-1.1-0.6-1.2-0.7-0.6-2.3c0.4-0.9,0.7-1.2,2-1.2c3.2,0,3.8,1,1.9,2.9C929.7,618.3,929.2,618.4,927.7,617.7z M917.3,616.8
	c-0.8-0.8-0.6-2.5,0.4-3.5c1.3-1.3,2.6-1.1,3.4,0.4c1,1.9,0.9,2.5-0.5,3.1C919.1,617.5,918,617.5,917.3,616.8z M613.5,625.2
	c3.2-2.4,8.5-6.1,11.8-8.4c3.3-2.2,6.1-4.4,6.2-4.9c0.4-1.3-0.1-2.3-1.7-3.3c-0.8-0.5-2.4-2.5-3.7-4.6c-2-3.3-5.8-7.7-6.5-7.7
	c-0.2,0-0.5,0.8-0.7,1.7c-0.7,2.7-2.7,3.7-7,3.7h-3.5l-1.7,2.4c-1,1.3-2.8,4.1-4.1,6.3c-2.3,3.8-2.3,4-1.6,4.9
	c2.3,3.2,2.2,3,1.7,4.7c-0.4,1.4-0.3,2,0.6,4.6c1.5,3.9,2.2,5,3.5,5C607.2,629.5,610.1,627.6,613.5,625.2z M613.6,613.9
	c-0.8-1-1.1-5.7-0.5-6.9c0.7-1.4,2.6-1.3,3.2,0.2c0.6,1.5,0.6,5.4,0,6.5C615.8,614.8,614.4,614.9,613.6,613.9z M622,612.7
	c-1.7-1.7-2.5-4.8-1.6-6c1.1-1.3,2.5-0.8,3.3,1c1,2.4,1.3,4.5,1,5.5C624.3,614.6,623.7,614.4,622,612.7z M605.5,612.7
	c-0.2-2.1,0.8-5.2,2-6.1c0.8-0.7,2.1-0.5,2.6,0.4c0.6,0.9-0.3,4.3-1.5,5.4C607.7,613.4,605.6,613.6,605.5,612.7z M964.3,616.7
	c15.9-0.7,28.9-6.6,33-15c1.4-2.8,1.5-3.4,1.5-7.1c0-4.9-0.2-5.2-4.3-7.1c-3.8-1.8-8.6-2-11.7-0.4c-2,1-7.3,5.5-17.1,14.5
	c-2.6,2.4-6.3,5.3-8.1,6.5c-3.2,2.1-3.5,2.2-7.6,2.5c-3.6,0.3-4.4,0.5-5.1,1.3c-1.6,2-0.6,4.7,1.9,5
	C948.3,617.2,956.5,617,964.3,616.7z M962.7,611.3c-0.8-1,0.5-3.2,2.2-3.6c0.8-0.1,1.7-0.2,2,0c0.8,0.3,0.9,2.9,0.1,3.7
	C966.3,612.2,963.3,612.1,962.7,611.3z M971.3,610.5c-0.7-0.7-0.7-3.5,0.1-3.8c1-0.4,2.9,0.6,3.2,1.7c0.2,0.8,0.1,1.2-0.7,1.8
	C972.7,611.2,972,611.3,971.3,610.5z M984.2,606.4c-1.4-0.7-1.6-1.8-0.7-3.3c0.6-1,1-1.1,2.6-1c1.7,0.1,1.9,0.2,2,1.5
	c0.1,1.1-0.1,1.6-1.1,2.4C985.7,607.2,985.7,607.2,984.2,606.4z M974.4,601.4c-0.4-0.4-0.4-1-0.1-1.8c0.8-2,4.1-1.4,4.1,0.7
	C978.4,601.8,975.4,602.7,974.4,601.4z M991.6,596.8c-1.4-0.3-1.7-0.8-1.4-2.3c0.4-1.9,1.6-2.5,3.4-1.6
	C996.3,594.2,994.7,597.4,991.6,596.8z M981.3,595.2c-1.1-0.8-0.8-2.6,0.7-3.4c1.1-0.6,1.3-0.6,2.4,0.4c1.4,1.3,1.5,2.5,0.3,3.2
	C983.5,595.9,982.3,595.9,981.3,595.2z M598.8,607.8c0.5-0.6,2.4-3.1,4.2-5.7c1.8-2.6,3.7-5.1,4.3-5.6c1.1-1,2.3-3,2.3-4
	c0-1.3-1.4-2.1-3.5-2.1c-2,0-15.3,4.1-16.6,5.1c-1.2,0.9,2.1,6.1,4.8,7.5c1.4,0.8,2.3,1.8,2.3,2.8c0,0.9,0.8,3.1,1.1,3.1
	C597.8,608.8,598.3,608.3,598.8,607.8z M615.1,594.4c1.4-6.7,1.5-8.5,0.3-10.3c-1.7-2.5-3.6-3.2-7.3-3c-5.1,0.4-9.1,1.8-11.4,4.2
	c-1.8,1.9-2.4,3.3-1.5,3.3c0.2,0,2.4-0.5,4.8-1.1c5.5-1.4,9.5-1.5,11.1-0.2c2,1.6,2.7,5.7,1.4,8.7c-0.8,1.9-0.5,2.6,0.8,2.4
	C614.2,598.3,614.4,597.6,615.1,594.4z M969.3,593.1c0.3-0.6,0.2-1.5-0.4-3.4c-1.4-4.1-2-4.4-5.3-3.1c-1.8,0.7-4,3.4-3.5,4.2
	c0.2,0.3,1.3,0.8,2.6,1.2c1.3,0.4,2.8,1,3.5,1.3C967.8,594.2,968.8,594.1,969.3,593.1z M563.9,589.3c0.2-0.3,0.3-1.6,0.3-2.9
	c0-2.1-0.1-2.4-1.1-2.8c-1.9-0.7-7,1-7,2.4c0,0.8,3.2,3.7,4.5,4.2C561.8,590.7,563.2,590.3,563.9,589.3z M590.5,590.4
	c1.7-0.4,2-1.2,0.6-1.6c-1.5-0.4-1.7-1.2-0.8-3.2c0.8-1.7,0.7-1.8-0.1-3.8c-0.5-1.1-1-2.1-1-2.2c-0.1-0.1-1,0.4-2,1.1
	c-2,1.3-1.8,2,0.4,2c0.9,0,1,0.1,0.7,1.2c-0.2,0.7-0.5,1.9-0.6,2.8c-0.3,1.5-0.4,1.6-1.9,1.5c-1.5,0-1.6,0-1.2,0.8
	C585.3,590.7,587.2,591.1,590.5,590.4z M1001.4,581.1c1.9-1,2.4-2.3,1.4-3.4c-0.9-1-5.1-3.2-7-3.7c-1.9-0.5-2.7,0.7-2.4,3.3
	c0.4,3,0.5,3.1,2.1,4.1C997.2,582.4,999.1,582.3,1001.4,581.1z M763.1,613.8c-17.3-8.6-31-18.6-45-32.8c-7-7.1-13.2-14.7-18.9-23.2
	c-2.9-4.3-9.9-16.3-12.5-21.6c-3.8-7.7-8.8-23.1-11.1-34.7c-2.8-14.2-3-19.6-2.6-90.3c0.3-54.3,0.4-62,1-62.4
	c0.5-0.3,32.7-0.4,104.3-0.2c91.3,0.2,103.7,0.4,104.3,1c0.6,0.6,0.7,7,0.5,53.4c-0.2,71.4-0.7,85.4-3.7,98
	c-2.4,10.1-4.5,15.4-12.3,30.5c-5.4,10.5-9.5,17.1-17.8,28.3c-4.5,6.1-20.3,22.1-28.6,29.1c-11.5,9.5-14.9,12.1-23,17.2
	c-8.7,5.5-20.9,12-23.3,12.4C773.3,618.7,771.2,617.8,763.1,613.8z M781.7,611.6c8.4-4.3,14.3-8,23.1-14.2
	c10.3-7.3,16.3-12.5,26-22.3c21-21.2,32.1-37.6,40.7-59.6c5-12.9,7-19.9,7.9-27.9c0.8-7.4,1.4-48.6,1.2-92.3
	c-0.1-38.2-0.2-43.3-0.8-44c-0.6-0.6-11.6-0.7-101.7-1l-101-0.3l-0.5,1c-0.4,0.7-0.5,18.7-0.4,70.1l0.1,69.1l1,5.4
	c1.8,9.9,3.6,16.4,7.8,28.3c6.7,19.4,20.3,40.7,36.3,56.7c6.3,6.3,10.8,10.1,18.3,15.5c14.1,10.1,23,15.4,29.5,17.4
	c1.6,0.5,3.2,1,3.6,1.1C774.4,615.3,775.3,615,781.7,611.6z M771.1,610.6c-2.6-0.7-5.1-1.6-5.8-2c-1.4-0.9-2.9-3.3-2.9-4.6
	c0-1.3,1.4-4.1,2.6-5.2c0.9-0.8,0.9-0.8-0.4-4.5c-1.4-4.1-1.3-5.5,0.3-6c2.4-0.6,3.7,1,5.1,6.4c0.7,2.6,1.6,3.7,2.6,3.1
	c1.1-0.7,1.2-2.1,0.4-4.4c-1.1-3.1-0.6-3.4,3.9-1.9c2.1,0.7,4,1.4,4.1,1.7c0.2,0.2,0,1.3-0.4,2.3s-1.1,4.3-1.6,7.2
	c-0.8,4.7-0.9,5.4-0.3,6.8C780.1,612.3,778.4,612.6,771.1,610.6z M772.1,605.8c1.2-3.1-1.3-5.8-3.1-3.2c-0.9,1.3-0.9,1.3,0.2,2.8
	C770.3,606.7,771.7,606.9,772.1,605.8z M794.9,593.7c-5.1-2.8-7.4-3.8-8.6-3.8c-3.3,0-2.8-1.1,2.5-5c4.3-3.2,5.1-3.3,5.5-0.8
	c0.5,3,1,3,4.9,0.4c1.9-1.3,3.9-2.9,4.4-3.6c0.8-1.1,0.8-1.3,0.1-2.6c-0.9-1.8-0.7-2.6,1.6-4.5c2.6-2.2,3.9-1.3,2.7,1.9
	c-0.6,1.5-1.7,7.9-2.5,14.5c-0.7,5.4-1.5,7.4-2.8,7.4C802.2,597.5,798.7,595.8,794.9,593.7z M802.5,589.7c0.2-0.6,0.6-1.6,0.7-2.2
	c0.3-1,0.2-1.1-1.3-1.1c-3.3,0-3.5,4.2-0.2,4.5C802,590.8,802.3,590.3,802.5,589.7z M741.3,596.3c-1.1-0.2-1-2.2,0.6-9.6
	c0.7-3.5,1.3-7.5,1.3-9c0-1.4,0.2-2.7,0.5-2.9c0.7-0.4,4.1,1.4,5.6,2.9c1.3,1.3,1.3,1.3,0.5,2.9c-1,2.1-0.6,3.2,1.9,4.8
	c2.7,1.7,3.9,1.7,4.8,0c0.8-1.6,1.5-1.6,4.2-0.5c3.1,1.4,2.5,2.6-2,3.8c-4.3,1.1-9.9,3.6-12.1,5.4
	C744.5,595.9,742.6,596.6,741.3,596.3z M750.8,588.8c0.3-0.2,0.2-0.7-0.5-1.4c-1.1-1.2-2.2-1.4-3-0.5c-0.7,0.7-0.7,2.5,0,2.7
	C747.9,589.8,750,589.3,750.8,588.8z M768.5,587.5c-8.5-3.8-17.5-10.3-27.9-20c-9.7-9.1-12.3-12-17-18.7
	c-4.8-6.8-6.8-10.4-11.1-18.9c-6.3-12.6-9.3-20.7-11.4-31.3l-1.2-6.1l0.3-52.8c0.3-59.5,0.4-64,1.7-65.3c0.8-0.8,3.2-0.8,74.2-0.8
	c40.4,0,74.8,0.2,76.6,0.3c5.2,0.5,4.9-2.4,4.3,36.4c-0.8,52.8-1.4,78.3-1.8,83.1c-0.8,8.2-2.4,13.5-6.8,22.3
	c-3.5,7.1-10.3,18-14.9,24c-6.7,8.8-19.2,22.1-27.8,29.8c-5.7,5.1-13.9,10.9-19.7,13.9c-6,3.1-11.6,5.5-13,5.4
	C772.3,588.9,770.3,588.3,768.5,587.5z M779.8,583.4c5.9-2.9,12-6.5,16.2-9.7c1.2-0.9,3.9-2.9,5.8-4.3c4.2-3.1,16-14.5,20.4-19.8
	c7.1-8.4,16.8-22,20.8-29.2c9.8-17.6,9.8-17.7,10.7-80.1c0.6-46.6,0.6-62-0.1-62.7c-0.7-0.6-131.5-1.3-133.6-0.8l-1.3,0.3l1.1,1.1
	c1.6,1.7,3.6,2.7,6,3c1.5,0.2,2.7,0.7,3.7,1.6c0.8,0.7,2.3,1.8,3.3,2.3c2.7,1.4,3.1,2.4,2.6,5.8c-0.2,1.6-0.3,3.7-0.2,4.8
	c0.7,4.8,6.6,8.8,10.3,6.9c0.5-0.3,2-1.5,3.3-2.8c2.2-2.2,2.5-2.3,4.7-2.3l2.4,0l-0.1,3.4c-0.1,1.9-0.4,4.6-0.8,6
	c-0.9,3.4-0.5,3.8,3.6,4.2c1.7,0.2,3.2,0.5,3.4,0.8c0.2,0.3,0.6,1.8,0.9,3.4c1.1,5.7,2.1,6.6,7,6.1c3.2-0.3,3.2-0.3,5.1,1.3
	c1,0.9,2,1.6,2.2,1.6c0.2,0,2-0.7,4.1-1.6c2.1-0.9,4.1-1.6,4.5-1.6c0.4,0,1.7,0.5,2.8,1.1c2.6,1.4,11.4,3.4,14.8,3.4
	c2.5,0,2.7,0.1,5.2,2.4c1.4,1.3,3.6,3.1,4.8,3.9c1.2,0.8,3.7,2.5,5.4,3.6c3.4,2.3,4,3.1,4.5,6.5c0.6,4,1.8,5,6.6,5.6
	c2.4,0.3,3.7,0.7,5.6,1.9c3.9,2.4,13,9.9,13.6,11.1c0.3,0.6,0.6,2.6,0.8,4.5c0.3,3.7,0.3,3.5-4.2,13c-1.5,3-1.6,3.5-1.3,6.3
	c0.4,5.1-0.9,10.4-3.1,12.3c-0.5,0.4-3,1.5-5.7,2.5c-6,2.2-7.3,3.2-11.4,9.3c-3.1,4.5-5,6.3-9.2,8.9c-0.9,0.6-2.6,2.2-3.7,3.6
	c-1.1,1.4-3.6,4-5.7,5.9l-3.7,3.3l-2.7-0.1c-1.5-0.1-2.6,0.1-2.5,0.3c0.1,0.2,0.5,0.9,0.8,1.6c0.6,1.2,0.6,1.3-2.4,4.3
	c-3.5,3.5-3.6,3.6-4.3,6.7c-0.4,1.6-1.2,3.2-2.8,5.1c-1.2,1.6-2.6,3.6-3.1,4.7c-0.9,2-2,10.9-1.6,12.6c0.4,1.6-1,5.2-2.2,5.8
	c-2.4,1.1-7.9-2.7-9.8-6.8c-0.8-1.7-1-3.4-1.2-10.8c-0.3-8.4-0.3-8.9,0.7-12.1c1.4-4.6,2-8.5,2-13c0-3.4,0.2-4.6,2.1-10.3
	c1.7-5.3,2.2-7.7,2.7-12.6c0.6-5.6,1.4-9.6,3.1-14.2c1.1-3,0.9-3.7-1.2-5c-2.4-1.5-5.2-4.1-6-5.6c-0.3-0.6-1-2.8-1.5-4.8
	c-1.3-5.2-3.8-11.4-5.7-14.3l-1.6-2.5l0.5-4.1c0.7-5.6,1.6-8.7,3.4-10.8c2.3-2.9,5.6-10.1,5.6-12.4c0-0.4-0.9-1.8-2-3.1
	c-2-2.2-2.2-2.3-5.5-2.9c-3-0.5-3.7-0.8-5.5-2.4c-3.1-2.8-6.8-5-9.8-5.8c-4.7-1.3-5.9-2-7.1-3.8c-0.6-0.9-1.9-2.1-2.8-2.5
	c-1.5-0.7-2-0.7-4.7-0.2c-3.5,0.7-4.6,0.5-9.3-1.4c-4.2-1.7-4.7-2.1-8.2-7.4c-2.4-3.7-3-5-4.9-11.3c-2.1-7-3.2-9.7-4.1-10.3
	c-1.1-0.7-0.8,1.4,1,6.6c2.6,7.3,3.3,10.5,2.6,11.4c-0.8,1-1.6,0.5-3.9-2.7c-1.6-2.3-2-3.2-2-4.7c0-2.1-0.7-3.9-2.5-6.8
	c-2.5-4-2.5-5.6-2.5,53.3c0,58.1-0.1,56.4,2.5,66.5c2.6,10.1,10.4,28,16,36.8c5.9,9.1,11.7,16.2,19.5,23.8
	c5.9,5.7,9.5,8.5,17.5,13.8c5.4,3.5,13.4,7.8,14.6,7.8C773.6,586.3,776.6,585,779.8,583.4z M826.9,445.7c-0.8-0.3-1.5-2.2-1.1-3.1
	c0.4-0.9,1.7-0.9,2.6,0.1c0.9,1,1,1.9,0.2,2.7C828,446,827.8,446.1,826.9,445.7z M816.8,416.4c-1-1.1-0.9-1.7,0.1-2.3
	c1.4-0.8,2.7-0.5,4,0.7c1.1,1.1,1.2,1.2,0.3,1.8C820,417.5,817.7,417.4,816.8,416.4z M784.1,415.8c-1.4-0.7-1.6-1.5-0.5-2.1
	c1-0.6,3.1-0.2,4.3,0.7c0.9,0.7,0.9,0.7,0,1.3C786.9,416.5,785.6,416.5,784.1,415.8z M801,416c-2.4-0.3-2.8-0.8-1.4-1.8
	c0.9-0.6,1.1-1,1-1.8c-0.2-0.9,0.1-1.1,2.4-1.8c4.4-1.3,8.2-0.2,9.2,2.6c0.7,2-0.3,2.6-5.2,2.7C804.7,416.2,802,416.1,801,416z
	 M785.7,411.6c-0.5-0.1-1.4-0.3-1.9-0.4c-1.3-0.3-1.3-1.5-0.1-1.9c0.5-0.1,0.8-0.5,0.8-0.7c-0.2-0.7-5.5-2.8-12.5-4.8
	c-3.3-1-6.4-2.1-6.7-2.5c-1.8-1.8,1.8-3.3,7.9-3.3c4.4,0,6.3,0.7,10.5,4.2c1.6,1.3,4.3,3.1,5.9,4c1.6,0.9,3.4,2.2,4,2.8
	c1,1.1,1,1.2,0.3,1.9c-0.6,0.6-1.6,0.8-4,0.9C788,411.7,786.2,411.7,785.7,411.6z M826.1,574.9c-0.5-0.5-1.9-2.4-3.1-4
	c-1.2-1.7-2.6-3.1-3-3.3c-1-0.3-2.9,1-5.2,3.6c-1,1.1-1.9,2-2.1,2c-0.5,0-2-1.9-2-2.5c0-0.6,8-8.6,10.3-10.3
	c0.9-0.6,1.8-1.1,2.1-1.1c0.3,0,1.1,1.1,1.7,2.4c0.8,1.6,2.4,3.5,4.6,5.6l3.4,3.2l-1,1.4c-0.9,1.2-2.8,2.9-4.3,3.8
	C827.2,575.8,826.6,575.5,826.1,574.9z M716.8,572.9c-2.7-2.4-8.7-9.6-8.7-10.5c0-1.4,0.8-2.6,2.3-3.4c1.3-0.7,1.5-0.7,2,0.1
	c0.3,0.4,0.6,1.7,0.6,2.7c0,1.9,0.8,3.3,2,3.3c0.8,0,3.4-2.2,3.4-2.8c0-0.3-0.6-1.1-1.2-1.8c-1.3-1.4-1.2-2.2,0.7-3.4
	c0.9-0.6,1-0.5,1.9,1c1.1,1.8,1.5,2,3,0.9c1.6-1.1,1.2-2.9-1.2-4.1c-1-0.6-1.9-1.3-1.9-1.6c0-0.7,1.9-2.5,2.6-2.5
	c0.3,0,1.3,1,2.2,2.1c0.9,1.2,2.8,3.4,4.2,5.1c4.8,5.5,5,6.3,2,6.3c-1.5,0-2.5,0.4-4.5,1.7c-3.8,2.6-6.2,5-6.7,6.7
	C719.2,574.5,718.6,574.6,716.8,572.9z M835.5,563.4c-0.8-0.5-1.5-1.1-1.7-1.3c-0.2-0.3-1.7-0.9-3.4-1.4c-2-0.6-3.4-1.3-3.8-1.9
	c-1.1-1.5-0.8-4.3,0.5-6.9c1.7-3.3,7.2-10,8.1-10c0.8,0,3.4,1.7,9.1,5.9c1.6,1.1,3.4,2.2,4,2.2c0.7,0.1,1.1,0.4,1.1,0.9
	c0,0.8-8.3,11.2-10.1,12.6C838.1,564.5,837.3,564.5,835.5,563.4z M841.2,557.7c1.8-1.5,2.2-2.7,1.2-3.8c-1.1-1.2-2.6-1.1-3.6,0.4
	c-1.5,2.1-1.7,3.1-0.5,3.9C839.5,559.1,839.6,559.1,841.2,557.7z M836.6,551.8l0.8-1.5l-1.3-1.1c-1.7-1.4-2.3-1.4-3.7,0.4
	c-1.4,1.9-1.5,3.6-0.2,4.5c0.9,0.6,1.1,0.6,2.2-0.1C835.2,553.7,836.1,552.6,836.6,551.8z M705.3,558.5c-0.6-0.5-2-2.1-3-3.7
	c-2.5-3.8-2.5-5.2,0-4.4c1.2,0.3,1.7,0.1,4.8-2.1c3.8-2.7,6-4.6,6-5.2c0-1-2.1-3.2-4.1-4.2c-2.5-1.3-2.7-2-0.7-3.5l1.2-0.9l1.6,1.6
	c0.9,0.9,3.1,3.5,4.9,5.9c4.4,5.8,4.8,7.5,1.9,7.5c-0.8,0-2.3,0.7-3.9,1.8c-4.3,2.9-6,4.6-6.3,6.3
	C707.3,559.4,706.8,559.6,705.3,558.5z M838.2,539.3l-1-0.7l1.2-1.9c1.9-3,5.5-7.7,6.3-8.1c0.5-0.3,0.9-0.1,1.5,0.6
	c1.1,1.3,1.6,1.2,2.5-0.4c0.8-1.6,0.6-1.9-1.1-2c-1.7,0-1.8-1.9-0.3-4.8c1.6-2.9,3-4.5,4.1-4.5c0.7,0,0.9,0.4,1.1,2.6
	c0.2,2.2,0.7,3.5,3.7,8.7c3.6,6.2,4,7.8,2.7,8.5c-0.4,0.2-4.3,0.6-8.6,0.9c-4.6,0.3-8.5,0.8-9.4,1.2
	C839,540.1,839.4,540.1,838.2,539.3z M853.4,531.9c0-0.8-1.1-2.3-1.7-2.3c-0.2,0-0.6,0.4-0.9,1c-0.5,0.9-0.5,1.1,0.2,1.6
	C852.1,533.1,853.4,533,853.4,531.9z M686.9,523.7c-0.4-0.6-1.4-2.9-2.3-5.2c-2.7-6.8-3.2-10.2-1.7-11.5c1-0.9,1.9-0.9,3-0.1
	c0.7,0.5,0.8,0.8,0.2,2.2c-0.5,1.4-0.5,1.9,0.2,3.7c0.8,2,1.1,2.3,2.5,2.1c1.6-0.2,1.8-0.9,0.9-2.7c-0.5-1-0.9-1.9-0.9-2
	c0-0.5,3-1.5,4-1.3c1.1,0.3,1.2,1.1,0.5,2.4c-0.6,1.2-0.1,2.3,1.2,2.3c3.7,0,3.9-3.2,0.5-7.1c-1.1-1.2-1.2-1.6-0.8-2.4
	c0.4-0.7,0.9-0.9,2.6-0.8c2.1,0.1,2.1,0.1,2.9,2.4c3.4,10.3,4.5,13.8,4.2,14.2c-0.4,0.7-1.2,0.6-3.5-0.4c-2-0.9-2.1-0.9-5.9,0
	c-2.2,0.5-4.2,1.1-4.5,1.3c-0.3,0.3-0.7,1.2-0.7,2.1C689,524.8,687.9,525.2,686.9,523.7z M865.1,519.8c-0.8-1.4-7.1-3.8-10.1-3.8
	l-2.6,0l0.3-1.8c0.4-2.2,2.1-6.2,3.2-7.3c0.8-0.8,0.9-0.7,2.3,0.6c1.2,1.2,1.6,1.3,2.4,0.9c1.1-0.6,1.6-2.5,1-3.7
	c-0.4-0.7-0.8-0.8-2.2-0.6c-1,0.2-1.8,0.1-2-0.2c-0.5-0.8,1.6-8.2,2.3-8.5c0.4-0.1,1,0.1,1.4,0.7c1,1.2,2.2,1.8,6.3,3.1
	c3,0.9,3.5,1,4.8,0.4c2-0.8,2.7-0.3,2.3,1.9c-0.4,2.5-2.1,6.9-2.8,7.1c-0.3,0.1-1.3-0.4-2.3-1.2c-0.9-0.8-1.9-1.4-2.2-1.4
	c-0.8,0-1.9,1.8-1.9,3.2c0,1,0.3,1.3,1.7,1.7c0.9,0.3,1.9,0.5,2.2,0.5c1.2,0,1.6,1.8,0.8,4C868.1,520.2,866.2,521.9,865.1,519.8z
	 M692.1,497c-0.2-0.4,0.2-1.2,0.9-1.9c1.5-1.6,2.1-3.3,1.7-4.8c-0.8-3-3.1-2.4-5.5,1.4c-0.8,1.3-2,2.9-2.6,3.3
	c-1.4,1.1-3.8,1.1-5.5,0.1c-2.2-1.3-2.7-3-2.6-8.8l0.1-5.1l1.8-0.1c2.4-0.2,4.7,0.3,4.7,1c0,0.3-0.4,1-0.9,1.4
	c-1.2,1.1-2.2,3-2.2,4.2c0,1.7,1.4,0.8,3.6-2.3c1.8-2.6,2.4-3,4.5-3.7c3.2-1.1,5-0.7,6.5,1.2c1.8,2.3,2.1,4.3,1.6,8.1
	c-0.3,2.2-0.3,3.7-0.1,4.4c0.6,1.6-0.1,2.2-3.2,2.2C693,497.7,692.3,497.5,692.1,497z M859,483c-0.4-0.4-0.4-11.5,0-12.5
	c0.3-0.9,1-0.9,2,0c1,0.9,2.4,0.5,3.1-1c0.8-1.7,0.2-7.1-0.9-8c-0.6-0.6-1-0.6-1.8-0.2c-1.9,1-2.3,0.3-2.3-3.8
	c0-2.7,0.2-3.9,0.6-4.3c0.7-0.6,1.2,0.1,1.8,2.3c0.2,0.8,1.3,2,3.3,3.4c4.7,3.5,8.8,5.9,9.8,5.9c1.2,0,2.7,1.3,3.1,2.5
	c0.4,1.5-1.6,3.5-6.6,6.3c-7.8,4.3-9.3,5.4-10.3,7.6C860.1,483.3,859.7,483.7,859,483z M869.7,467c0.4-0.7,0.3-0.9-0.4-1.5
	c-1.4-1-2.1-0.8-2.1,0.6c0,0.7,0.1,1.4,0.3,1.6C868.1,468.3,869.2,467.9,869.7,467z M695.5,478.6c-1-1.1-1.2-1.1-7-1.1
	c-4.2,0-6.4,0.2-7.5,0.7c-0.9,0.4-1.7,0.5-1.8,0.3c-0.2-0.4-0.4-6.2-0.3-11.9c0.1-4.7,0.4-5,5.3-5.5c4-0.4,4.4,0,4.9,4.1
	c0.4,4,1.1,5.1,3.3,5.1c1,0,2.5-0.3,3.3-0.7c2.1-0.9,2.2-0.6,2.5,4c0.2,3.4-0.3,6.1-1.2,6.1C696.7,479.7,696.1,479.2,695.5,478.6z
	 M686,469.8c1.3-1.3,0.2-3.7-2-4.2c-2-0.5-3.7,2.6-2.2,4C682.7,470.4,685.2,470.5,686,469.8z M678.6,457.5c-0.3-1.8-0.1-7.2,0.4-7.7
	c0.2-0.2,1-0.1,1.8,0.2c1.8,0.6,13.5,0.9,15.5,0.4c2-0.5,2.4,0.4,2,4.9l-0.3,3.6l-1.3-0.2c-2.8-0.3-13.1-0.3-15.4,0.1l-2.3,0.3
	L678.6,457.5z M876.1,452.2c-0.5-0.3-3.5-3-6.6-6.1c-3.1-3.1-6-5.5-6.3-5.4c-0.4,0.1-0.5,1.4-0.5,4.5l0.1,4.3h-1.3
	c-0.8,0-1.5-0.3-1.7-0.8c-0.2-0.4-0.5-5.1-0.6-10.4c-0.1-8.1-0.1-9.6,0.5-10c0.4-0.2,0.8-0.4,0.9-0.4s2.9,2.5,6.3,5.6
	c6.7,6.2,7.5,6.9,7.9,5.9c0.4-1.1-0.1-6.2-0.8-7.8c-0.6-1.3-0.5-1.5,0-1.9c1-0.6,2.4-0.5,3.3,0.2c0.7,0.5,0.8,1.5,0.9,11
	c0,8.7-0.1,10.5-0.6,11.1C877.1,452.5,876.8,452.6,876.1,452.2z M678.8,445.5c-0.7-2.7-0.4-16.8,0.5-18.5c1.7-3.4,6.8-3.4,9.3,0.1
	c0.6,0.8,1.3,1.4,1.6,1.4c0.3,0,1.7-0.6,3.1-1.4c1.6-0.8,3-1.3,3.8-1.2c1.2,0.1,1.3,0.3,1.4,2.5c0.1,1.3-0.1,2.7-0.3,3.2
	c-0.2,0.5-1.9,1.6-3.7,2.6c-3.7,2-4.9,3.4-4,4.5c0.8,0.9,4.6,0.9,5.4,0c1-1.2,2.1-0.8,2.4,0.7c0.5,2.5,0.3,6.5-0.4,7.4
	c-0.6,0.8-0.7,0.8-2,0.1c-1.8-1.1-13.7-1.1-15.1-0.1C679.6,447.7,679.4,447.5,678.8,445.5z M687,438.6c0.8-0.9,0.3-4.5-0.7-5.6
	c-1-1.1-2.7-1.1-3.8,0c-1.2,1.2-1.3,5.1-0.1,5.8C683.5,439.5,686.3,439.4,687,438.6z M859.3,420.1c0.1-3.6,0.4-6.3,0.7-6.6
	c0.4-0.4,0.9-0.3,1.9,0.3c2.2,1.3,2.7,0.5,2.7-4.2c0-3-0.2-4.1-0.7-4.7c-0.6-0.6-0.8-0.6-1.7,0c-1.5,1-2.1,0.1-2.1-2.9
	c0-2.9,0.4-4.6,1-4.6c0.2,0,0.8,0.7,1.4,1.6c1.2,2,9.3,7.7,11.6,8.1c2.2,0.4,4.1,1.8,4.1,3.1c0,1.3-2.3,3.5-8.4,8
	c-2.4,1.8-5.7,4.3-7.2,5.7c-1.5,1.3-2.9,2.4-3.1,2.4C859.2,426.2,859.2,423.5,859.3,420.1z M870.3,411.3c0.7-0.7-0.5-2.2-1.8-2.2
	c-0.6,0-0.8,0.3-0.8,1.4c0,1.1,0.2,1.3,1,1.3C869.3,411.8,870.1,411.6,870.3,411.3z M679,422.5c-0.3-0.3-0.5-2-0.5-4.4
	c0-4.8,0.5-5.5,2.9-4.1c1.4,0.8,2.2,0.9,7.8,0.9c5.8,0,6.4-0.1,7.1-0.9c0.5-0.5,1.2-0.9,1.8-0.8c0.8,0.1,0.9,0.5,1.1,4
	c0.2,4.9-0.4,5.9-2.7,5c-0.8-0.3-4.2-0.7-7.4-0.9c-5.5-0.2-6-0.2-7.6,0.7C679.4,423.2,679.6,423.2,679,422.5z M678.7,409.6
	c-0.7-0.8-0.7-1.6-0.3-9.8c0.3-4.9,0.7-9.1,0.9-9.3c0.4-0.4,3.6-0.5,4-0.1c0.1,0.1,0,0.9-0.3,1.7c-1,2.5-1.1,3.8-0.2,4.1
	c0.4,0.2,2.9,0.4,5.5,0.6c5.3,0.3,7-0.1,7.8-1.9c0.4-0.8,0.8-1.1,1.5-1c0.9,0.1,0.9,0.5,1.1,5.3c0.2,7.7-0.2,8.4-2.9,5.8
	c-1.4-1.4-1.6-1.4-6.2-1.6c-6.1-0.3-7.2,0-6.9,1.6c0.1,0.7,0.5,1.9,0.8,2.6c0.5,1.2,0.5,1.6,0,2.1
	C682.6,410.8,679.7,410.7,678.7,409.6z M860.4,391.7c-0.2-0.2-0.3-1.1-0.3-2.1c0-2,1.8-5.6,3.5-7.2c1.4-1.3,1.2-1.7-1.2-1.5
	l-2.1,0.1l-0.1-2.5c-0.1-1.4,0-3.7,0.2-5.2c0.4-3.1,1.3-3.7,2.4-1.6c0.6,1.1,1.2,1.4,2.8,1.6c2.9,0.4,8.5,0.1,8.7-0.6
	c0.1-0.3,0.5-1,1-1.5c0.7-0.9,0.9-0.9,1.5-0.4c0.6,0.5,0.7,1.7,0.7,7.9c0,8.1-0.4,10.2-2.1,11.5c-2.1,1.6-4.5,1.1-7.2-1.4
	c-1.8-1.7-2.7-1.4-4.9,1.3C861.9,392,861.1,392.4,860.4,391.7z M873.8,384.7c0.4-0.6,0.7-1.7,0.6-2.3c-0.1-1-0.5-1.3-1.6-1.6
	c-1.7-0.4-3.3,0.2-3.3,1.3c0,0.4,0.3,1.4,0.6,2.2C871,386.1,872.7,386.3,873.8,384.7z M678.8,387c-0.7-1.3-0.4-7.1,0.4-7.6
	c0.3-0.2,1.2-0.2,1.9,0.1c1,0.4,1.7,0.2,4.1-1c1.6-0.8,3.4-1.8,4-2.3l1.1-0.9l-2.2-2c-1.2-1.1-3-2.4-4-2.9c-1.6-0.8-1.9-0.8-2.9-0.2
	c-0.6,0.4-1.3,0.6-1.6,0.5c-1.3-0.5-1.2-7.9,0.1-8.3c0.3-0.1,0.9,0.5,1.3,1.6c0.7,1.9,3.7,4.3,11,9c6.8,4.3,6.6,5.2-1.4,9.3
	c-3.2,1.7-6.7,3.6-7.8,4.3C680.5,388.2,679.5,388.3,678.8,387z M730.6,370c-2.7-1.8-4-3.9-4.3-6.9c-0.4-3.6,0.5-6.2,2.6-8.2
	c2.2-2,3.4-2.5,6.7-2.5c5.8,0,9.4,3.4,9.4,8.9c0,3.3-0.9,5.4-3.2,7.6c-1.9,1.8-3.4,2.4-6.6,2.4C733,371.4,732.2,371.1,730.6,370z
	 M737.4,367.3c0.9-0.9,0.9-1.3,0.7-5.1c-0.1-2.3-0.5-4.6-0.7-5.1c-0.7-1.3-3-1.4-3.6-0.1c-0.6,1.1-0.6,8.6,0,10.1
	C734.3,368.5,736,368.6,737.4,367.3z M705,370.5c-1.2-0.3-1.2-0.5-0.9-4.8c0.1-1,0.1-3.4,0.1-5.3c0-3.4-0.1-3.6-1.5-4.9
	c-1.3-1.2-1.4-1.4-0.7-2.1c0.6-0.6,1.9-0.8,7.3-0.9c9.3-0.2,12.4,0.8,13.1,4.2c0.6,3.1-1.7,5.2-6.3,5.8c-3.5,0.5-3.9,0.9-3.7,3.1
	c0.1,1,0.4,2.4,0.5,3.1c0.3,1.1,0.1,1.3-0.9,1.7C710.6,371,706.7,371,705,370.5z M716,357.6c0-0.9-2-1.8-3.1-1.4
	c-1.1,0.4-0.9,2.5,0.3,3C714.4,359.7,716,358.8,716,357.6z M750.5,370.2c-0.2-0.4,0.1-1.1,0.5-1.6c0.6-0.7,0.8-1.8,0.8-6.4
	c0-5.1-0.1-5.6-0.9-6.3c-1.2-1-1.2-2-0.1-2.6c0.5-0.3,3.9-0.5,7.8-0.5c6.3,0,7.1,0.1,8.9,1c3.5,1.8,3.5,5.4,0,7.9l-1.8,1.2l3,3
	c3.2,3.3,3.4,4.2,0.9,4.7c-2.3,0.4-4.9-0.5-7.7-2.7c-1.4-1.1-2.6-2-2.8-2c-0.2,0-0.2,1.1-0.1,2.4l0.1,2.4l-4.2,0.1
	C751.5,370.9,750.8,370.8,750.5,370.2z M763.4,358.4c0.4-0.7,0.3-1-0.3-1.6c-1-1-4.4-0.8-4.6,0.3C758.2,359,762.4,360.1,763.4,358.4
	z M798,370.4c-0.6-0.4-0.4-0.7,0.8-1.7c1.8-1.6,7.8-10.8,7.7-12c0-0.5-0.3-1.3-0.7-1.8c-1-1.3-0.8-1.5,1.7-1.8
	c4-0.5,5.7,0.1,7.9,2.9c1.1,1.4,2.9,3.5,4,4.8c1.9,2.3,2.1,2.4,2.9,1.6c1.6-1.5,4-5.5,4-6.8c0-1.8,0.8-2.4,3-2.4
	c2.1,0,2.8,0.8,2.8,2.9c0,1.4,4.6,8.4,7.3,11.3c2.6,2.7,2.1,3-4.7,3c-5.9,0-6.6-0.3-5.7-2.3c0.4-0.9,0.3-1.4-0.7-2.9
	c-0.7-1-1.6-1.8-2-1.8c-0.5,0-2.1,1.4-3.6,3.1c-3.6,4.1-4.1,4.1-7.6,0c-1.5-1.7-3.3-3.9-4-4.9c-0.7-1-1.6-1.8-2-1.7
	c-0.8,0.1-4.9,6.1-4.9,7.1c0,0.4,0.3,1,0.7,1.3c0.9,0.7,0.9,1.6,0,2C803.8,371.1,798.8,370.9,798,370.4z M847.2,370.2
	c-0.2-0.4,0-1.1,0.3-1.6c1-1.6,1.2-8.9,0.3-11.6c-0.4-1.3-0.7-2.6-0.5-2.9c0.3-0.8,3.8-1.3,6.8-0.9c2.7,0.3,3,0.9,1.8,3.2
	c-1,1.9-0.9,10.6,0.1,12.2c0.7,1.1,0.7,1.2-0.1,1.8c-0.6,0.4-2.1,0.6-4.6,0.6C848.2,370.9,847.4,370.8,847.2,370.2z M842.9,588.6
	c-2-0.2-3.3-2.3-3.7-5.7c-0.5-4.5,0.1-7.9,1.6-9.4c2-2,2.5-1.7,3.5,2.5c1.6,6.2,1.5,6,3.2,5.9c0.8,0,2.3-0.4,3.3-0.9l1.8-0.9l0-3.4
	c0-1.8-0.2-5.2-0.4-7.5c-0.4-3.9-0.3-4.1,0.5-4.4c1.6-0.5,4.2-0.4,4.7,0.1c0.6,0.6,2.1,12.3,2.1,16.8c0,2.7-0.1,3.1-1.1,3.8
	C856.2,587.2,846.4,589.1,842.9,588.6z M870.7,585.9c-2.8-1.7-3.7-3.8-5.1-11c-1.3-6.8-1.3-7.7,0.5-8.3c1.9-0.7,2.1-0.4,4,4.8
	c1,3,1.9,4.5,2.8,5.3c1.6,1.4,1.8,1.4,3.4,0c1.5-1.3,2.4-3.7,2.4-6.8c0-3.5,0.3-4.2,1.9-4.2c1.7,0,2,0.7,3,8c1,6.9,0.7,8.4-1.9,10.8
	C879,586.7,873.2,587.5,870.7,585.9z M892.2,585.4c-2.9-0.8-4.8-4.2-6.5-11.4c-1.1-4.6-1.1-6.6-0.1-7.6c0.9-0.8,2.6-1,3-0.3
	c0.1,0.2,0.6,2.1,1,4.2c1,5.3,2.2,7.8,3.9,8.4c2.6,0.9,6.4,0.2,6.8-1.2c0.1-0.4-0.2-3.5-0.7-6.8c-1.1-7.5-1.1-7.1,0.2-7.7
	c2.5-1.1,3.9,1.4,5.2,9.4c0.8,5,0.7,8.7-0.2,10.1c-0.9,1.4-3.4,2.4-7.5,3C894.1,585.9,894.1,585.9,892.2,585.4z M698.4,585
	c-2.5-0.5-5.3-2-6.4-3.4c-1.1-1.4-1.8-5.7-2-11.4c-0.1-3.9,0-4.2,1-5.1c0.6-0.5,1.5-0.9,2.1-0.9c2,0,2.6,1.2,3.3,6.5
	c0.3,2.7,0.7,5.1,1,5.3c0.7,0.7,1.3-0.2,1.6-2.7c0.4-3.5,0.6-4.2,1.4-4.2c0.5,0,0.6,0.7,0.6,2.9c0,4.9,0.8,5.7,2.3,2.1
	c1-2.4,1.9-2.9,4-2.5c1.8,0.4,2.1,1.8,1.4,5.7c-0.7,4-1.5,5.9-3,6.9C704.2,585.2,701,585.5,698.4,585z M674.1,582.5
	c-1.2-0.3-2.8-0.9-3.4-1.3c-2.5-1.6-3.7-6.8-3-13.1c0.2-2,0.4-4,0.4-4.6c0-0.6,0.4-1.4,1-2c0.8-0.8,1.3-0.9,2.6-0.6
	c0.9,0.2,1.8,0.5,2.1,0.7c0.3,0.3,0.4,3,0.3,6.6c-0.2,6.7-0.1,6.9,2.4,7.4c3.2,0.6,4.3-1,5.2-7.3c0.7-4.9,1.4-6,3.3-5.7
	c2.7,0.5,2.8,0.9,2.8,8.8c0,8.2-0.2,8.9-3.8,10.7C681.6,583.3,677.9,583.4,674.1,582.5z M654.1,580c-5.1-0.8-8.2-2.8-9-5.9
	c-0.5-1.8,0.1-11.6,0.9-15.4c0.6-2.7,2.1-3.5,4.7-2.5l1.2,0.5l-0.3,6.7c-0.4,7.3-0.2,8.1,2,9.3c3.2,1.7,4.2,0.6,5.6-6.4
	c0.6-2.9,1.2-5.7,1.4-6.1c0.4-1.1,1.8-1.4,3.6-0.8l1.6,0.5l0,3.4c0,5.4-0.7,12.3-1.4,13.7c-0.3,0.7-1.2,1.6-1.9,2
	C660.8,579.9,656.7,580.4,654.1,580z M573.3,579.2c-0.8-1.4-1-4.9-0.5-6.7c0.3-1.2,1.2-2.5,2.5-3.7c2-1.8,3.1-2.3,8.3-3.3
	c1.7-0.3,3.4-1,4.1-1.6c2.1-1.8,4-1.2,4,1.2c0,1.7-2.1,3.8-4.5,4.4c-4.4,1.1-4.2,0.9-4.5,3.9c-0.2,2.3-0.4,2.8-1.3,3.2
	c-0.6,0.3-1.7,0.6-2.5,0.6c-1,0-1.6,0.4-2.4,1.4C575.3,580.2,573.9,580.4,573.3,579.2z M847.8,578.3c-0.1-0.4-0.3-1.9-0.5-3.3
	c-0.3-3,0.2-4.5,1.7-4.3c0.9,0.1,1.1,0.6,1.5,3.5c0.8,5,0.8,4.9-1,4.9C848.5,579.1,848,578.9,847.8,578.3z M892.9,573.8
	c-0.3-0.9-0.6-2.9-0.8-4.4c-0.2-2.2-0.1-2.8,0.4-3.3c1.9-1.6,3.1,0.4,3.7,6.1l0.3,3.3H895C893.6,575.5,893.4,575.4,892.9,573.8z
	 M873.9,574.4c-1.7-1.7-2.1-7.5-0.6-7.8c1.5-0.3,2.4,1.1,2.8,4.2C876.5,574.6,875.5,576.1,873.9,574.4z M676.6,572.8
	c-0.6-1.2-0.4-6,0.4-6.8c1-1,1.9-0.1,1.9,2C678.8,572.6,677.7,574.9,676.6,572.8z M654.9,570c-0.3-1.3-0.3-4.7,0.1-6.2
	c0.2-0.6,0.6-1.2,1.1-1.3c1-0.2,1.4,1.6,1.1,4.7C656.8,570.6,655.5,572.2,654.9,570z M967.9,568.1c-0.3-0.8,0.5-4.5,3.2-15.2
	c2.9-11.4,4.7-22,6.1-37c0.6-6.7,1.8-18.4,2.7-26c2.4-20.9,2.9-27.1,3.8-48.9c0.5-11,0.9-20.9,0.9-21.9c0-1.1,0.2-1.9,0.4-1.9
	c0.2,0,1.1,0.7,2,1.5l1.7,1.5l-0.5,20.8c-0.6,27.2-1.8,41.5-5.1,58.8c-1.3,6.7-2.4,15.1-2.8,21.5c-0.2,3.6-0.2,4.4,0.3,4.4
	c0.3,0,0.9-0.4,1.2-0.9c0.5-0.9,5.9-22.6,7.8-31.5c1.9-9,3.6-20.7,4-27.7c0.2-4,0.7-16.5,1.1-28l0.6-20.8l1.3-1.1
	c1.7-1.5,2.8-1.8,3.6-1c0.6,0.6,0.6,3.2,0.2,21.7c-0.3,11.6-0.8,24.2-1.1,28c-0.9,9.2-3.5,26.2-5.6,36.2
	c-4.9,22.8-13.5,48.2-20.8,61.6C969.3,568.7,968.5,569.7,967.9,568.1z M578.5,562.2c-0.4-0.4-1.3-2.3-2.1-4.2
	c-1.3-3.2-7.7-25.4-11.7-40.2c-6.9-25.7-9.5-49.6-8.8-83.3c0.3-16.3,0.3-16.8,1.2-16.8c0.5,0,1.6,0.7,2.4,1.5l1.5,1.5l0.3,8.1
	c0.2,4.4,0.4,16.2,0.5,26.1c0.4,24.6,1.4,35.4,5.1,52.9c0.7,3.5,1.8,9.2,2.4,12.5c1.2,6.7,2.3,9.9,3,9.1c0.3-0.3,0.1-2.3-0.7-6.7
	c-1.2-6.8-1.5-11.8-2.8-49.9c-0.4-10.9-0.9-26.9-1.2-35.6c-0.3-8.7-0.4-16.1-0.3-16.5c0.3-0.8,3.4-1.9,3.9-1.4
	c0.2,0.2,0.6,4.3,0.9,9.2c0.3,4.8,1,17,1.6,27c0.6,10,1.4,24.8,1.8,32.8c0.4,8,0.8,15.3,0.9,16.2c0.5,3.2,3.9,54.1,3.7,56.1
	C580.2,562.9,579.6,563.4,578.5,562.2z M865,558.4c-0.5-0.3-0.7-1.5-0.7-5.7c0-4.6,0.1-5.5,1-7.2c1.2-2.3,2.4-3.1,5.5-3.8
	c4.9-1,8.4,0.9,9.7,5.4c0.9,3,1,8.4,0.2,9.8c-0.5,1-2.2,1.8-2.6,1.3c-0.1-0.1-0.4-2.5-0.7-5.3c-0.5-5.9-1.2-7.3-3.6-7.5
	c-2.1-0.2-4.5,1.5-5.2,3.5c-0.3,0.9-0.5,3.4-0.6,5.7l0,4.2l-1.2,0C866.3,558.9,865.4,558.7,865,558.4z M871.6,557.9
	c-0.1-0.3-0.3-2.5-0.4-5c-0.2-4.3-0.2-4.4,0.9-5.3c2.5-2,3.2-0.7,3.2,5.1c0,2.3-0.1,4.6-0.3,5C874.8,558.6,871.8,558.7,871.6,557.9z
	 M883.4,557.4c-0.4-0.6-0.6-2.7-0.6-5.7c0-5.4,0.6-7.1,3.3-8.9c2.1-1.4,6.6-1.4,8.3-0.1c2.1,1.7,5.2,9.2,4.5,11.2
	c-0.3,1-2,2.1-2.4,1.5c-0.2-0.2-0.8-1.8-1.3-3.5c-1.1-3.4-1.5-4-3.4-5.5c-1.8-1.4-3.4-1.3-5,0.4c-1.3,1.4-1.3,1.4-1.3,6.5
	c0,4.7,0,5.1-0.8,5.1C884.3,558.4,883.7,558,883.4,557.4z M889.2,557.2c-0.1-0.2-0.5-2-0.8-3.9c-0.5-3.1-0.4-3.7,0.2-4.6
	c0.9-1.4,2.3-1.4,3.1-0.1c0.8,1.3,1.8,7.5,1.3,8.1C892.4,557.3,889.5,557.7,889.2,557.2z M925.3,557.1c-3.9-1.1-9.2-5.5-11-9.1
	c-1.5-3.1-1.9-7.8-1.2-13.5l0.5-4.4l-1.2-1.7c-1.2-1.8-12.4-14.5-17.1-19.4c-3.3-3.5-3.5-3.3-2.1,4c1.2,6,1.2,7.5,0.1,8.1
	c-1.1,0.6-7.7,1.4-11,1.4c-3.6,0-4.1-0.8-4.2-6.6c-0.1-4.2,0-4.4,1-4.5c0.7-0.1,1.2,0.2,1.8,1.2c2.3,4,5.5,0.3,6.4-7.2
	c0.2-2,0.5-4,0.7-4.5c0.4-1.2,1.4-1.1,2.3,0.3c0.7,1.1,0.8,1.1,7.3,1.1h6.6l6.5,4.4c3.6,2.4,8.2,5.6,10.2,7
	c4.2,2.9,3.8,2.9,10.3,1.1c3.3-0.9,4-1,7.5-0.5c4.3,0.5,7.4,1.8,9.6,4.1c1.6,1.6,2,3.3,0.9,4.2c-0.5,0.5-1.2,0.4-3.5-0.2
	c-2.8-0.7-4.8-0.6-4.8,0.2c0,0.2,1.2,1.9,2.7,3.6c3.1,3.7,3.9,5.7,3,8.2c-0.3,0.9-0.8,1.8-1.1,1.9c-0.3,0.1-1.9-0.9-3.6-2.1
	c-3.7-2.7-7-3.8-10.3-3.4c-2,0.2-2.6,0.5-4.2,2.2c-2.4,2.5-3,4.8-2.7,9.5c0.2,2.9,0.6,4.6,2.1,8.4c1.5,3.8,1.8,4.9,1.4,5.4
	C927.8,557.2,926.7,557.5,925.3,557.1z M688.1,554.1c-0.9-0.9-0.9-1.6-0.1-2.6c0.7-1,2-0.8,2.9,0.5c0.6,0.9,0.6,1.1-0.3,1.9
	C689.5,555,689.1,555.1,688.1,554.1z M627,552.3c-0.7-0.7-0.3-2.8,1-4.7c4-5.8,4.7-9.7,2.7-14.2c-2.7-6-8.4-8.3-18.1-7.4
	c-5.9,0.6-6.5,0.3-6-2.5c0.5-2.6,3.3-5.1,7.4-6.7c3-1.2,3.2-1.3,2.3-1.7c-0.6-0.2-2.7-0.3-4.6-0.1c-2.5,0.2-3.7,0.1-4.2-0.2
	c-1.7-1.4,0.1-4.4,3.7-6.6c1.7-1,2.8-1.2,5.8-1.4c4.9-0.3,7.2,0.4,11.7,3.1c2.2,1.4,3.9,2.1,4.3,1.9c0.3-0.2,3.5-2.8,7.2-5.9
	c3.6-3,7.3-5.9,8.2-6.2c1.2-0.5,2.5-0.6,4.9-0.4c1.9,0.2,4.7,0,6.9-0.3c5.5-0.9,6.1-0.3,2.5,2.6c-9.1,7.4-20.8,18.8-20.8,20.2
	c0,0.5,0.4,3,0.9,5.4c1.4,6.4,1.1,12.9-0.6,16.3c-2.5,4.9-7.6,8.5-12.4,8.9C628.5,552.6,627.2,552.5,627,552.3z M674.3,551.5
	c-0.4-0.9-0.4-1.3,0.3-2c1.1-1.2,2.5-1,3.3,0.6c0.8,1.6,0.1,2.6-1.8,2.6C675.2,552.6,674.7,552.3,674.3,551.5z M664.6,551
	c-1.2-0.8-1.3-2.1-0.2-3.1c1.1-1,2.1-0.9,3,0.3c0.9,1.3,0.9,1.5-0.2,2.6C666.1,551.9,665.9,551.9,664.6,551z M651.5,549.3
	c-0.3-0.4-0.5-1.3-0.4-2.2c0.1-1.4,0.3-1.5,1.7-1.5c1.9,0,2.7,1,2,2.8C654.3,549.9,652.4,550.4,651.5,549.3z M676.6,545.7
	c-1.4-0.3-5.9-1.3-10.1-2.2c-11-2.4-10.6-2.2-10.6-4.5c0-2.6,0.7-3.1,3.5-2.7c6.6,0.9,21.5,4.7,23.4,5.9c1.2,0.8,1.3,2.5,0.3,3.5
	C682.3,546.4,680.1,546.4,676.6,545.7z M870.9,538.4c-0.2-0.6-0.4-2.2-0.4-3.4c0-1.9,0.1-2.3,1-2.6c0.6-0.2,6.1-0.5,12.3-0.7
	c11.1-0.3,11.3-0.3,11.8,0.6c0.6,1.2,0.6,4.9,0,5.3c-0.4,0.3-20.1,2-23,2C871.6,539.5,871.2,539.3,870.9,538.4z M676.4,536.8
	c-1-0.2-5.2-1.2-9.4-2.2c-4.2-1-8.5-2-9.6-2.3l-1.9-0.5v-4.4c0-5.5,0.4-6.1,3.2-5.7c2.9,0.4,3.6,1.1,3.8,3.8
	c0.3,3.2,1.1,3.7,2.6,1.7c0.7-0.9,1.5-1.6,2-1.6c1.3,0,4.5,1.7,5.6,3c0.9,1.1,1.2,1.1,2,0.7c1.4-0.7,3.5-0.2,4.6,1.2
	c0.7,0.9,0.9,1.7,0.8,3.9C680,537.4,679.7,537.6,676.4,536.8z M961.9,529.4c-0.2-0.4,0-3.4,0.3-6.6c1.2-12.5,1.3-16.1,0.7-23.7
	c-0.5-6.9-0.5-8.5,0.7-24.1c0.7-9.2,1.6-21.8,2-28.1c0.4-6.3,1-14.3,1.4-17.8c0.4-3.5,0.8-7.6,0.9-9.3c0.4-3.7,0.8-4.6,1.8-3.4
	c0.5,0.7,0.7,2.7,0.7,10.8c0,11.5-0.7,30.4-1.3,38.3c-1.3,15.7-2.3,31.9-1.9,32.3c0.7,0.7,1.7-1.4,2.9-6.2
	c2.1-8.5,2.5-11.9,3.2-27.9c0.9-20.9,2-42.2,2.3-45c0.2-2,0.4-2.4,1.4-2.6c2.2-0.5,2.4,0.3,2.3,11c0,17.4-1.3,43-2.7,52.6
	c-0.9,6.4-4.5,25-5.6,29.5c-1.1,4.4-5.3,15.9-7,19.2C963,530.2,962.3,530.5,961.9,529.4z M874.2,528.1c-0.7-1-0.7-1.2,0-2.2
	c1-1.6,3.3-1.6,3.9,0C879.1,528.6,875.8,530.5,874.2,528.1z M883,527.9c-1.1-1.1-1.1-1.7-0.2-3c0.9-1.2,2.9-1.3,3.9-0.2
	c0.9,1,1,2.8,0.2,3.6C886.2,529,884,528.9,883,527.9z M892.1,527.4c-1.1-1.1-1.2-2.6-0.2-4c0.6-0.8,1-1,1.9-0.7
	c1.8,0.4,2.3,1.1,2.3,2.7c0,1.5-0.5,2.2-2.1,2.7C893.3,528.3,892.7,528.1,892.1,527.4z M596.1,522.6c-3.5-4.4-11.5-26.1-12.5-33.8
	c-1-7.2-2.7-28.1-3.2-38c-0.5-11.1-0.8-36-0.4-36.4c0.1-0.1,0.9-0.1,1.6,0.2c1.6,0.6,1.5-0.3,2.6,18c0.4,5.8,0.8,11.6,0.9,12.8
	c0.1,1.2,0.4,6.4,0.7,11.5c0.6,12.5,1.5,19.8,3.8,32.8c2.5,13.6,2.3,13,3.2,13c0.8,0,0.7-2.5-0.5-11.9c-1.2-9.9-1.6-13.8-2.6-29.2
	c-1-16.1-1.3-38.5-0.6-43.5c0.4-2.7,1.8-4.9,2.6-4c0.6,0.6,1.2,6.3,2,19c2.2,36.7,3,50.8,4.1,68.8c0.6,11,1.1,20.5,1.1,21
	C598.8,524.2,597.3,524.1,596.1,522.6z M669.6,518.5c-1-0.7-2.3-2-3-2.8c-1.1-1.4-1.2-1.7-1.2-5.9c0-5.1,0.1-5.2,3.6-3.4
	c1.9,0.9,2.1,1.2,2.8,3.9c0.4,1.6,0.8,4.3,0.9,6.1C672.8,520.1,672.3,520.5,669.6,518.5z M937.5,505.7c0-1.4,1-4.9,2.5-8.7
	c1.9-4.9,4.5-13.8,5.4-17.9c0.4-1.7,0.6-5,0.6-7.3c0-2.3,0.4-7.2,0.9-10.9c1-7.6,5.8-46.7,5.8-47.3c0-0.7,1.7-0.5,2.4,0.3
	c0.5,0.5,0.7,1.5,0.7,3c0,2.8-5.1,48.9-6.1,54.5c-1.4,8.2-0.6,9.2,2.2,2.4c3.4-8.4,4.7-15.4,5.7-29.6c0.9-13.9,2.3-29,2.7-30
	c0.3-0.7,0.8-1,1.8-1h1.4v3c0,3-1.5,27.2-2.1,32.9c-0.4,4.3-2.8,16.7-4,21.1c-1.8,6.5-4.2,13.1-6.4,17.5c-2,4.1-7.7,13.2-10.5,16.8
	C939.2,506.2,937.4,506.9,937.5,505.7z M611.3,496.5c-1.6-1.7-3.9-5.2-4.7-7.1c-1.4-3.3-4.7-17.4-6.2-26.3
	c-1.9-11.1-2.3-15.3-2.9-28.1c-0.3-5.4-0.6-11.6-0.7-13.7c-0.1-2.1-0.1-4.8,0.1-6.1c0.3-2.1,0.4-2.3,1.8-2.4
	c1.2-0.1,1.5,0.1,1.9,0.9c0.2,0.6,0.6,5.5,0.9,10.9c1.3,27.2,1.7,31.4,4.1,45.2c1.5,8.8,2.5,11.1,2.1,4.9
	c-1.2-16.8-3.4-54.7-3.4-58.6l0-4.8l1.5-0.9c1.9-1.1,2.1-1.1,2.4,0.1c0.1,0.6,0.7,10.9,1.4,23s1.5,25.7,2,30.1
	c1.1,9.8,1.6,17.4,2,26.9C613.8,498.4,613.6,499,611.3,496.5z M896.3,497.1c-6.7-2.2-9.4-5.7-11.2-14.4c-2-9.6,0.1-20.6,7.4-39.9
	c7.6-20.1,9.5-26.1,11.8-36.6c1.4-6.5,1.5-18.2,0.2-24.1c-2.4-11.3-7.4-21-12.5-24.3c-3.4-2.2-3.7-2.7-3.8-6.6l-0.1-3.5l1.4-0.1
	c2.8-0.3,11.1,6.5,14.8,12c6.4,9.6,8.4,18.6,8.5,37.1c0,6.9-0.2,9.7-1,14.6c-1.8,10.5-3.8,18-7.1,26.3c-3.1,7.6-7.2,21.1-8.2,26.3
	c-1,5.5-1.3,14.3-0.5,16.3c0.6,1.5,1.2,1.5,3.7,0.1c3.4-2,6.8-1.3,9.2,1.8c1,1.3,1.3,2.2,1.4,4.6c0.2,2.7,0.1,3.3-1.1,5.5
	c-1.9,3.6-4.3,5.1-8.1,5.3C899.5,497.7,897.3,497.4,896.3,497.1z M650.9,493c-4.6-1-8-5-8-9.5c0-4.1,2.7-7.9,6.4-8.8
	c1.8-0.5,2.5-0.4,4.9,0.3c3.3,1,4,0.7,4.9-1.8c0.4-1.3,0.5-3.4,0.4-7.4c-0.2-4.8-0.6-7.5-3-17.8c-4.8-21.4-5.8-28.5-6.2-45.1
	c-0.2-8.5-0.1-11.6,0.5-16c1.6-11.5,4.1-19.4,7.9-25.4c3.4-5.2,8-9.4,10.4-9.4c1.1,0,1.3,0.2,1.6,1.6c0.6,3.1,0,4.6-3.3,8
	c-5.3,5.5-8.3,11.3-9.8,19.4c-1,4.9-1,18-0.2,25.6c1.5,13.1,3.4,21.8,7.7,35.1c6.2,19.2,7.7,27.5,6.3,35.9
	c-0.5,3.1-3.1,8.4-5.1,10.5c-1.9,2-5.4,4-8.6,4.8C654.4,493.8,654.3,493.8,650.9,493z M919.9,491.1c-0.1-2.1,0.4-3.6,3.7-10.7
	c5.1-11,7.7-20.2,10.1-35.5c1.4-9,2.4-18,2.8-25.7c0.3-6.5,0.6-7.4,1.9-6.6c0.7,0.5,0.8,1.4,0.7,11c-0.1,12.2-0.4,14.8-3.9,29
	c-1.3,5.3-2.2,9.8-2,10.3c0.3,0.8,0.3,0.8,1.2,0c0.5-0.4,1.3-1.9,1.8-3.3c1.5-4,4.8-16.8,6-23.7c0.6-3.5,1.4-7.2,1.6-8.4
	c0.2-1.1,0.8-5.1,1.3-8.7c0.6-4.5,1.1-6.9,1.5-7.4c1.4-1.4,1.7,0,1.5,8.1c-0.2,8.7-1.6,17-4.6,28.6c-1.9,7.3-2.5,8.9-6.5,18.3
	c-4.6,10.8-8,16.4-14.8,24.4C921.2,492.1,919.9,492.2,919.9,491.1z M626.4,480.4c-5.3-9-5.9-10.2-7.8-15.4c-3.1-8.8-4-14.2-4.7-29.7
	c-0.4-7.5-0.9-16.6-1.1-20.2c-0.3-3.5-0.4-6.6-0.2-6.8c0.4-0.7,2.6,0.1,2.9,1c0.2,0.5,0.7,5.3,1.1,10.6c1.3,16,2,22.3,3.7,30.6
	c1.6,8.2,4.5,18.4,5.2,18.4c0.5,0,0.5-0.3-0.5-6.2c-1.5-8.6-3.1-21.7-4.1-32.7c-0.5-5.7-1.1-11.6-1.4-13c-0.9-5.2-0.3-9.7,1.1-9.7
	c1.6,0,2.1,2,4.1,18.9c0.9,7.5,2.4,19.8,3.4,27.2c1.8,14,2.8,29,1.9,31.2C629.6,485.6,629.3,485.3,626.4,480.4z M642.5,469.2
	c-1.4-1.2-3.6-4.6-7.2-11.5c-2.2-4.2-3.8-8.6-5.2-15.1c-1.4-6-5-34.4-4.6-35.5c0.3-0.7,2.5-1,2.5-0.4c0,2.5,5.2,34.5,6,37.2
	c2.2,7.3,2.6,8,3.6,6.4c0.3-0.5,0.3-1.4-0.1-3.1c-1.4-6.4-4.2-24.4-4.8-31.5c-0.9-10.8-0.9-10.7,0.4-10.7c1.3,0,1.6,0.8,2.9,9.7
	c3.4,22,7,42.7,8.3,48.1c0.9,3.4,1.5,6.5,1.4,6.9C645.5,470.6,644,470.4,642.5,469.2z M908.9,469.7c-0.1-0.3,0.5-2.4,1.4-4.6
	c7-17.3,9.7-27.7,11.6-44.3c1-8.6,1.1-9,2.1-9c1.4,0,2.6,0.9,2.6,1.9c0,1.3-2.5,15.9-3.4,19.5c-0.4,1.5-1.3,5.8-2,9.4
	c-0.7,3.7-1.9,8.2-2.5,10c-1.8,5.2-2,5.8-1.6,6.1s2.8-2.5,4.6-5.4c2-3.2,5.1-12.3,6.9-20.3c0.4-1.7,0.9-7.1,1.1-12.1
	c0.2-4.9,0.6-9.1,0.8-9.3c0.6-0.6,2.3,0.1,2.5,1.1c0.7,2.7,0,13.9-1.3,22.2c-0.7,4-3.6,13.4-5.5,17.6c-2.7,6.1-8.1,13.1-12.4,16.3
	C912,470.4,909.3,470.8,908.9,469.7z M909.8,448.9c-0.8-0.8-0.9-0.2,0.5-7.4c0.7-3.5,1.4-9.9,1.8-15.3c0.6-9.2,0.9-10.8,1.6-10.8
	c1.4,0,1.5,4.6,0.1,15.3c-0.7,5.6-0.3,7.4,0.9,3.8c0.7-2.3,1.8-9.9,2.3-16.2c0.3-4,1.1-5.7,2-4.8c1.2,1.1,0.3,14.5-1.2,19.9
	c-0.6,2.2-4.2,11.5-5.6,14.5C911.5,449.4,910.7,449.8,909.8,448.9z M645.7,444.5c-3.2-6.6-4.5-11.6-6.8-27.7
	c-1-6.8-1.7-12.6-1.6-12.9c0.5-1.3,3.3-1,3.3,0.4c0,0.3,0.6,5.5,1.3,11.6c1.3,11.1,1.9,14.1,2.7,14.6c0.6,0.4,0.5-1.7-0.2-7.8
	c-0.4-2.9-0.7-8.7-0.8-12.9l-0.1-7.6l1.3-0.1c2.4-0.3,2.6,0.2,2.6,8.4c0,4.1,0.2,10.1,0.4,13.3c0.2,3.2,0.6,10,0.7,15.2
	C648.9,450,648.7,450.5,645.7,444.5z M889.1,441.9c-0.4-0.9-0.1-13.2,0.3-13.6c0.5-0.5,5.1,0.9,5.2,1.7c0.2,0.9-3.8,11.1-4.7,12
	C889.4,442.5,889.3,442.5,889.1,441.9z M667.1,440.9c-1.7-2.6-3.5-10.7-2.6-11.8c0.3-0.3,1.6-1.1,2.9-1.8c3.2-1.6,3.8-1.2,3.8,2.5
	c0,3.4-0.8,9.3-1.5,10.8C669,442.1,667.9,442.2,667.1,440.9z M889.4,423.8c-0.5-0.6-0.5-1.3-0.2-3.1c0.4-2.2,0.5-2.4,2.4-3.4
	c2.2-1.1,4.9-1.3,5.8-0.5c0.6,0.6,0.7,3.4,0.3,4.6C896.9,423.4,890.5,425.2,889.4,423.8z M661.3,416.1c-0.4-0.5-0.7-2.8-0.8-7.5
	c-0.2-5.8-0.1-6.9,0.5-7.4c0.8-0.7,7.5-1.2,8.3-0.6c0.9,0.6,1.5,4.7,1.5,10c0,3.8-0.2,5-0.7,5.6c-1.8,1.8-2.6,0.6-3.3-4.6
	c-0.6-4.3-0.8-5-1.6-5c-0.6,0-1.1,4-1.1,7.9c0,1.3-0.2,1.9-0.7,2.1C662.3,416.9,662,416.8,661.3,416.1z M890.1,415.8
	c-1-0.7-1.8-5.8-1.6-9.7c0.1-2.4,0.4-3.1,1.2-3.7c2.1-1.7,4-0.9,4.5,1.9c0.5,2.7-0.2,10.2-1,10.9
	C892.3,416.1,890.9,416.4,890.1,415.8z M896.7,412.6c-0.2-0.3-0.4-2.7-0.5-5.4c-0.1-3.9,0-5,0.6-6c0.9-1.3,2.5-1.8,3.8-1.1
	c0.8,0.4,0.9,0.9,0.9,3.5c0,3-1,8-1.9,9c-0.3,0.3-0.9,0.6-1.5,0.6C897.5,413.2,896.9,412.9,896.7,412.6z M987.5,412.2
	c-1.1-0.5-2.5-1.6-3.1-2.4l-1.2-1.4l0.3-17c0.2-11,0.4-17.2,0.7-17.6c0.7-0.8,2.6-0.3,3.3,0.8c0.4,0.7,0.6,5.1,0.8,14.2
	c0.2,11.7,0.3,13.4,1,14.5c1.5,2.3,4.5,1.4,6.1-1.8c0.3-0.6,0.5-3.8,0.6-7.9c0-3.8,0.2-9.9,0.3-13.6l0.3-6.7l1.5-1
	c3-2,2.9-2.3,2.6,15.3c-0.2,8.7-0.5,16.8-0.7,18c-0.5,2.6-2.8,5.6-5.1,6.7C992.7,413.5,989.8,413.4,987.5,412.2z M563.4,409.6
	c-2.6-0.3-4.5-1.7-5.8-4.4c-0.7-1.4-0.7-2.6-0.5-9.7c0.2-4.5,0.6-11.5,1-15.8c0.7-7.7,2.8-25.2,3.2-27.1c0.3-1.3,1.5-1.3,3-0.1
	c1.5,1.2,1.5,1.9,0,13c-1.1,7.7-1.2,10.2-1.2,21.3c0,13.5,0.2,15.1,2.3,15.4c1.3,0.2,3.2-1.9,3.8-3.9c0.5-1.8,2-18.2,2.7-28.6
	c0.5-7.6,0.8-10.2,1.3-11c0.4-0.7,2.6-0.8,3.2-0.1c0.3,0.3,0,7-0.9,18.8c-0.7,10.1-1.5,20.4-1.6,22.9c-0.3,4.8-1.3,7.9-2.7,8.7
	C570,409.6,566.3,409.9,563.4,409.6z M970,408.5c-0.8-0.3-1.8-1.2-2.4-1.9c-1-1.2-1-1.6-1-15.3c0-8.1,0.2-14.6,0.4-15.2
	c0.5-1.3,2-1.6,2.6-0.4c0.2,0.4,0.5,5.4,0.6,11.1c0.2,11.2,0.5,12.8,2.3,12.8c2.2,0,2.5-1.2,2.9-12.7c0.4-10.3,0.4-10.7,1.4-11.8
	c2.1-2.2,2.3-1.7,2.2,5.7c0,3.8-0.2,10.3-0.4,14.5c-0.5,10.8-1.5,13.1-5.7,13.5C972.2,409.1,970.8,408.9,970,408.5z M581.2,407.6
	c-1.9-1.1-2.4-2.9-2.1-7.6c0.5-7.8,2.6-33.8,2.9-36.3c0.3-2.3,0.4-2.5,1.6-2.6c1.2-0.1,1.2-0.1,1.2,2.7c0,3-0.9,15.1-2,26.9
	c-0.9,9.4-0.9,9.4,0.5,9.9c1.2,0.5,4.2-0.4,4.2-1.3c0-2,3.4-32.2,3.8-34.2c0.2-0.7,0.6-1,1.4-1c1.5,0,1.8,0.9,1.2,4.4
	c-0.3,1.6-1.1,10-1.9,18.5c-1.5,16.7-1.9,18.5-4.3,20.1C586.2,408.2,582.7,408.4,581.2,407.6z M954.9,405.5c-2.3-1.4-3-6-2.6-18.2
	c0.2-5.3,0.5-9.8,0.6-10.1c0.6-0.9,2.4-0.6,2.7,0.5c0.1,0.6,0.3,5.2,0.3,10.3c0,6.6,0.2,9.4,0.5,9.8c0.8,0.8,2,0.7,2.3-0.2
	c0.2-0.4,0.3-5,0.4-10.3c0.1-10.2,0.3-11,2.4-11c1,0,1.1,0.1,1.1,3.5c0,1.9-0.3,8-0.7,13.6l-0.7,10.1l-1.3,1.2
	C958.5,406.1,956.4,406.4,954.9,405.5z M940.6,403.4l-1.4-1.2l0.4-11.6c0.3-9.5,0.5-11.7,1.1-12.3c0.4-0.4,0.9-0.6,1.1-0.4
	c0.2,0.1,0.6,4.3,0.7,9.2c0.3,8.6,0.6,10.3,1.6,9.3c0.8-0.8,1.3-3.7,1.6-10.5c0.3-6.5,0.7-8.5,1.5-8.5c0.3,0,0.5,4.2,0.5,12.4V402
	l-1.3,1.3C944.7,405.1,942.5,405.1,940.6,403.4z M597.1,403.5c-2.2-1.5-2.5-2.9-2.2-10.5c0.2-3.8,0.7-11.2,1.2-16.4
	c0.7-7.7,1-9.5,1.6-10c1.6-1.2,1.7,0,1,11c-0.4,5.9-0.6,12.2-0.5,14c0.1,4.7,1.6,6.7,3.4,4.7c0.5-0.6,1.3-4.6,2.6-14.1
	c1-7.3,2.1-13.5,2.4-13.9c0.9-1,2.5-0.2,2.5,1.2c0,0.6-0.7,7.1-1.5,14.2c-0.8,7.2-1.7,14.3-1.8,15.9c-0.2,2.3-0.5,3-1.4,3.7
	C602.9,404.4,598.6,404.5,597.1,403.5z M928.6,401.1c-1.3-0.8-1.4-1.1-1.7-4.2c-0.4-4.7-0.1-17.1,0.4-17.3c1.3-0.4,1.7,0.8,2.3,7
	c0.3,3.5,0.8,6.8,1.1,7.3c1.1,2,1.6-0.2,2-7.5c0.3-7.2,0.7-8.3,2.3-7.7c0.7,0.3,0.7,1.1,0.4,8.8c-0.4,10.1-0.7,11.6-2.5,13.2
	C931.3,402.2,930.5,402.2,928.6,401.1z M615,401.1c-1.6-0.3-3.5-1.7-4.3-3.3c-0.4-0.8-0.7-2.5-0.7-4.4c0-3.1,1.6-19.6,2.1-21.5
	c0.4-1.5,1.7-2.1,2.5-1.1c0.6,0.7,0.6,1.8-0.1,10.4c-0.9,11.5-0.8,13.1,1.4,13.1c1.5,0,2.2-2,3.8-11.3c1.7-10.3,1.8-10.6,3-11.2
	c0.7-0.4,0.9-0.3,1.1,0.3c0.3,0.8-0.6,19.8-1.2,23.2c-0.2,1.2-0.7,2.6-1.1,3.3C620.4,400.4,617.4,401.6,615,401.1z M917.8,400.4
	c-1.7-1.2-2.3-3.7-2.7-10.9c-0.3-7.2-0.1-8.2,1.6-6.5c0.8,0.8,0.9,1.5,1,4.4c0.1,4.2,0.4,5.7,1.4,5.9c0.9,0.2,1.1-0.9,1.5-7.4
	c0.2-4.3,0.4-5,1.1-5.2c1.9-0.5,2,0.2,1.9,7.6c-0.2,8.1-0.5,9.9-2.2,11.5C920.1,401.2,919.2,401.3,917.8,400.4z M990.9,399.8
	c-0.5-0.6-0.6-2.7-0.5-10.2c0.1-9.7,0.4-12.2,1.5-12.2c1.1,0,1.5,3.1,1.2,12.4C992.8,400.5,992.5,401.8,990.9,399.8z M890.2,398.3
	c-0.6-1.2-1.8-9.7-1.8-13.3c0-3.1,0.5-3.8,2.5-3.8c1.8,0,2,0.3,2.9,4.7c0.6,3,0.9,3.6,1.6,3.7c0.8,0.1,0.9-0.2,1.2-3.8
	c0.2-3.3,0.4-4.1,1.3-4.8c1.3-1.1,3.2-0.8,3.8,0.6c0.3,0.6,0.8,3.3,1.1,5.9c0.5,4.1,0.4,5-0.2,6.4c-0.9,2-3.5,3.7-7.5,4.6
	C891.3,399.4,890.8,399.4,890.2,398.3z M630,397.9c-0.8-0.5-1.8-1.6-2.4-2.4c-0.9-1.5-1-2.1-1-11c0-6.7,0.2-9.6,0.5-10
	c0.6-0.6,2-0.7,2.4-0.1c0.1,0.2,0.3,3.8,0.4,8c0.2,8.4,0.6,10.1,2.5,10.3c1.8,0.2,2.2-1.2,3-9.3c0.4-4.1,0.9-7.7,1.1-7.9
	c0.3-0.3,0.7-0.3,1.2,0.1c0.7,0.4,0.8,1.4,0.7,9.5c-0.1,10.2-0.4,11.6-3.1,12.9C633.5,399,631.7,399,630,397.9z M971.9,396.7
	c-0.2-0.7-0.5-13.8-0.3-16.6c0-0.7,0.3-1,0.9-1c0.7,0,0.9,0.5,1.1,3c0.2,1.7,0.3,5.8,0.3,9.2c0,5.8,0,6.2-0.9,6.2
	C972.5,397.4,972,397.1,971.9,396.7z M565.1,390.6c0-9.8,1.8-28,3.2-32.2c0.5-1.7,1.6-1.9,2-0.5c0.3,1.1-0.4,10-1.6,20.2
	c-0.5,3.8-1.1,9.1-1.3,11.7c-0.5,4.7-1.1,7.2-1.9,7.2C565.3,397,565.1,394.1,565.1,390.6z M641.9,395.3c-1.9-2.1-2.2-3.8-1.7-11
	c0.2-3.7,0.7-7,0.9-7.3c1-1,1.4,0.6,1.5,6.6c0.1,4.2,0.3,6.3,0.7,6.7c1.1,1,1.9-0.6,2.6-5.2c1.1-6.8,1-6.6,2.1-6.4
	c1,0.1,1,0.4,1.1,5.7c0.1,6.2-0.3,8.4-2,10.4c-0.9,1.1-1.5,1.4-2.8,1.4C643.2,396.1,642.3,395.8,641.9,395.3z M584.4,394.8
	c-0.6-0.4-0.6-1,0.1-6.6c0.4-3.4,1.2-10,1.7-14.7c0.5-4.7,1.1-8.7,1.3-8.9c0.2-0.2,0.8-0.3,1.2-0.2c1,0.4,0.9,3.2-0.6,16.5
	C586.4,395.2,586.2,395.8,584.4,394.8z M662.7,393.5c-1.4-0.3-1.6-0.5-1.7-1.7c-0.2-2.1,1.3-3,4.5-2.6c1.3,0.2,2.6,0.4,2.9,0.6
	c0.8,0.5,1.1,2.1,0.5,2.9C668.2,393.4,665,393.9,662.7,393.5z M599.9,388.8c0.2-1.8,0.5-6.5,0.8-10.5c0.5-7.6,0.9-9.2,2-9.2
	c1.2,0,1.2,1.1,0.3,8.7c-1.6,12.8-1.9,14.3-2.7,14.3C599.7,392,599.6,391.5,599.9,388.8z M615.7,390.4c-0.7-0.7,0.5-15.2,1.5-17.8
	c0.5-1.3,1.7-1.6,2.1-0.4c0.4,1-1.1,15.6-1.8,17C617.1,390.2,616.2,390.8,615.7,390.4z M631.4,388.4c-0.2-0.5-0.1-3.6,0-6.8
	c0.3-4.5,0.5-5.9,1-6.1c0.4-0.1,0.9,0,1.1,0.4c0.5,0.7,0.2,10.6-0.3,12.4C632.8,389.6,631.8,389.7,631.4,388.4z M662.1,386.2
	c-1.1-0.6-1-2.5,0.1-3.1c1.2-0.6,6.5-0.6,7.1,0.1c0.7,0.7,0.7,2-0.2,2.8C668.4,386.8,663.4,386.9,662.1,386.2z M668.1,375.6
	c-0.8-0.7-2.1-1.3-2.9-1.5c-2.1-0.4-2.1-1.6,0.3-4c1.1-1.1,2.4-2.7,2.8-3.5c0.5-0.8,1-1.4,1.3-1.3c0.6,0.2,0.9,10.6,0.3,11.2
	C669.7,376.6,669,376.3,668.1,375.6z M916.9,375.9c-1.5-0.6-2.4-2.3-2.7-5.4c-0.3-2.5-0.2-2.9,0.5-3.5c1.4-1,2-0.7,2,0.9
	c0,3.4,1.9,6,3.4,4.8c0.5-0.4,0.6-1.2,0.4-3.3c-0.2-2.3-0.2-2.9,0.6-3.5c1.6-1.4,2.3-1.3,2.6,0.1c0.4,1.8,0.3,4.6,0,6.8
	C923.2,375.6,919.9,377.1,916.9,375.9z M928.3,374.2c-1.5-0.9-1.5-1.1-2.1-6c-0.5-4.3-0.2-4.9,1.8-4.9c1.6,0,1.7,0.2,2.1,3.6
	c0.3,3,0.6,3.4,2,2.9c0.9-0.3,0.9-0.5,0.8-4.1c-0.2-3.4-0.1-3.9,0.7-4.4c1.3-0.9,2.5-0.8,2.6,0.1c0.2,2.8-0.2,10.8-0.6,11.5
	C934.5,374.8,930.6,375.6,928.3,374.2z M889,373.1c-0.6-0.6-0.8-10.9-0.3-12.2c0.1-0.4,0.7-0.7,1.1-0.7c1.8,0,7.7,7.2,8.3,10.2
	c0.3,1.4,0.3,1.5-1.2,1.4c-0.8,0-1.9-0.2-2.4-0.4c-0.7-0.3-1.3,0-2.5,0.9C890.1,373.8,889.8,373.9,889,373.1z M941.2,371.7
	c-1.3-0.6-1.4-0.8-1.7-7.1c-0.3-5.3-0.3-5.4,0.6-5.4c1.2,0,1.7,1,2.1,4.1c0.4,3.1,0.9,4.1,1.7,3.2c0.4-0.4,0.6-1.9,0.6-4.5v-3.9
	l1.4-0.9c0.8-0.5,1.7-0.7,1.9-0.5c0.3,0.2,0.4,2.3,0.2,6.9c-0.3,6.2-0.4,6.6-1.4,7.6C945.4,372.4,942.9,372.6,941.2,371.7z
	 M953.1,369.9c-1.5-1-1.5-1.2-1.8-4.4c-0.2-1.8-0.3-5.1-0.3-7.3l-0.1-3.9h1.3c0.7,0,1.4,0.2,1.5,0.4c0.1,0.2,0.5,2.6,0.7,5.3
	c0.6,5.7,1.1,6.7,2.7,5.1c1-1,1-1.3,0.8-7c-0.2-5.2-0.1-6,0.5-6.6c1-0.9,2-0.9,2.7,0c0.7,0.9,0.3,15.4-0.5,16.8
	c-0.7,1.3-3.1,2.7-4.8,2.7C955.3,370.9,954,370.4,953.1,369.9z M968.7,368.3c-0.8-0.5-1.8-1.4-2.4-2.1c-0.9-1.2-1-1.7-1-10.8
	c0-9.3,0-9.6,0.9-9.9c0.5-0.2,1.1-0.1,1.4,0.1c0.2,0.2,0.6,2.5,0.8,5c0.4,4.8,1.3,7.4,2.8,8.2c0.7,0.4,1.1,0.3,1.6-0.2
	c0.6-0.6,0.8-2.4,1.1-8.7c0.4-7.4,0.5-8,1.4-8.8c2.1-1.7,2.1-1.6,2.1,11.9c0,10.8-0.1,12.9-0.7,13.7
	C975.1,369.1,971.2,369.8,968.7,368.3z M648.8,366.6c0.2-2.5-0.7-3.2-1.2-0.9c-0.3,1.7-1.3,2.8-2,2.3c-0.3-0.2-0.6-1.1-0.8-2.1
	c-0.3-2.1-0.9-2.3-1.4-0.3c-0.2,0.8-0.7,1.6-1.2,1.9c-1.3,0.8-2.7-1.2-2.3-3.3c0.9-4.7,4.3-6.6,8.6-4.8c1.8,0.8,2.9,2.8,2.9,5.7
	c0,2.3-0.7,3.6-1.9,3.6C648.8,368.7,648.7,368.4,648.8,366.6z M988.5,365.8c-0.7-0.3-2-1.2-2.7-2l-1.3-1.4v-12.2v-12.2l1.2-0.3
	c1.2-0.3,1.2-0.3,1.5,2.2c0.2,1.4,0.5,5.6,0.7,9.4c0.5,8.7,1.3,10.6,4.3,9.9c2.2-0.5,2.5-2,2.5-12.7c0-10.7,0.1-11.2,2.6-11.6
	l1.4-0.3l0.3,9.6c0.2,5.3,0.4,11.5,0.5,13.9l0.3,4.3l-1.4,1.6C996,366.3,991.6,367.2,988.5,365.8z M635.2,363.2
	c0-1.3-0.2-2.7-0.4-3.1c-0.3-0.5-0.4-0.3-0.4,0.8c0,1.8-0.7,3.2-1.6,3.2c-0.5,0-0.7-0.7-0.8-2.6l-0.1-2.6l-0.6,1.8
	c-0.3,1-0.9,2.2-1.2,2.7c-0.6,0.8-0.7,0.8-1.4,0.2c-0.6-0.6-0.6-1.1-0.2-3.3c0.9-4.2,3.8-6.3,7-4.9c2.2,0.9,2.6,2.3,2.2,6.5
	c-0.3,3-0.5,3.4-1.4,3.5C635.3,365.6,635.3,365.4,635.2,363.2z M916.6,362.8c-0.4-0.6-0.7-1.6-0.7-2.3c0-1.5,0.6-1.8,7.4-4
	c10.5-3.3,16.9-7.1,25.4-14.9c4.1-3.8,6.8-5.6,14.5-9.8c10.1-5.5,13.5-8.2,13.5-11.1c0-2.2-0.7-3.7-3-6.5c-3.1-3.8-6.3-5.6-8.8-5.1
	c-1.4,0.3-0.8,1,3.3,3.6c2.2,1.4,4.1,2.8,4.3,3.1c0.1,0.3-0.2,0.8-0.6,1c-0.7,0.3-1.8-0.1-5.5-1.9c-8.2-4.2-9.9-3.7-2.5,0.7
	c3.1,1.9,4.3,2.9,4.3,3.5c0,1.4-1.6,1.1-6.6-1.1c-2.5-1.1-4.8-2-5.3-2c-0.8,0-0.8,0-0.1,0.9c0.4,0.5,2.1,1.7,3.7,2.8
	c1.9,1.2,2.9,2.2,2.9,2.7c0,1.1-0.6,0.9-5.1-1.3c-3.7-1.8-4.8-1.9-4.8-0.6c0,0.6,0.8,1.4,2.4,2.5c2.7,1.7,3.3,2.3,2.6,3
	c-0.3,0.3-1.5,0-3.5-0.7c-1.7-0.6-3.4-1.1-3.9-1.1c-1.5,0-0.9,1.5,1.4,3.8c2.9,2.9,2.3,3.5-1.5,1.6c-2.9-1.5-4.1-1.6-4.7-0.2
	c-0.1,0.4,0.4,1.5,1.2,2.5c0.9,1.1,1.3,2.1,1.2,2.5c-0.2,0.6-0.6,0.5-2.7-0.5c-2.7-1.3-3.4-1.2-2.3,0.5c1.5,2.3,0.8,3-2,2
	c-1.3-0.5-1.6-0.4-2.3,0.5c-0.8,0.9-0.8,1.1,0.1,2.9c0.5,1,0.7,2.1,0.5,2.3c-0.2,0.2-1.2-0.1-2.2-0.6c-2.4-1.3-3.4-0.9-3.1,1.1
	c0.3,2-0.4,2.6-2.3,2.1c-1.6-0.5-1.9-0.3-1.9,1.3c0,1.6-0.2,1.7-2.3,1.2c-2.2-0.6-2.7-0.1-2.2,2.3c0.4,1.9-0.2,2.3-2.3,1.3
	c-1.8-0.9-2.3-0.8-2.9,1.1c-0.5,1.4-0.7,1.5-2.1,1.4c-1.4-0.1-1.7,0-2.3,1.2c-1,1.8-2.1,1.8-4.3-0.3c-2-1.9-2.4-3.5-1-4.7
	c0.4-0.4,3-1.9,5.7-3.5c12-6.8,19-13.3,23-21.3c2-4,2.5-7.5,1.4-10.3c-1.9-5-7.9-7.2-11.3-4.1c-0.9,0.8-1.1,1.5-1.1,3
	c0,2.4,1.1,4,3.6,5.3c2.5,1.3,3.2,2.1,2.9,3.5c-0.7,2.9-4.7,9.3-8.7,13.9c-3.9,4.5-10.1,8.3-17.5,10.9c-3.4,1.1-4.9,0.9-7.1-1
	c-2.6-2.3-2.1-3.2,3.4-6c6.9-3.4,12.5-8.1,15.7-12.9c2.9-4.5,2.9-4.9,0-7.9c-3.4-3.5-3.6-4-3.4-8.7c0.1-2.2-0.1-4.2-0.3-4.4
	c-0.2-0.2-2.6-1.3-5.2-2.3c-6.7-2.7-10.1-4.9-11.7-7.8c-1.2-2-1.3-2.7-1.3-5.9c0-6.2,2.5-12.6,8.4-21.4c2.1-3.1,3.8-5.9,3.8-6.2
	s-0.4-0.6-0.8-0.8c-1.9-0.6-10.9-2.1-18.8-3.2c-4.7-0.6-12-1.7-16.2-2.3c-28.3-4-67.4-5.9-113.1-5.5c-26.5,0.2-31.2,0.4-51.3,2.1
	c-27.4,2.3-61.2,7.2-62.3,9c-0.4,0.6,0.4,1.8,4.3,6.8c5.9,7.6,7.8,11.3,8.4,16.6c0.5,5.1-1.6,8.3-9.9,14.4l-4.9,3.6l0.3,2.3
	c0.3,2.1,0.2,2.5-1.1,4.3c-0.7,1.1-2.2,2.6-3.3,3.3c-2.6,1.7-3.4,3.2-3.4,6.2c0,3.2,2,7.4,4.6,9.5c4.4,3.5,17,9.9,23,11.5
	c3.8,1.1,4.7,1.6,4.7,2.4c0,0.3-1.6,2.3-3.6,4.4c-4.2,4.5-4.5,4.6-10.3,3c-8.5-2.3-20-9.5-27.7-17.3c-6.1-6.1-8.4-9.2-8.6-11.6
	c-0.2-1.8-0.1-2,1.7-3.3c2.8-2,3.7-3.4,3.2-5c-0.6-1.9-3-3.1-6.1-3c-3.2,0-4.7,1-5.9,3.7c-2.2,4.9,1.2,13.5,8.3,20.8
	c3.2,3.3,5.7,5.1,15.9,11.3c4.7,2.9,9.3,6,10.3,6.8c1.5,1.4,1.7,1.7,1.1,2.3c-0.5,0.6-1.1,0.7-3.1,0.5c-3.1-0.3-8-2.5-15.5-7.1
	c-6.3-3.9-33.2-18-37.8-19.9c-1.7-0.7-5.5-2.1-8.3-3.1c-8.2-2.9-9.5-3.8-9.4-6.9c0-4.1,2.5-7,10.8-12.4c2.4-1.5,4.3-3,4.3-3.3
	c0-0.9-8.5-3.4-13.7-4c-6-0.7-6.6-0.5-6.2,1.8c0.2,0.9,0.4,3.3,0.6,5.3c0.3,3.2,0.2,3.8-0.7,5.5c-1.4,2.8-3.8,5.2-6.6,6.7
	c-3.6,1.9-3.9,1.5-4.6-4.8c-0.3-2.8-0.7-6.4-0.9-8c-0.4-3.3-0.2-4.8,1.2-7.5c1.8-3.6,7.1-7.3,12.9-8.9c3.4-1,4.8-1.1,10.3-1.1
	c3.5,0,9.9,0.3,14.2,0.7c15.8,1.4,22.6,1,29.7-1.7c4.4-1.7,10.3-5.4,10.3-6.5c0-2.1-9.8-1.9-21.4,0.4c-31.4,6.5-38.4,6.8-43.8,2.3
	c-2.1-1.8-3-4-4.2-11c-1.2-6.8-1.5-7.5-5.3-13c-1.4-2.1-3.2-5.2-3.9-6.7c-2.2-5-1.5-11.1,1.7-15c3.4-4.2,16.2-8.4,43-14.2
	c57.8-12.5,115.5-18.4,179.1-18.4c29.4,0,43.7,0.5,67.6,2.3c6.1,0.5,24.2,2.7,30.8,3.8c2.1,0.4,7.5,1.2,11.9,1.8
	c19.6,2.8,48.1,8.4,63.4,12.4c13.9,3.6,30.8,9,37.1,11.8c8.4,3.7,10.2,6.2,9.8,13.3c-0.2,4.2-1.7,7.6-5.8,13.1
	c-3.3,4.4-4.2,6.5-4.9,11.5c-0.3,2-0.7,4.2-1,5c-0.7,2.1-2.8,4-6.1,5.3c-4.5,1.8-7,1.9-14.3,0.3c-18.5-4-29.7-5.5-40.3-5.6
	c-8.7-0.1-10.3,0.2-10.3,1.5c0,1.3,3.4,4.4,6.5,5.9c5.1,2.5,4.1,2.5,43.2,1.5c16.5-0.4,23.7,0.6,29.5,4.4c2.6,1.7,3.8,3.1,5.8,7
	c1.4,2.6,1.4,2.8,0.9,5.4c-0.5,2.7-4.5,12.3-5.8,13.8c-1.1,1.3-2.8,0.1-4.6-3.2c-1.2-2.2-1.5-3.9-1.8-9.8c-0.4-6.6-0.2-6.5-8.4-6.2
	c-8.4,0.3-11.6,1.7-8.3,3.6c4,2.4,12.7,10.6,16.4,15.5c3.1,4,3.5,6.4,2,9.6c-1.1,2.3-2.8,3.3-6.9,4c-6.8,1.1-7.9,1.5-12.9,4.1
	c-6.1,3.2-22.9,12.9-27.8,16.1c-7.9,5.1-20.3,10-28,11C917.5,363.8,917.3,363.7,916.6,362.8z M1002.4,308.6c0.7-1.7,1.1-3.3,0.9-3.8
	c-0.3-0.8-3.6-3.1-4.6-3.1c-0.9,0-1.5,2.8-1.5,6.9c0,3.2,0.2,4.2,0.8,4.9c0.8,0.8,0.8,0.8,1.9-0.5
	C1000.6,312.2,1001.7,310.2,1002.4,308.6z M565.4,312.1c2.6-2.8,3-6,1.3-12c-1.2-4.3-1.8-4.7-3.9-2c-1.3,1.7-1.5,2.3-1.7,5
	c-0.2,2.9,0.4,6.7,1.3,9.2C563,313.7,564,313.6,565.4,312.1z M923.2,301c6.3-2.9,8.3-3.2,19.9-3.2c8.2,0,12,0.2,18.3,1.1l7.9,1
	l5.4-1.4c7.1-1.8,13.2-2.2,19-1.2c2.4,0.4,4.9,0.9,5.7,1c2,0.3,1.9-0.7-0.2-2.8c-4-3.9-9.2-4.5-33.3-4.1c-10.1,0.2-22,0.3-26.4,0.3
	c-7.8,0-8.2-0.1-11.8-1.4c-4.5-1.6-8.1-4-10.3-6.6c-1.2-1.4-1.9-2-2.8-2c-1.7,0-8.1,4.1-10.8,7c-2,2.1-2.3,2.6-2,3.7
	c0.4,1.9,1.6,3.3,4.3,5.2c2.5,1.8,10.3,4.7,12.6,4.8C919.3,302.5,921.4,301.9,923.2,301z M605.6,299.7c6.2-0.9,18.6-0.9,24.5,0
	c2.5,0.4,6,0.8,7.9,0.9l3.4,0.2l5-2.5c3.9-2,5.7-3.2,8.2-5.6c1.7-1.7,3.2-3.4,3.2-3.7c0-1.5-4.4-4.1-10.7-6.5
	c-3.4-1.3-4.5-1.3-6-0.1c-3.8,3.1-9.8,6.2-16,8.4c-3.9,1.4-11.4,1.9-21.8,1.4c-22.8-0.9-24.1-1-27.9-0.4c-7.3,1.1-9.8,3.2-3.8,3.2
	c5.1,0,15.7,2.3,22.7,4.9C597,300.8,597.6,300.8,605.6,299.7z M907.5,282.3c9.4-5.6,13-6.2,28.7-5.5c10.9,0.5,19.5,1.7,31.3,4.3
	c7.7,1.7,12.1,2,14.9,1c2.1-0.8,2.2-1.4,0.4-2.5c-5-3.1-45.2-13.6-59.9-15.7c-5.3-0.8-6.1-0.8-7.6-0.2c-2.5,1-8.4,8.2-11,13.4
	c-2.1,4.3-3,7.9-1.9,7.9C902.7,285,905,283.8,907.5,282.3z M656.9,281.8c-0.4-2.7-6.1-10.9-11.9-17.2c-1.5-1.6-2.3-2.1-3.3-2.1
	c-3.6,0-30.6,6.1-45.8,10.4c-7.5,2.1-17.8,7.3-17.1,8.5c0.1,0.2,3.2,0.4,6.8,0.4c6,0,7.4-0.2,17.9-2.2c28-5.5,32.6-5.4,47.2,1
	c3,1.3,5.7,2.4,6,2.3C656.9,283,657,282.4,656.9,281.8z M576.2,278.2c10-6.1,23.1-10.2,54.1-16.6c24.6-5.1,50.1-8.8,78.2-11.2
	c5.8-0.5,10.9-1,11.5-1.1c5.3-1.2,60.7-1.6,88.2-0.7c36.1,1.2,39.5,1.4,56.7,3.6c23.2,3,42.3,6.1,65.7,10.8c19.7,4,23.1,4.8,44.4,11
	c5.6,1.6,10.9,3,11.7,3.1l1.5,0.1l0.7-3.4c1.1-5.2,1.7-6.6,4.8-11.4c3.6-5.3,5.2-9.1,5.4-12.7c0.6-7.9-1.9-9.6-23.5-16.1
	c-28.4-8.5-56.7-14.8-83-18.5c-2.8-0.4-8.3-1.2-12.1-1.8c-31-4.8-69.9-6.9-112-6c-31.1,0.6-47.2,1.7-82.5,5.4
	c-27.6,2.9-45.2,5.6-65.7,9.9c-5.9,1.3-12.5,2.6-14.6,3c-6,1.1-22.6,5-28.8,6.7c-6.1,1.8-11.4,4-13.8,5.9c-2.4,1.8-3.4,4.5-3.1,8.7
	c0.3,4.1,1.3,6.5,4.1,9.9c2.6,3.1,4.6,5.9,5.2,7.6c0.3,0.7,0.8,4.1,1.3,7.6c0.8,6.1,1.4,8.3,2.3,8.3
	C573,280.1,574.5,279.2,576.2,278.2z M975.2,268c-2-2-1.8-4.2,1.4-13.7c3-8.8,3.6-10.3,5.3-12.1c0.8-0.9,1.6-1.2,2.8-1.2
	c3.4,0,4.9,2.7,3.8,6.9c-0.9,3.6-5.4,16.5-6.3,18.3C980.5,269.5,977.5,270.3,975.2,268z M979.9,264.4c1.1-2.2,4.2-11.4,5.4-16.2
	c1-4,0.2-5.9-1.7-3.8c-0.8,0.9-4.1,10-5.9,16.4c-1,3.5-1.1,4.5-0.7,5.1C978,267.1,978.8,266.7,979.9,264.4z M581.4,267.7
	c-0.5-0.4-1.4-1.4-1.9-2.3c-1.1-1.8-7.7-21.1-7.7-22.5c0-1.2,1.1-1.7,1.8-0.9c0.3,0.3,2.1,5.2,4.1,10.9c2,5.6,3.9,10.7,4.3,11.3
	c0.4,0.7,1,1,1.7,0.9c1.6-0.2,1.2-2.3-2.3-13.2c-4.2-13-3.9-11.9-3-12.2c0.4-0.2,1,0,1.4,0.4c1.1,1.1,7.8,21.4,7.8,23.6
	c0,1.3-0.3,2.3-1,3.1C585.3,268.3,582.8,268.7,581.4,267.7z M964.8,264.8c-1.8-1.8-1.7-3.5,0.5-11.6c2.3-8.2,4.2-13.2,5.5-14.5
	c1.6-1.5,3.5-1.7,5-0.5c1.5,1.3,1.9,3.7,1.1,6.9c-0.5,1.9-0.7,2.2-1.7,2.2c-1.1,0-1.1,0-1-3.5c0.2-3.5,0.2-3.5-0.9-3.4
	c-0.9,0.1-1.3,0.8-2.7,5.1c-2.4,7.1-4.5,15.5-4.2,16.8c0.5,1.9,1.7,0.9,3.4-2.5c1.5-3.3,2.2-3.8,3.1-2.7c0.6,0.7,0.2,2.4-1.4,5.5
	C969.7,266.3,967.1,267.1,964.8,264.8z M591.7,264.4c-0.7-0.5-2.3-5-5.3-15.8c-2.6-9.3-2.8-11-1.3-11.2c0.7-0.1,1.5,0.7,3.7,3.9
	c2.5,3.7,4.1,5.6,4.1,4.9c0-0.2-0.5-2.4-1.1-5c-0.6-2.6-1-4.9-0.9-5.2c0.6-0.9,1.5-0.3,2.3,1.7c1.9,4.5,6.8,21.3,6.8,23.4
	c0,1.4-1.2,1.8-2,0.7c-0.4-0.5-1.9-2.8-3.3-5.1c-3.2-5-4-6.1-4.3-5.8c-0.1,0.1,0.5,3,1.4,6.5C593.6,264.3,593.6,265.6,591.7,264.4z
	 M958.3,262.7c-0.1-0.4-0.1-1.6,0-2.8c0.5-3.5,6-23.6,6.6-23.9c0.9-0.5,1.8,0,1.8,1.1c0,2.3-5.9,24.7-6.8,25.8
	C959.2,263.6,958.6,263.6,958.3,262.7z M954.1,261.2c-0.3-0.5-0.5-1.4-0.5-2.1c0-1.9-0.5-4.6-0.9-4.6c-0.2,0-1.1,1.2-2,2.7
	c-2,3.2-2.6,3.7-3.6,3.4c-1-0.4-0.9-1.3,0.1-2.8c0.5-0.7,1.9-3.3,3.2-5.9l2.4-4.7l0.2-6.9c0.1-5.5,0.3-6.9,0.8-7.1
	c1.1-0.4,1.5,0.4,1.8,3.5c0.4,3.2,1.1,3.8,2.1,1.9c1-2,3-4.2,3.5-3.9c0.8,0.5,0.3,2.2-2.3,7.5l-2.7,5.5v6.6c0,3.6-0.1,6.9-0.3,7.3
	C955.7,262.4,954.7,262.3,954.1,261.2z M602.9,260.4c-0.6-1.1-5.7-18.9-6.4-22.5c-0.4-2.1-0.4-2.9-0.1-3.3c1.5-1.5,2,0,6.2,15.1
	c2.3,8.5,2.7,11.1,1.5,11.4C603.7,261.2,603.2,260.8,602.9,260.4z M940.5,259.1c-2-0.6-2.1-0.8-2.1-2.1c0-2.9,5.2-24.9,6.1-25.9
	c0.5-0.5,1-0.5,3.2-0.1c2.6,0.5,4.2,1.5,3.6,2.2c-0.2,0.2-1.2,0.4-2.4,0.4c-1.2,0-2.2,0.3-2.5,0.7c-0.7,1-1.3,3.6-1.6,6.3
	c-0.3,2.4-0.2,2.5,1.2,3.3c1.7,1,1.6,1.8-0.5,2.2c-0.8,0.2-1.8,0.6-2.1,1.1c-0.7,1-2.1,8.6-1.7,9.3c0.2,0.3,1,0.8,1.9,1.1
	c1,0.4,1.5,0.9,1.4,1.4C944.8,259.9,943.1,260,940.5,259.1z M610.3,258.4c-0.7-1.1-7.4-17.3-8.9-21.6c-0.9-2.7-0.9-3.9,0.3-3.9
	c0.6,0,1.2,1.2,4.8,8.9c0.8,1.8,1.7,3.3,1.9,3.3c0.2,0,0.3-2.2,0.1-5.3c-0.5-7.8-0.5-8.4,0.4-8.6c0.4-0.1,0.9,0.2,1,0.7
	c0.6,1.5,2.5,18.7,2.6,23.1c0.1,3.7,0,4.3-0.7,4.4C611.4,259.4,610.7,259,610.3,258.4z M618.3,257.1c-0.3-0.3-0.7-1.4-1-2.4
	c-0.8-3.1-4-19.2-4.3-21.9c-0.3-2.4-0.2-2.6,0.7-3.1c1.6-0.9,4.5-1.3,5.5-0.8c0.8,0.4,0.8,0.5-0.2,1.3c-0.6,0.5-1.3,0.8-1.6,0.8
	c-0.3,0-0.8,0.3-1.1,0.7c-0.5,0.6-0.4,1.4,0.2,4.3c0.4,2,0.9,3.9,1.2,4.2c0.3,0.3,1.2,0.7,2,0.9c1.9,0.4,2,1,0.1,2.6l-1.4,1.2
	l0.8,4.4c0.4,2.4,1,4.7,1.3,5c0.3,0.3,1.4,0.6,2.5,0.6c1.5,0,2,0.2,2,0.7C624.9,256.9,619.2,258.2,618.3,257.1z M933.6,257
	c-0.1-0.3,0.1-2.9,0.5-5.7c0.8-6,0.9-8.7,0.2-7.5c-0.2,0.4-1.1,2.6-2,4.9c-2,5.5-3,7.5-3.7,7.5c-0.4,0-0.6-0.7-0.6-2.6
	c0-3.6-0.6-12.8-0.8-12.6c-0.1,0.1-0.8,3-1.5,6.4c-0.7,3.4-1.5,6.6-1.6,7c-0.3,0.9-1.5,1-1.8,0.2c-0.4-1,3.8-25.1,4.6-26.3
	c0.8-1.2,1.4-1.3,2.8-0.3c0.9,0.6,1,1.1,1,5.7c0,2.8,0.2,5.4,0.4,5.9c0.3,0.8,0.4,0.7,1.1-0.7c0.4-0.9,1.4-3.3,2.2-5.3
	c1.6-4.1,2.3-4.8,4.1-4.4c1,0.2,1.2,0.6,1.2,1.8c0,1.6-2.8,19.2-3.7,23C935.3,257.3,934.2,258.6,933.6,257z M627.2,255
	c-0.5-0.9-5-24.1-5-25.7c0-1.4,1.3-2,3.9-2c2.9,0.1,3.6,0.6,4.7,3.1c1.4,3.2,1.9,6.6,1.2,9.2c-0.6,2.4-0.5,2.8,2.3,10.1
	c1.5,3.8,1.5,4.7,0.1,4.7c-0.9,0-1.3-0.7-3.9-6.7c-1.9-4.4-2.2-4.4-1.8,0c0.6,6.3,0.5,7.8-0.3,8C628,255.8,627.5,255.4,627.2,255z
	 M629.4,238.5c0.5-1.2-0.3-6-1.2-7.4c-0.8-1.3-1.9-1.7-2.5-1.1c-0.5,0.5,0.3,6.2,1.2,8.5C627.6,240.2,628.8,240.2,629.4,238.5z
	 M639.9,253.6c-1.3-0.2-2.7-2-3.3-4.2c-1.1-3.8,0.9-4.3,2.6-0.6c1.2,2.5,2.1,3,3.2,1.9c1.6-1.6-0.1-6.5-3.6-10.5
	c-1.5-1.7-3.3-4.1-3.8-5.4c-2.5-5.5-0.3-11.2,3.7-9.5c1.8,0.8,2.9,2.5,3,4.6c0.1,2.4-1.1,2.2-2.3-0.5c-0.6-1.2-1.3-2.1-1.7-2.1
	c-1.7,0-1.9,3.5-0.3,6.5c0.4,0.7,1.8,2.7,3.2,4.3c2.9,3.3,4.3,5.7,4.7,8.3c0.3,1.9-0.2,4.5-1.2,5.7
	C643.5,253.2,641.3,253.9,639.9,253.6z M648.1,251.2c-1-3-4.4-23.6-4.2-25.4c0.1-0.9,0.4-1.2,1-1.2c1.1,0,1.4,1,3.6,13.7
	c1.8,10.2,1.9,13.2,0.6,13.4C648.6,251.7,648.2,251.5,648.1,251.2z M900.2,251.4c-2.2-0.4-2.2-1.7,0.8-18.2
	c1.5-8.2,1.9-9.7,2.9-10.1c1.3-0.5,4,0.3,5.2,1.6c1.2,1.2,1.3,1.6,1.3,4.3c0,4.2-2.1,16.5-3.3,19
	C905.8,251.1,903.7,252.1,900.2,251.4z M904.3,248c0.8-1.2,3.9-16.6,3.9-19.2c0-1.9-0.9-3.2-2.2-3.2c-0.6,0-1,0.7-1.5,3.2
	c-0.9,3.9-0.9,5.7,0,6.9c1,1.3,0.8,2.8-0.4,3.7c-0.6,0.4-1.2,1.2-1.4,1.7c-0.6,1.9-1.4,6.8-1.2,7.4
	C901.7,249.4,903.6,249.1,904.3,248z M653.3,250.7c-0.7-0.9-4.1-21.9-4.1-25.5c0-2.2,0.8-2.7,4-2.7c1.9,0,2.4,0.2,3.4,1.4
	c1.4,1.7,1.8,3.1,3.2,11.4c1.9,11.2,1.4,14.5-2.3,15.5C655.2,251.4,653.9,251.4,653.3,250.7z M657.5,247.9c0.9-0.9,0.9-2.2,0-9
	c-1.4-10.9-2.4-14.2-4.4-14.2c-0.9,0-0.9,0.1-0.7,3.9c0.3,4.4,2.3,16.9,3,18.7C656,248.8,656.5,248.9,657.5,247.9z M663.7,249
	c-0.2-0.3-0.4-6.6-0.5-13.9c-0.1-11.6,0-13.4,0.6-13.9c0.5-0.5,0.8-0.5,1.3,0c1.3,1.1,7.9,22.9,7.9,26.1c0,0.6-0.3,0.9-0.8,0.9
	c-0.6,0-1.1-0.6-1.6-2.1c-1.1-2.9-1.5-3.3-3.1-3.2c-1.3,0.1-1.4,0.2-1.8,3.2C665.2,249.1,664.5,250.1,663.7,249z M667.6,237.5
	c0-1.9-1.7-5.9-1.8-4.4c-0.1,1.3,0.1,5.3,0.3,5.7c0.1,0.2,0.5,0.3,0.9,0.3C667.4,239.2,667.6,238.6,667.6,237.5z M675.4,247.6
	c-0.5-0.6-2.1-11.3-3.3-21.9c-0.6-5.9-0.4-6.3,3-6.3c2.6,0,4,0.7,4.9,2.6c0.9,1.8,2.3,10.9,2.7,17.3c0.3,5-0.1,6.5-2,7.7
	C678.8,248,676,248.4,675.4,247.6z M680.3,242.6c0.3-4.8-1.8-18.7-3.1-20.2c-0.9-1-2.2-1.1-2.5-0.3c-0.6,1.7,2.2,21.3,3.2,22.6
	C678.9,245.9,680.2,244.8,680.3,242.6z M882.9,246.8c-0.2-0.8-0.3-2.1-0.3-2.9c0-1.6-0.6-2.3-2-2.5c-0.7-0.1-1.2,0.4-2.1,2.3
	c-1.4,2.9-2.1,3.7-2.6,3.4c-0.8-0.5-0.4-2.2,1.8-10.1c4.8-16.5,5.4-18,7.3-17c0.9,0.5,0.9,0.8,0.6,12.2c-0.4,13.6-0.6,15.7-1.6,15.9
	C883.4,248.1,883.1,247.7,882.9,246.8z M882.8,235.7c0.3-2.2-0.1-4.4-0.7-4c-0.2,0.1-0.8,1.4-1.1,2.7c-0.6,1.9-0.6,2.6-0.2,3.1
	C881.6,238.6,882.5,237.8,882.8,235.7z M870.6,239.5c0.2-4.6,0.1-7-0.1-6.4c-0.2,0.5-1.2,3.6-2.3,6.9c-1.5,4.8-2,6-2.6,5.8
	c-0.8-0.2-0.9-0.6-1.7-11.3c-0.2-1.9-0.4-3.4-0.5-3.3c-0.1,0.1-0.7,3.2-1.3,6.8c-1.1,6.8-1.8,8.5-2.9,7.2c-0.6-0.8-0.4-4.4,1.4-18.5
	c1-7.7,1.6-9.7,3-9.7c1.9,0,2.3,0.9,2.8,6.7c0.2,3.1,0.6,5.8,0.9,6c0.3,0.3,1.1-1.7,2.1-4.9c0.9-2.9,1.9-5.6,2.1-5.9
	c0.6-0.8,2.8-0.7,3.4,0.1c0.6,0.7,0.3,3.7-1.3,18c-1,8.2-1.3,9.7-2.5,9.7C870.4,246.8,870.4,246.1,870.6,239.5z M850.8,245.1
	c-0.5-0.1-1.5-0.8-2.1-1.5c-1.4-1.6-1.5-4-0.5-12.8c1.3-11.2,2.1-13.8,4.9-14.7c1.7-0.6,4.2,0.6,4.8,2.3c0.6,1.6,0.2,12.1-0.7,18.2
	c-0.8,5.3-1.9,7.7-3.9,8.4c-0.8,0.3-1.5,0.5-1.5,0.4C851.8,245.4,851.3,245.2,850.8,245.1z M853.3,240.8c0.6-1.9,2.3-15.7,2.3-18.9
	c0-4.1-2.2-4.8-3.1-0.9c-1.1,4.9-2.3,20.3-1.6,21C851.7,242.8,852.9,242.2,853.3,240.8z M697.8,242.9c-0.5-1.9-1.5-8.9-2.5-18.5
	c-0.7-5.9-0.7-6.5,0-7.2c1.2-1.2,2-0.2,4.3,4.9c2.7,5.9,3.3,6.3,3,1.5c-0.1-1.9-0.4-4.3-0.5-5.2c-0.2-1.3,0-1.8,0.5-2
	c0.4-0.2,0.9-0.1,1.1,0.1c0.9,0.9,3.9,24.6,3.3,26.3c-0.6,1.9-1.7,0.5-4.2-5.2c-3.6-8.3-3.6-8.3-3.6-4.6c0,1.7,0.2,4.5,0.5,6.4
	c0.3,1.9,0.4,3.8,0.2,4.3C699.3,245.1,698.3,244.7,697.8,242.9z M843.1,243.3c-0.4-0.7-3.2-13.3-3.2-14.2c0-0.2-0.2-0.2-0.5,0
	s-0.8,3.4-1.1,6.9c-0.4,3.5-0.8,6.6-0.9,6.8c-0.1,0.2-0.6,0.4-1.1,0.4c-0.7,0-0.9-0.3-0.9-2.1c0-4.6,1.9-25.1,2.3-25.7
	c0.3-0.3,0.9-0.5,1.4-0.5c0.8,0.1,1.1,0.9,2.1,4.9c1.3,5.4,1.7,6.5,2,6.1c0.1-0.1,0.5-2.3,0.9-4.8c0.4-2.5,0.8-4.8,0.9-5
	c0.4-0.6,1.4-0.5,1.7,0.2c0.4,1.1-1.1,23.5-1.8,26.2C844.7,243.9,843.6,244.3,843.1,243.3z M709.2,241.6c-0.5-3.2,0.5-25.2,1.2-26
	c0.7-0.9,1.7-0.8,2.2,0.2c0.8,1.5,5.9,22.5,6,24.7c0.1,1.8,0,2.1-0.8,2.1c-0.6,0-1.1-0.6-1.6-2.1c-0.9-2.5-1.7-3.5-2.8-3.5
	c-1.1,0-1.4,0.6-2,3.8c-0.3,1.9-0.7,2.8-1.2,2.9C709.7,243.7,709.4,243.2,709.2,241.6z M713.9,232.1c0-1.6-0.9-4.7-1.4-4.7
	c-0.5,0-0.6,3.8-0.1,5.3C712.7,233.8,713.9,233.4,713.9,232.1z M722.6,242.5c-2-1.4-2.9-6-3.5-17.6c-0.3-5.7,0.1-8.7,1.5-10.2
	c0.8-0.9,3.3-1.1,4.6-0.3c1.9,1,3.2,7.8,1.6,8.4c-0.9,0.4-1,0.2-1.8-2.8c-1.4-5.2-3.3-4.8-3.3,0.7c0,4.2,1.2,16.7,1.7,18.1
	c0.5,1.4,1.5,1.9,2.3,1.2c0.3-0.3,0.5-1.7,0.5-3.3c0-1.8,0.2-3.1,0.7-3.6c0.7-0.9,0.7-0.9,1.3,0c0.8,1,0.9,4,0.2,6.8
	C727.5,242.8,724.8,244.1,722.6,242.5z M826.3,242.7c-1.6-0.9-2.1-2.9-2.1-7.7c0-5.9,0.8-15.8,1.4-17.7c1.5-4.5,7.4-4.1,8.3,0.5
	c0.4,1.9-0.5,17.8-1.2,20.8c-0.6,3-2.1,4.6-4.1,4.6C827.7,243.2,826.7,243,826.3,242.7z M830.1,237.2c0.6-5,1.1-16.8,0.8-18.5
	c-0.2-1.4-0.5-1.8-1.3-1.9c-1.4-0.2-1.8,1-2.3,8.6c-0.7,9.7-0.6,14,0.2,14.9c0.7,0.7,0.8,0.7,1.5,0
	C829.5,239.8,830,238.6,830.1,237.2z M804.2,240.9c-0.6-0.7-1.3-2.1-1.5-3c-0.4-2.3,0.6-22.9,1.2-24c0.3-0.5,0.7-0.8,1-0.7
	c0.4,0.1,0.5,3.5,0.5,12.8c0,10.9,0.1,12.7,0.7,13.4c0.8,0.8,2.1,0.5,2.4-0.7c0.1-0.5,0.5-6.1,0.8-12.5c0.3-6.4,0.7-11.9,0.9-12.2
	c0.6-0.9,1.6-0.5,1.9,0.7c0.5,2.1-0.6,22.7-1.3,24.5C809.6,242.5,806.2,243.3,804.2,240.9z M817,241.5c-0.3-0.5-0.3-5.2,0.1-12.9
	l0.5-12.1l-1-0.8c-1.6-1.3-0.9-2.2,1.6-2.1c4.5,0.1,6.2,1.1,3.8,2.3c-1.5,0.7-1.7,1.7-2.3,12.6c-0.3,5.1-0.7,10.3-0.8,11.4
	C818.5,242.2,817.7,242.9,817,241.5z M731.7,241.4c-0.8-1.3-2.3-25.7-1.6-27c0.5-1,1.1-1.2,1.6-0.5c0.4,0.7,1.1,7,1.6,17
	c0.4,7.7,0.4,9.6,0,10.2C732.6,241.9,732.1,242,731.7,241.4z M738.1,241.3c-1.6-1.2-2.2-3.8-2.6-13.3c-0.5-9.9-0.3-12.3,1.4-14
	c2.1-2.1,5.2-1.4,6.5,1.3c0.9,1.9,1.9,17.2,1.3,21.4c-0.4,3.4-1.9,5.2-4.2,5.2C739.6,241.9,738.5,241.6,738.1,241.3z M741.3,239.2
	c0.3-0.2,0.7-1.2,0.8-2.1c0.3-2.6-0.7-20.3-1.2-21.3c-0.6-1.2-1.6-1.1-2.5,0.3c-0.7,1-0.7,2.1-0.2,11.5
	C738.7,239.1,739.1,240.6,741.3,239.2z M747.9,241c-0.4-0.6-1.1-15-1.1-21c0-6.1,0.3-7.2,1.8-7.2c1,0,1.3,0.5,2.9,5
	c1,2.8,1.9,5.2,2.1,5.3c0.2,0.2,0.4-2.1,0.6-4.9c0.3-4.6,0.4-5.2,1.1-5.2c1.2,0,1.4,1.9,1.7,12.8c0.4,12.6,0.3,14.6-0.8,14.6
	c-0.9,0-1.5-1.2-3.8-8.5c-0.7-2.1-1.4-4-1.6-4.2c-0.4-0.5-0.9,4.6-0.9,9.5c0,2-0.1,3.7-0.2,3.7c-0.1,0-0.5,0.1-0.9,0.3
	C748.5,241.3,748.1,241.3,747.9,241z M771,240.7c-0.7-0.8-0.7-0.4-0.5-16.1c0.1-11.8,0.1-12,1-12c0.5,0,1,0.3,1.1,0.6
	c0.1,0.3,0.4,6.1,0.5,12.9l0.4,12.4l2.2,0.6c1.2,0.3,2.1,0.8,2,1.1C777.3,241.4,772,241.8,771,240.7z M759.2,240.2
	c-0.5-1.2,2-23.2,2.9-26.2c0.4-1.2,0.7-1.5,1.4-1.3c1.4,0.2,1.8,1.7,3.6,13.8c1.8,11.8,1.9,13.5,0.9,13.9c-0.9,0.3-1.4-0.5-1.8-2.7
	c-0.2-0.9-0.6-2.1-1.1-2.7c-0.6-0.8-1-0.9-1.8-0.5c-0.8,0.4-1.2,1.1-1.8,3.4C760.9,240.7,759.8,241.8,759.2,240.2z M764.7,229.6
	c0.1-0.6-0.1-2-0.4-3.1c-0.5-1.8-0.6-1.9-0.9-0.8c-0.4,1.5-0.5,4.7-0.1,5.1C763.9,231.3,764.5,230.8,764.7,229.6z M791.3,239.6
	c0-2.6,2.5-19.2,3.7-24.4c0.4-1.8,0.6-2.1,1.5-2.1c0.6,0,1.2,0.2,1.3,0.4c0.8,1.3,3.2,24.4,2.8,26.3c-0.3,1.2-1.4,1.5-1.8,0.5
	c-0.1-0.3-0.4-1.5-0.5-2.7c-0.4-2.5-1.2-3.3-2.8-2.7c-1,0.3-1.3,0.9-1.9,3.1c-0.5,1.8-1,2.7-1.5,2.8
	C791.5,241,791.3,240.7,791.3,239.6z M797.1,229.1c-0.1-2.4-0.6-4.4-1-3.4c-0.7,1.8-1.1,4.7-0.7,5.2
	C796.3,232,797.1,231,797.1,229.1z M624.6,362.7c-0.3-0.3-0.5-1.8-0.5-3.4c0-3.7-0.8-4.1-1.2-0.6c-0.3,2.8-1,3.9-2.2,3.5
	c-0.5-0.2-0.7-1-0.7-3.4c0-4.7-0.8-4.2-1.6,1c-0.3,1.8-0.5,2.1-1.3,2.1c-2.2,0-2.5-1.7-1.3-6.5c0.9-3.7,2.4-5.1,5.3-5.1
	c2.5,0,4,0.6,5.4,2.1c1.3,1.4,1.4,3.1,0.5,7.1C626.3,362.4,625.4,363.6,624.6,362.7z M600.6,358.1c-0.4-0.5-0.5-1.9-0.4-4.6
	c0.3-6.4,2.3-9.3,6.5-9.2c2.3,0,3.7,0.8,5.3,2.9c1.3,1.7,1.6,8.1,0.5,10.2c-0.6,1.2-1,1.4-2,1.3c-1.2-0.1-1.2-0.2-1.3-3.7
	c-0.1-4-0.5-4.7-1.7-3.5c-0.7,0.7-0.8,1.3-0.5,3.9c0.2,2.5,0.1,3.1-0.4,3.3c-1.5,0.6-2.2-1-2.2-4.9c0-2.3-0.2-3.7-0.5-3.8
	c-0.5-0.2-0.9,2.2-1.1,6.6C602.6,358.7,601.7,359.4,600.6,358.1z M594,355.5c-0.7-0.7-0.7-2.8-0.1-5.7c0.5-2.5,0.3-4.8-0.2-2.5
	c-0.9,3.7-1.3,4.7-2.3,5.8c-1,1.1-1.2,1.2-1.9,0.6c-0.6-0.6-0.6-1.1-0.2-3.6c0.3-1.6,0.5-3.4,0.5-4l0-1.1l-0.4,1.1
	c-0.2,0.6-0.7,2.3-1.1,3.7c-0.8,2.9-2.3,4.1-3.6,3c-1-0.8-0.9-2.5,0.5-7c1.6-5.7,3.9-7.3,8.6-6c2.9,0.8,4.2,2.6,4.2,5.7
	c0,2.9-0.8,8.6-1.4,9.7C596,356.2,594.8,356.3,594,355.5z M971.4,355.7c-0.4-0.7-1.3-9.4-1-10.2c0.4-1.1,1.6-0.7,1.9,0.6
	C973.3,349.6,972.5,357.4,971.4,355.7z M990.5,353.3c-0.7-2.6-0.4-14.1,0.3-14.8c0.3-0.3,0.7-0.4,0.9-0.2c0.2,0.2,0.5,2.7,0.7,5.6
	C993.1,352.1,991.8,358.3,990.5,353.3z M575.6,348.6c-0.3-0.7-0.1-2.7,0.5-7c0.4-2.5-0.3-2.1-2.3,1.7c-1.8,3.3-2.7,3.4-2.7,0.3
	c0-1.2,0.2-3.2,0.4-4.4c0.6-3.4-0.6-2.5-2.4,1.9c-0.9,2-1.9,3.9-2.3,4.1c-1,0.6-2.1,0.1-2.8-1.3c-0.5-1-0.5-1.5,0.2-3.4
	c1.3-3.6,3.3-8.4,4-9.5c1.3-2.1,4.9-1.7,8.9,0.9c2.4,1.6,4.3,4.5,4.3,6.6c0,1.6-2.3,9.1-3.1,10C577.4,349.5,576,349.6,575.6,348.6z
	 M732.3,345.8c-1-0.8-1.1-1.3-1.2-5.7c-0.2-7,0.1-9.4,1.6-10c1.8-0.8,2.4-0.6,3.3,1.2c1.1,2.2,6,14.6,5.8,14.7
	c-0.1,0.1-2,0.2-4.3,0.4C733.9,346.6,733.2,346.5,732.3,345.8z M737.6,342.7c-0.5-2.1-3-8.2-3.4-8.5c-0.5-0.3-0.5,0.7,0,5
	c0.6,4.6,0.6,4.6,2.3,4.6C737.8,343.9,737.9,343.8,737.6,342.7z M720.9,345.6c-2.3-0.4-3.2-0.7-3.3-1.3c-0.2-1,5.7-12.5,6.7-13.1
	c0.5-0.3,1.5-0.3,2.9,0c1.8,0.4,2.2,0.6,2.5,1.7c0.4,1.7-0.4,9.9-1.2,11.8c-0.6,1.4-0.8,1.5-2.6,1.5
	C724.9,346.1,722.7,345.8,720.9,345.6z M726.1,342.7c0.6-1,1.4-7.6,1.1-8.4c-0.5-1.4-2.4-0.1-3.1,2.1c-0.2,0.6-0.8,2.1-1.4,3.2
	c-1.3,2.5-1.3,3.4-0.3,3.6C724.2,343.7,725.6,343.5,726.1,342.7z M744.4,345.9c-1-0.3-2.4-3-4.8-9.4c-2.4-6.4-2.4-8.3,0.1-9.8
	c1.7-1,1.7-1,2.5-0.1c0.9,0.9,6.9,15.3,7.5,17.7c0.3,1.2,0.2,1.3-1.1,1.6C747,346.2,745.7,346.2,744.4,345.9z M745.9,340.8
	c0-2-3.4-10-4.3-10c-0.3,0-0.6,0.3-0.6,0.6c0,1.2,2.2,8,2.9,9.1C744.7,341.9,745.9,342,745.9,340.8z M708.3,344.5
	c-2-0.4-3.8-0.8-4-1c-0.4-0.4,7.6-10.9,9.3-12.3c1.1-0.9,3.4-1,5.7-0.1c1.4,0.5,1.6,0.8,1.5,1.9c-0.1,1.5-4.3,9-6.2,11
	C713.4,345.4,713.3,345.4,708.3,344.5z M715.5,338.4c1.8-3.9,1.8-4,0.9-4.6c-0.5-0.3-1.1-0.6-1.3-0.5c-0.9,0.3-5.1,7.1-4.9,7.8
	c0.3,0.8,1.8,1.5,2.8,1.4C713.4,342.4,714.5,340.6,715.5,338.4z M752.2,344.7c-1.7-2.1-8.2-17.9-8.2-20c0-1.1,0.4-1.6,1.7-2.5
	c2.2-1.5,3.8-1.5,5.2,0.2c2.3,2.8,8.9,17.4,8.9,19.8c0,1-0.3,1.4-1.8,2C755.2,345.2,752.9,345.5,752.2,344.7z M756.2,341.1
	c0.4-0.5,0-1.7-1.5-5.2c-3.6-8.1-4.1-9-5.4-9c-0.6,0-1.2,0.3-1.4,0.7c-0.2,0.6,4,10.8,5.5,13.1C754.1,341.8,755.4,342,756.2,341.1z
	 M802.1,344.1c-4.5-1.2-7.7-4-10-8.6c-2-4.1-2-4.2,4.9-3.9c5.6,0.2,5.8,0.2,9.8-1.2c2.2-0.8,5.7-2.5,7.7-3.8
	c3.5-2.3,7.2-5.5,6.8-5.9c-0.1-0.1-1.4,0.4-2.8,1.1c-7.6,3.8-14.1,4.5-19.3,2.2c-3.3-1.5-5.3-3.4-6.2-6.1c-0.8-2.2-0.9-4.8-0.3-5.2
	c0.2-0.1,2.1,0,4.2,0.3c4.8,0.7,7.8,0.1,12.7-2.3c4.1-2,9.8-6.1,9.5-6.7c-0.1-0.2-2.2-0.5-4.7-0.6c-3.8-0.2-4.9-0.4-7.5-1.7
	c-4-1.9-5.6-3.1-7.3-5.7c-2.2-3.3-2.1-3.3,3.7-3.3c8,0,15.6-1.1,15.6-2.3c0-0.2-0.7-0.4-1.5-0.4c-2.3,0-6.5-1.2-8.7-2.5
	c-2.6-1.5-4.3-4.1-4.4-6.6l0-1.9l6.7-0.1c7.2-0.1,12.6-1,14.2-2.3l1-0.8l-1.4-2.7c-2.4-4.6-2.7-9.1-0.8-12.8
	c1.9-3.6,2.9-3.9,5.2-1.6c0.8,0.9,1.8,1.5,2.1,1.5c0.3-0.1,1-1.2,1.6-2.6c0.5-1.4,1.3-2.5,1.7-2.6c0.4-0.1,2.2,1.1,4,2.5
	c5.2,4.1,4.9,4.1,7.8,1.4c1.6-1.4,2.8-2.2,3.2-2c0.4,0.1,0.7,0.3,0.8,0.3s1.2,1.8,2.4,4c4.6,8,9.4,11.4,19.4,13.3
	c10.8,2.1,14,3.6,16.5,7.9c1.8,3.1,2,5.8,0.4,8.9c-1.1,2.1-3.6,5-4.3,5c-0.2,0-0.6-0.8-0.9-1.9c-0.7-2.6-1.7-4-3.4-4.7
	c-1.7-0.7-4.1-0.8-5.1-0.2c-0.8,0.5-0.6,0.7,1.6,1.5c1.5,0.5,1.8,0.8,1.9,1.9c0.2,1.5-1,3-3.9,4.7c-2.1,1.2-2.1,1.2-15.8,0.3
	c-3.9-0.3-4.4-0.2-5.4,0.6c-1.8,1.4-2.4,4.3-2.3,12.2c0,10.6,1.3,15.4,5.2,19.4c4.1,4.3,9.9,5.8,14.1,3.6c1-0.5,2.1-1,2.4-1
	c0.7,0,0.6,3.4-0.2,4.9c-1,1.9-4.4,4.8-6.3,5.5c-1,0.3-3.1,0.5-5.2,0.4c-3-0.2-4-0.5-7.8-2.3l-4.3-2.1l-1.5,1.7
	c-3.1,3.6-3.5,3.9-4.8,3.5c-2.2-0.5-4.4-2.5-7-6c-3.4-4.7-4.1-5.3-5.4-4.7c-0.6,0.3-2.6,1.8-4.4,3.4c-3.7,3.1-8.6,5.8-12.6,6.8
	C809.6,344.7,804.9,344.9,802.1,344.1z M810.4,340.1c4.2-0.6,11-4,15.1-7.7c2.3-2.1,3.6-4.5,3.7-7.2c0.1-2,0-2.2-1-2.3
	c-0.8-0.1-2.2,0.6-4.7,2.4c-8.6,6.2-14.4,9.1-20.8,10.3c-4.7,0.9-5,1.2-3.9,2.4c0.5,0.5,1.3,1.2,1.8,1.4c1.1,0.6,5.1,1.2,6.6,1
	C807.7,340.5,809.2,340.3,810.4,340.1z M844.4,339.1c0.8-1,0.9-8,0-8.8c-0.5-0.5-1-0.3-3,0.7c-3.7,1.9-4,2.4-3,4.6
	c0.6,1.3,1.5,2.2,2.8,3C843.6,340.1,843.6,340.1,844.4,339.1z M864.6,339c0-0.2-0.5-0.5-1-0.5c-0.6,0-2.7-0.6-4.8-1.3
	c-2.1-0.7-3.9-1.3-4-1.2c-0.2,0.2,2.7,2.4,4,2.9C860.2,339.5,864.6,339.6,864.6,339z M838.4,327.1c1-2.8,1.3-8.4,0.5-9.4
	c-0.6-0.8-0.7-0.8-2.2-0.1c-0.9,0.4-2,1.2-2.6,1.8c-0.9,1-1,1.4-0.8,4.7c0.2,3.4,0.3,3.8,1.4,4.8c1.1,1,1.4,1,2.2,0.5
	C837.4,329.1,838,328,838.4,327.1z M811.4,320.3c4.5-1.3,14.3-9,18.1-14.1c1.5-2,1.8-2.8,1.8-4.4c0-3.3-0.9-3.1-6,1.9
	c-6.7,6.5-15.4,11.5-21.9,12.5c-4.4,0.7-5.5,1.1-5.3,2.2c0.1,0.6,0.8,1.3,1.7,1.8C801.8,321.2,808.2,321.3,811.4,320.3z
	 M845.7,318.6c1.3-3,1.6-7.4,0.6-9.3c-1-2-2.1-2.2-3.1-0.6c-1.6,2.4-0.6,11.8,1.2,11.8C844.6,320.5,845.2,319.7,845.7,318.6z
	 M833.5,315.6c3.7-2.7,6.6-8.2,5.5-10.4c-1-1.9-6.8,2.6-9.1,7.1c-0.7,1.5-1,3.8-0.4,4.3C830,317.3,831.7,316.9,833.5,315.6z
	 M847.5,301.9c0.8-1.6,1.1-3.2,1.3-5.6c0.2-4.2-0.1-4.7-3-4c-1.6,0.4-2.2,0.4-3.5-0.3c-1.5-0.7-1.7-0.7-3.8,0
	c-1.6,0.5-2.5,1.2-3.1,2.2c-1.1,1.8-1.1,4.4,0,5.7l0.8,1l1.8-1.2c1-0.7,2-1.2,2.3-1.2c0.2,0,1,1,1.6,2.1
	C844.5,305.2,845.7,305.4,847.5,301.9z M821,298.2c3.1-0.9,9-4,10.3-5.3c0.8-0.9,0.9-1.2,0.5-2.2c-1-2.7,0.7-6.5,4.3-9.6
	c5.2-4.4,5.6-4.9,5.2-6.3c-0.3-1.1-0.3-2.2,0-7.8c0.1-1.4-0.2-1.8-2.3-3.5c-1.3-1.1-2.6-1.8-2.8-1.7c-0.6,0.4-0.5,4.8,0.2,7.2
	c0.8,2.8,0.8,3.3,0,3.3c-1.1,0-4.5-3.4-6.8-6.8c-1.2-1.7-2.3-3.1-2.5-3.1s-0.7,0.5-1.1,1.1c-0.7,1-0.7,1.3,0,3.9
	c0.8,3.2,1.5,4.2,4.7,7.4c1.3,1.2,2.3,2.5,2.3,2.8c0,0.3-1,1-2.2,1.5c-4.5,1.9-7.3,2.4-15,2.6c-8.6,0.3-9.4,0.7-5,2.7
	c3.1,1.4,7.5,1.8,12.2,1.1c4.1-0.6,4.7-0.3,4.6,2.9c-0.1,3.4-1.9,4.8-8.6,6.4c-3.1,0.8-10.1,1.9-11.8,1.9c-0.9,0,0.8,1.4,2.1,1.8
	C811.8,299.2,818.3,299,821,298.2z M872.5,294.9c0.3-0.5-1.6-1-6-1.8c-4-0.7-5.6-1.6-5.1-2.9c0.5-1.4,9.6-4.1,15.1-4.5
	c3.5-0.3,4.2-0.2,6.9,0.9c1.6,0.7,3.1,1.2,3.2,1.2c0.7,0,0.1-3-0.9-4.3c-1.4-1.9-4.2-3.2-9.9-4.5c-6.6-1.6-6.5-1.6-9.2,1.7
	c-1.2,1.6-4.4,4.6-7,6.9c-2.6,2.2-4.8,4.2-4.8,4.3c0,0.5,2.5,1.1,7.6,2.1c2.6,0.5,5.1,1,5.6,1.1
	C869.7,295.4,872.2,295.4,872.5,294.9z M837.7,288.3c0.8-0.4,2.3-1.4,3.3-2.2c1-0.8,2.1-1.5,2.3-1.5c0.5,0,1,1.1,1,2.3
	c0,0.5,0.3,0.9,0.7,0.9c0.8,0,3.8-2.9,3.8-3.6c0-0.2,1.6-1.2,3.5-2.2c3.5-1.7,5.1-3.4,5.1-5.3c0-0.6-0.5-0.4-1.9,1
	c-2.6,2.5-4.8,3.1-8.4,2.1c-2.5-0.7-2.9-0.7-4.2-0.1c-2.1,1-6.4,5-7,6.6c-0.5,1.2-0.4,2.7,0.2,2.7
	C836.2,289.1,837,288.7,837.7,288.3z M858.8,283.8c3.2-3.3,4.9-5.4,4.9-6c0-0.2-0.4-0.1-0.8,0.2c-1,0.7-6.8,7.1-7.3,8.1
	C854.7,287.6,855.9,286.8,858.8,283.8z M851.7,274.8c1.1-0.9,0.5-1.6-1.1-1.3c-1.7,0.3-2.8-0.3-3.5-2c-0.7-1.7-1.2-1.7-1.6-0.2
	c-0.4,1.6,0.5,3.3,2.2,4C849.2,276,850.4,275.9,851.7,274.8z M852.9,267.3c0-0.7-2.3-4.1-3.1-4.5c-0.9-0.6-1.4,0.2-0.9,1.5
	C849.8,266.6,852.9,269,852.9,267.3z M693.6,343.7c-3.3-0.7-5.3-1.5-5.6-2.3c-0.1-0.3,0.7-1.2,1.8-2.1c3.9-3.2,17.6-12.5,18.3-12.5
	c1.1,0,4.1,2.6,4.1,3.5c0,0.8-10,12-11.8,13.3C699.2,344.5,697.8,344.5,693.6,343.7z M703.8,336.2c4.8-4.8,4.9-4.9,4-5.6
	c-0.9-0.6-1.3-0.5-7.1,3.4c-6,4-7.3,5.3-6.8,6.5c0.3,0.9,3,1.5,4.1,1C698.4,341.3,701,338.9,703.8,336.2z M822,343.6
	c-0.2-0.5,0.3-1.3,1.9-2.7c3.2-2.9,5.6-4.6,6.5-4.6c0.7,0,4.5,6.1,4.5,7.1c0,0.4-5.4,1-9.7,1C822.9,344.4,822.2,344.2,822,343.6z
	 M725.5,328.9c-1.2-1.2-1-4,0.4-5.1c1.4-1.1,4-1.2,4.4-0.3c0.2,0.6-0.7,5-1.1,5.4C728.5,329.6,726.2,329.6,725.5,328.9z
	 M728.3,325.8c0.1-1,0-1.2-0.7-1.1c-0.5,0.1-0.9,0.6-1,1.4c-0.1,1,0,1.2,0.7,1.1C727.8,327.1,728.2,326.6,728.3,325.8z M715.7,328.4
	c-1.1-0.4-2.3-0.9-2.6-1.3c-0.3-0.4-0.7-3.8-0.9-9.1c-0.2-4.7-0.5-8.8-0.7-9.3c-0.2-0.4-1.3-1.5-2.5-2.4c-3.5-2.6-3.8-4-2-8.5
	c0.7-1.7,1.1-3.6,1.1-5c0-2-0.3-2.7-2-5.3c-3.3-5-7.3-17.2-6.9-20.9c0.3-2.6,1.4-3.5,4.9-3.9c4.7-0.5,6.1-1,8.2-2.7
	c1.7-1.4,2.3-1.6,4.4-1.6c2.8,0,7.2,1.7,9.6,3.7c1.2,1,1.4,1.5,1.7,4.3c0.3,2.7,0.5,3.4,2.1,5.5c1,1.3,2.5,3.4,3.3,4.7
	c0.8,1.2,2.4,3.4,3.6,4.9c2.3,2.9,2.5,4.3,1.3,6.7c-0.9,1.7-2.4,3.5-3,3.5c-0.2,0-0.9-0.4-1.5-1c-1.2-1.1-1.3-0.7-0.4,1.5
	c0.7,1.8,0.6,2.4-1,4.1c-1.4,1.5-2.2,1.5-3.4,0.4l-0.9-0.9l0.2,2.2c0.1,2,0,2.2-1.4,3.3c-1.8,1.4-2.9,1.5-4,0.4
	c-1.6-1.5-1.8-0.1-0.5,4.8c1.1,4.2,1.2,5.6,1.2,12.4c0,7.2,0,7.8-0.9,8.6C721.5,328.9,718.3,329.2,715.7,328.4z M719.6,323
	c0.6-1,0.7-2,0.5-6.9c-0.2-3.1-0.7-8-1.2-10.8c-1.5-8.5-1.8-7.5,5.1-15.3c3.4-3.9,6.2-7.3,6.3-8c0.4-1.9-0.8-4.7-3.8-8.7
	c-2.6-3.4-2.7-3.7-2.6-5.9c0.1-2.6-0.2-3-4-4.4c-3.2-1.2-3.5-1.1-5.2,0.5c-2.1,2.1-3,2.5-6.8,3.1c-3.8,0.6-4.5,1.2-4.1,3.2
	c1.2,5.1,3.2,10.5,5.1,13.7c3.7,6.1,4.3,9.2,2.8,14.8l-0.8,2.9l1.6,2.4c2.2,3.4,2.5,4.5,3.1,12c0.5,6.7,1.1,8.7,2.5,8.7
	C718.6,324.1,719.2,323.6,719.6,323z M712,280.3c-2.6-1.4-1.1-7,1.9-7c2,0,3.6,1.6,3.6,3.6C717.5,280,714.7,281.8,712,280.3z
	 M726.2,299.6c0.9-0.8,1-1.4,0.4-2.4c-0.4-0.6-0.6-0.5-1.6,0.4C722.9,299.5,724.1,301.5,726.2,299.6z M733.2,285.6
	c1.9-2.1,2.4-3,2-3.3c-0.7-0.7-1-0.4-9,8.3c-4.9,5.3-6.4,7.3-6.2,7.9c0.2,0.6,1.3-0.3,5.5-4.6C728.3,290.8,731.8,287.1,733.2,285.6z
	 M731.8,294.2c0.1-0.5-0.3-1.3-0.8-1.7c-0.8-0.8-0.9-0.8-1.2-0.1c-0.2,0.4-0.2,1.3,0,1.9C730.2,295.7,731.6,295.6,731.8,294.2z
	 M736.9,287.2c0.7-0.9,0.8-1.5,0.5-1.8c-0.6-0.6-3.5,2-3.1,2.7C734.9,289,735.9,288.7,736.9,287.2z M732.8,326.1
	c-0.6-1.6-0.5-3.8,0.1-5.1c0.3-0.6,1.7-1.7,3.2-2.5l2.6-1.4l0.8,1c0.6,0.7,0.8,1.8,0.8,3.4c0,2-0.2,2.5-1.2,3.5
	C736.6,327.5,733.5,328,732.8,326.1z M736.9,324.6c0.6-0.3,0.9-0.9,0.9-1.8c0-1.5-0.7-1.9-2.1-1.3c-0.8,0.3-1,0.7-1,2
	C734.6,325.2,735.3,325.5,736.9,324.6z M742.6,321.1c-2.5-2.8-0.6-8.7,2.9-8.7c1.7,0,2.7,1.5,2.7,4.2c0,2.8-0.5,3.8-2.5,4.6
	C743.6,322.1,743.5,322.1,742.6,321.1z M745.9,318.3c0.3-0.5,0.4-1.5,0.2-2.3c-0.2-1-0.5-1.3-1.2-1.2c-1.4,0.2-2,2.4-1,3.5
	C744.9,319.4,745.3,319.4,745.9,318.3z M725.7,320.5c-0.3-0.3-0.5-1.4-0.5-2.5c0-1.7,0.3-2.2,1.9-4c2.7-2.9,3.7-2.7,3.9,0.9
	c0.1,1.5-0.1,3.2-0.4,3.9C729.8,320.6,726.9,321.7,725.7,320.5z M729,317.6c0.4-1.8-0.5-2.5-1.6-1.1c-1,1.2-0.7,2.3,0.5,2.3
	C728.4,318.7,728.8,318.3,729,317.6z M732.8,316.5c-0.3-0.5-0.4-2.3-0.4-3.9c0.1-2.9,0.2-3.1,1.7-4c0.8-0.6,2.1-1,2.8-1
	c1.1,0,1.3,0.2,1.7,1.7c1.1,3.8,0.4,6.2-2.2,7.5C734.6,317.6,733.4,317.6,732.8,316.5z M736.2,313.5c0.4-1.1,0.3-3.3-0.2-3.6
	c-0.5-0.3-2.2,1-2.2,1.6c0,0.2,0.2,0.9,0.4,1.5C734.7,314.4,735.7,314.6,736.2,313.5z M740.9,311.1c-0.3-0.5-0.6-2.2-0.8-3.8
	l-0.3-2.9l1.8-2c1.5-1.6,2-1.9,2.6-1.5c2,1.2,3.1,5.9,1.8,8.2c-0.7,1.2-2.9,2.8-4,2.8C741.8,312,741.2,311.6,740.9,311.1z
	 M744.4,307.9c0.7-0.7,0.7-3.7-0.1-4.4c-1.3-1.1-3.1,2.2-2.1,4C742.8,308.5,743.6,308.7,744.4,307.9z M725.9,310.6
	c-1-1.4-0.9-5.4,0.1-6.3c2.9-2.6,4.1-1.9,4.5,2.5c0.2,2.6,0.1,3-0.7,3.9C728.5,311.8,726.8,311.8,725.9,310.6z M728.7,307.4
	c0.1-1.5,0-1.7-0.7-1.6c-0.6,0.1-0.9,0.6-1,1.9c-0.1,1.5,0,1.7,0.7,1.6C728.3,309.1,728.6,308.6,728.7,307.4z M732,305.6
	c-0.3-0.3-0.6-1.7-0.6-3.1c0-2.2,0.2-2.7,1.3-3.7c1.9-1.9,3-1.6,3.9,0.9c0.4,1.2,0.7,2.5,0.7,3.1C737.3,304.8,733.4,307,732,305.6z
	 M735.5,302.6c0.2-2.1-0.6-2.8-1.8-1.5c-0.5,0.6-0.9,1.6-0.9,2.2c0,0.9,0.2,1.1,1.2,1C735.1,304.2,735.3,303.9,735.5,302.6z
	 M694.2,300.6c-1.4-0.3-4.9-1.1-7.9-1.6c-6.3-1.2-7.4-1.6-7.4-2.4c0-1,1.3-1.8,6-3.9c2.4-1.1,4.8-2.4,5.3-2.9
	c0.9-0.9,0.9-0.9,0.1-1.5c-0.5-0.3-2-0.6-3.6-0.6c-4.1,0-4.2-0.1-4.2-3.1c0-3.8,1.1-6.4,3.9-9.4c2.7-2.9,7.2-5.6,9.1-5.4
	c1.1,0.1,1.4,0.6,3.1,4.9c2,5.1,3.9,9.2,6,13c0.9,1.6,1.4,3.1,1.4,4.3c0,2.4-2.2,7-3.9,8.1C700.4,301.1,697.3,301.3,694.2,300.6z
	 M699,296.5c1.4-1,2.3-3,2.3-5c0-1.3-0.4-2.2-2-4.3c-1.3-1.6-2.7-4.3-3.9-7.2c-1-2.6-2-4.8-2.2-5c-1.3-1.3-5.5,2.2-6.3,5.3
	c-0.6,2.3-0.1,2.8,3.7,3.2c3.1,0.3,5,1.2,5.5,2.3c0.2,0.4,0.3,1.8,0.3,3.2c0,2.6-0.4,3.2-3.4,5.4c-1.7,1.2-1.1,2,1.7,2.4
	C697.7,297.2,697.9,297.2,699,296.5z M738,299.4c-0.9-1.7-0.9-4.6,0-6.3c0.9-1.7,3.2-3.7,4-3.4c0.8,0.3,3,5.1,2.9,6.5
	c0,1.2-0.6,2-2.4,3.4C740.7,301.2,738.9,301.1,738,299.4z M741.9,297.7c0.9-0.7,1-1,0.6-2.3c-0.6-2-1.8-2.8-2.7-1.6
	c-0.8,1.1-0.8,3.5-0.1,4.2C740.4,298.7,740.6,298.7,741.9,297.7z M671.5,296.5c-4.7-2.5-5.4-3.6-5.1-8.1c0.2-3.5,1.6-5.7,5.3-8.6
	c3-2.3,7.9-4.8,8.8-4.5c0.8,0.3,0.8,0.6-0.1,6.5l-0.7,4.8l-2.7,2.6c-2.6,2.4-2.7,2.6-2.4,4.3c0.6,3.6,0.6,3.5-0.6,3.6
	C673.3,297.1,672.2,296.9,671.5,296.5z M673.4,287.8c2.1-1.9,2.4-2.4,2.6-4.3c0.2-1.9,0.1-2.1-0.7-2.1c-2.3,0-6.6,6.8-5.2,8.2
	C670.7,290.2,670.9,290,673.4,287.8z"/>
<g>
	<path fill="#193F93" stroke="#193F93" d="M558,77h20.4v69.2c0,6,0.5,10.2,1.6,12.6c1,2.5,2.8,4.4,5.2,5.9c2.4,1.5,5.3,2.2,8.7,2.2
		c3.6,0,6.7-0.8,9.3-2.5c2.6-1.6,4.4-3.7,5.4-6.3c1-2.5,1.5-7.4,1.5-14.6V77h20.4v63.8c0,10.8-0.6,18.2-1.8,22.4
		c-1.2,4.2-3.5,8.2-6.9,12.1c-3.4,3.9-7.4,6.8-11.8,8.6c-4.5,1.9-9.6,2.8-15.6,2.8c-7.8,0-14.5-1.8-20.2-5.3
		c-5.7-3.6-9.9-8-12.3-13.4c-2.5-5.4-3.7-14.4-3.7-27.2V77z"/>
	<path fill="#193F93" stroke="#193F93" d="M654.1,77h19.5l45.8,70.4V77h20.4v106.9h-19.6l-45.7-70.2v70.2h-20.4V77z"/>
	<path fill="#193F93" stroke="#193F93" d="M796.8,77h20.6l41.1,106.9h-21.2l-8.4-22h-43.6l-8.7,22h-21.2L796.8,77z M807.3,105.3
		L792.9,142h28.6L807.3,105.3z"/>
	<path fill="#193F93" stroke="#193F93" d="M884.7,77h19.8l24.8,74.6l25-74.6h19.8l17.9,106.9h-19.7l-11.5-67.5l-22.7,67.5h-17.9
		l-22.5-67.5L886,183.9h-19.8L884.7,77z"/>
</g>
<g>
	<path fill="#193F93" stroke="#193F93" d="M449.5,248.9h53.1v19.8h-32.9v19.4h32.9v19.6h-32.9v48.1h-20.2V248.9z"/>
</g>
<g>
	<path fill="#193F93" stroke="#193F93" d="M446.3,374.9h58.4v19.9h-38.2v19.3h38.2v19.6h-38.2v28.1h38.2v20h-58.4V374.9z"/>
</g>
<g>
	<path fill="#193F93" stroke="#193F93" d="M502.4,513.8l-15.1,13.3c-5.3-7.4-10.7-11-16.2-11c-2.7,0-4.9,0.7-6.6,2.1
		c-1.7,1.4-2.5,3-2.5,4.8c0,1.8,0.6,3.5,1.8,5.1c1.7,2.1,6.6,6.7,14.9,13.7c7.8,6.5,12.5,10.6,14.1,12.3c4.1,4.2,7.1,8.2,8.8,12
		c1.7,3.8,2.6,8,2.6,12.5c0,8.8-3,16-9.1,21.7c-6.1,5.7-14,8.6-23.7,8.6c-7.6,0-14.3-1.9-19.9-5.6c-5.7-3.7-10.5-9.6-14.5-17.6
		l17.1-10.3c5.1,9.4,11.1,14.2,17.8,14.2c3.5,0,6.4-1,8.8-3.1c2.4-2,3.6-4.4,3.6-7.1c0-2.4-0.9-4.8-2.7-7.3
		c-1.8-2.4-5.8-6.1-11.9-11.1c-11.7-9.5-19.2-16.8-22.6-22c-3.4-5.2-5.1-10.3-5.1-15.4c0-7.4,2.8-13.8,8.5-19.1
		c5.7-5.3,12.6-8,20.9-8c5.3,0,10.4,1.2,15.2,3.7C491.5,502.7,496.8,507.2,502.4,513.8z"/>
</g>
<g>
	<path fill="#193F93" stroke="#193F93" d="M578.3,713h18.3l36.5,94.8h-18.8l-7.4-19.5h-38.7l-7.7,19.5h-18.8L578.3,713z
		 M587.5,738.2l-12.7,32.5h25.4L587.5,738.2z"/>
	<path fill="#193F93" stroke="#193F93" d="M640.9,737.7H656v8.8c1.6-3.5,3.8-6.1,6.5-7.9c2.7-1.8,5.7-2.7,8.9-2.7
		c2.3,0,4.7,0.6,7.2,1.8l-5.5,15.1c-2.1-1-3.8-1.5-5.1-1.5c-2.7,0-5,1.7-6.9,5c-1.9,3.4-2.8,9.9-2.8,19.7l0.1,3.4v28.4h-17.5V737.7z
		"/>
	<path fill="#193F93" stroke="#193F93" d="M739,737.7h17.6v70.1H739v-7.4c-3.4,3.3-6.9,5.6-10.3,7.1c-3.5,1.4-7.2,2.2-11.2,2.2
		c-9.1,0-16.9-3.5-23.5-10.5c-6.6-7-9.9-15.8-9.9-26.2c0-10.8,3.2-19.7,9.6-26.6c6.4-6.9,14.2-10.4,23.3-10.4
		c4.2,0,8.2,0.8,11.8,2.4c3.7,1.6,7.1,4,10.2,7.2V737.7z M720.5,752.1c-5.4,0-10,1.9-13.6,5.8c-3.6,3.8-5.4,8.8-5.4,14.8
		c0,6.1,1.8,11,5.5,15c3.7,3.9,8.2,5.9,13.5,5.9c5.5,0,10.1-1.9,13.7-5.8c3.6-3.8,5.5-8.9,5.5-15.1c0-6.1-1.8-11-5.5-14.8
		C730.7,754,726.1,752.1,720.5,752.1z"/>
	<path fill="#193F93" stroke="#193F93" d="M826.2,737.7h17.5v60.1c0,11.9-2.4,20.6-7.2,26.2c-6.4,7.6-16.1,11.3-28.9,11.3
		c-6.9,0-12.7-0.9-17.3-2.6c-4.7-1.7-8.6-4.2-11.9-7.6c-3.2-3.3-5.6-7.4-7.2-12.1h19.4c1.7,2,3.9,3.5,6.6,4.5c2.7,1,5.9,1.5,9.6,1.5
		c4.7,0,8.5-0.7,11.4-2.2c2.9-1.5,4.9-3.4,6.1-5.7c1.2-2.3,1.8-6.3,1.8-12c-3.1,3.1-6.3,5.3-9.7,6.7c-3.4,1.4-7.2,2-11.5,2
		c-9.4,0-17.4-3.4-23.8-10.2c-6.5-6.8-9.7-15.4-9.7-25.8c0-11.1,3.4-20.1,10.3-26.8c6.2-6.1,13.7-9.2,22.3-9.2c4,0,7.9,0.7,11.4,2.2
		c3.6,1.5,7.2,3.9,10.8,7.3V737.7z M808,752.3c-5.5,0-10.1,1.9-13.7,5.6c-3.6,3.7-5.4,8.4-5.4,14c0,5.8,1.8,10.6,5.5,14.4
		c3.7,3.7,8.3,5.6,13.9,5.6c5.5,0,10-1.8,13.5-5.5c3.5-3.7,5.3-8.4,5.3-14.4c0-5.8-1.8-10.6-5.4-14.2
		C818.2,754.2,813.6,752.3,808,752.3z"/>
	<path fill="#193F93" stroke="#193F93" d="M894.5,735.9c6.6,0,12.8,1.7,18.7,5c5.8,3.3,10.4,7.8,13.6,13.5
		c3.3,5.7,4.9,11.8,4.9,18.4c0,6.6-1.6,12.8-4.9,18.6c-3.3,5.8-7.8,10.3-13.4,13.5c-5.7,3.2-11.9,4.9-18.8,4.9
		c-10.1,0-18.6-3.6-25.7-10.7c-7.1-7.2-10.7-15.8-10.7-26.1c0-11,4-20.1,12.1-27.4C877.2,739.1,885.3,735.9,894.5,735.9z
		 M894.8,752.5c-5.5,0-10,1.9-13.7,5.7c-3.6,3.8-5.5,8.7-5.5,14.6c0,6.1,1.8,11,5.4,14.8c3.6,3.8,8.1,5.7,13.7,5.7
		c5.5,0,10.1-1.9,13.8-5.7c3.7-3.8,5.5-8.7,5.5-14.8s-1.8-10.9-5.4-14.7C905,754.4,900.4,752.5,894.8,752.5z M897.8,699.6h20.8
		L895,724.9h-12.6L897.8,699.6z"/>
	<path fill="#193F93" stroke="#193F93" d="M946,737.7h17.6v7.2c4-3.4,7.6-5.7,10.8-7c3.2-1.3,6.6-2,9.9-2c6.9,0,12.9,2.4,17.7,7.3
		c4.1,4.1,6.1,10.2,6.1,18.3v46.3h-17.4v-30.7c0-8.4-0.4-13.9-1.1-16.7c-0.8-2.8-2.1-4.8-3.9-6.3c-1.9-1.4-4.2-2.2-6.9-2.2
		c-3.6,0-6.6,1.2-9.2,3.6c-2.5,2.4-4.3,5.7-5.3,9.9c-0.5,2.2-0.8,6.9-0.8,14.2v28.1H946V737.7z"/>
</g>
<path fill="#193F93" stroke="#193F93" stroke-width="1.5349" stroke-miterlimit="10" d="M10.7,820.3v26.1l196.5,41.4
	c0,0,22.3,3.8,43.7,0l253.3-39.9v-27.6l-254,45.3c0,0-29.9,6.1-39.9,0.8L10.7,820.3z"/>
<polygon fill="#193F93" stroke="#193F93" stroke-width="1.5349" stroke-miterlimit="10" points="85.4,815.7 103.4,806.5 
	157.6,112.2 142.8,124.5 "/>
<polygon fill="#193F93" stroke="#193F93" stroke-width="1.5349" stroke-miterlimit="10" points="124.3,823.9 180.1,815.7 
	208.2,78.4 175,55.9 "/>
<polygon fill="#193F93" stroke="#193F93" stroke-width="1.5349" stroke-miterlimit="10" points="203.1,808 215.4,798.8 228.7,156.7 
	218.5,156.7 "/>
<polygon fill="#193F93" stroke="#193F93" stroke-width="1.5349" stroke-miterlimit="10" points="228.7,832.6 264,808 262.5,52.8 
	238.9,26.2 "/>
<polygon fill="#193F93" stroke="#193F93" stroke-width="1.5349" stroke-miterlimit="10" points="281.9,808 294.7,794.2 287.5,156.7 
	273.2,156.7 "/>
<polygon fill="#193F93" stroke="#193F93" stroke-width="1.5349" stroke-miterlimit="10" points="305.5,815.7 354.1,808 328.5,36.5 
	296.8,64.6 "/>
<polygon fill="#193F93" stroke="#193F93" stroke-width="1.5349" stroke-miterlimit="10" points="372.5,808 426.2,800.9 370.9,78.4 
	337.2,102.5 "/>
</svg>
